SplineFontDB: 3.0
FontName: Rokkitt 100-Regular
FullName: Rokkitt Light 100
FamilyName: Rokkitt 100
Weight: Regular
ItalicAngle: 0
UnderlinePosition: 0
UnderlineWidth: 0
Ascent: 1638
Descent: 410
UFOAscent: 1152
UFODescent: -410
LayerCount: 2
Layer: 0 0 "Back"  1
Layer: 1 0 "Fore"  0
OS2Version: 0
OS2_WeightWidthSlopeOnly: 0
OS2_UseTypoMetrics: 0
CreationTime: 1388524063
ModificationTime: 1388524252
PfmFamily: 0
TTFWeight: 300
TTFWidth: 5
LineGap: 0
VLineGap: 0
Panose: 2 0 5 3 5 0 0 2 0 3
OS2TypoAscent: 0
OS2TypoAOffset: 1
OS2TypoDescent: 0
OS2TypoDOffset: 1
OS2TypoLinegap: 0
OS2WinAscent: 0
OS2WinAOffset: 1
OS2WinDescent: 0
OS2WinDOffset: 1
HheadAscent: 0
HheadAOffset: 1
HheadDescent: 0
HheadDOffset: 1
OS2SubXSize: 1331
OS2SubYSize: 1228
OS2SubXOff: 0
OS2SubYOff: 153
OS2SupXSize: 1331
OS2SupYSize: 1228
OS2SupXOff: 0
OS2SupYOff: 716
OS2StrikeYSize: 0
OS2StrikeYPos: 501
OS2Vendor: 'PfEd'
Lookup: 258 0 0 "'kern' Horizontal Kerning in Latin lookup 0"  {"'kern' Horizontal Kerning in Latin lookup 0 subtable"  } ['kern' ('latn' <'dflt' > ) ]
DEI: 91125
LangName: 1033 "" "" "" "" "" "" "" "" "Vernon Adams" "Vernon Adams" "" "newtypography.co.uk" "newtypography.co.uk" 
PickledData: "(dp1
S'com.typemytype.robofont.shouldAddPointsInSplineConversion'
p2
I1
sS'com.petr.ptt'
p3
(dp4
S'originals'
p5
(dp6
S'maxp'
p7
(dp8
S'tableTag'
p9
S'maxp'
p10
sS'numGlyphs'
p11
I423
sS'tableVersion'
p12
I20480
ssssS'com.schriftgestaltung.weight'
p13
S'Light'
p14
sS'com.typemytype.robofont.compileSettings.autohint'
p15
I0
sS'GSDimensionPlugin.Dimensions'
p16
(dp17
S'1F09728C-766D-4240-AE17-E499EF32E23D'
p18
(dp19
sS'98C086B7-81AA-4491-8494-0C6A76849168'
p20
(dp21
sS'EFCDB4D9-E20B-4A8D-9DB5-150AD166B0AE'
p22
(dp23
ssS'com.typemytype.robofont.compileSettings.checkOutlines'
p24
I1
sS'com.typemytype.robofont.compileSettings.MacRomanFirst'
p25
I1
sS'com.typemytype.robofont.compileSettings.generateFormat'
p26
I0
sS'com.typemytype.robofont.compileSettings.decompose'
p27
I1

StartChar: A
Encoding: 65 65 0
Width: 1271
VWidth: 0
Flags: W
PickledData: "(dp1
S'com.typemytype.robofont.layerData'
p2
(dp3
S'b'
(dp4
S'name'
p5
S'A'
sS'lib'
p6
(dp7
sS'unicodes'
p8
(tsS'width'
p9
I1271
sS'contours'
p10
(tsS'components'
p11
(tsS'anchors'
p12
(tsss."
AnchorPoint: "bot" 635.5 0 basechar 0
AnchorPoint: "top" 635.5 1152 basechar 0
AnchorPoint: "ogonek" 1089 0 basechar 0
LayerCount: 2
Fore
SplineSet
36 0 m 257
 386 0 l 257
 386 34 l 257
 238 34 l 257
 408 488 l 257
 864 488 l 257
 1034 34 l 257
 885 34 l 257
 885 0 l 257
 1235 0 l 257
 1235 34 l 257
 1080 34 l 257
 665 1118 l 257
 827 1118 l 257
 827 1152 l 257
 449 1152 l 257
 449 1118 l 257
 607 1118 l 257
 191 34 l 257
 36 34 l 257
 36 0 l 257
424 520 m 257
 634 1111 l 257
 637 1111 l 257
 860 520 l 257
 424 520 l 257
EndSplineSet
EndChar

StartChar: AE
Encoding: 198 198 1
Width: 1697
VWidth: 0
Flags: W
PickledData: "(dp1
S'com.typemytype.robofont.layerData'
p2
(dp3
S'b'
(dp4
S'name'
p5
S'AE'
p6
sS'lib'
p7
(dp8
sS'unicodes'
p9
(tsS'width'
p10
I1697
sS'contours'
p11
(tsS'components'
p12
(tsS'anchors'
p13
(tsss."
AnchorPoint: "top" 848.5 1152 basechar 0
AnchorPoint: "ogonek" 1606 0 basechar 0
LayerCount: 2
Fore
SplineSet
36 0 m 257
 386 0 l 257
 388 34 l 257
 240 34 l 257
 442 488 l 257
 898 488 l 257
 1036 34 l 257
 887 34 l 257
 885 0 l 257
 1609 0 l 257
 1609 362 l 257
 1569 362 l 257
 1569 34 l 257
 1077 34 l 257
 912 569 l 257
 1346 569 l 257
 1346 390 l 257
 1385 390 l 257
 1385 770 l 257
 1345 770 l 257
 1345 603 l 257
 902 603 l 257
 743 1118 l 257
 1551 1118 l 257
 1551 796 l 257
 1591 796 l 257
 1591 1152 l 257
 529 1152 l 257
 527 1118 l 257
 672 1118 l 257
 193 34 l 257
 38 34 l 257
 36 0 l 257
453 520 m 257
 704 1111 l 257
 707 1111 l 257
 889 520 l 257
 453 520 l 257
EndSplineSet
EndChar

StartChar: B
Encoding: 66 66 13
Width: 1232
VWidth: 0
Flags: W
PickledData: "(dp1
S'com.typemytype.robofont.layerData'
p2
(dp3
S'b'
(dp4
S'name'
p5
S'B'
sS'lib'
p6
(dp7
sS'unicodes'
p8
(tsS'width'
p9
I1232
sS'contours'
p10
((dp11
S'points'
p12
((dp13
S'segmentType'
p14
S'line'
p15
sS'x'
I353
sS'smooth'
p16
I0
sS'y'
I1095
s(dp17
g14
S'line'
p18
sS'x'
I740
sg16
I1
sS'y'
I1095
s(dp19
S'y'
I1095
sS'x'
I917
sg16
I0
s(dp20
S'y'
I983
sS'x'
I1004
sg16
I0
s(dp21
g14
S'curve'
p22
sS'x'
I1004
sg16
I1
sS'y'
I868
s(dp23
S'y'
I751
sS'x'
I1004
sg16
I0
s(dp24
S'y'
I634
sS'x'
I928
sg16
I0
s(dp25
g14
S'curve'
p26
sS'x'
I784
sg16
I1
sS'y'
I634
s(dp27
g14
S'line'
p28
sS'x'
I353
sg16
I0
sS'y'
I634
stp29
s(dp30
g12
((dp31
g14
S'line'
p32
sS'x'
I353
sg16
I0
sS'y'
I573
s(dp33
g14
S'line'
p34
sS'x'
I793
sg16
I1
sS'y'
I573
s(dp35
S'y'
I573
sS'x'
I979
sg16
I0
s(dp36
S'y'
I439
sS'x'
I1072
sg16
I0
s(dp37
g14
S'curve'
p38
sS'x'
I1072
sg16
I1
sS'y'
I320
s(dp39
S'y'
I187
sS'x'
I1072
sg16
I0
s(dp40
S'y'
I58
sS'x'
I985
sg16
I0
s(dp41
g14
S'curve'
p42
sS'x'
I807
sg16
I1
sS'y'
I58
s(dp43
g14
S'line'
p44
sS'x'
I353
sg16
I0
sS'y'
I58
stp45
s(dp46
g12
((dp47
g14
S'line'
p48
sS'x'
I807
sg16
I1
sS'y'
I0
s(dp49
S'y'
I0
sS'x'
I1031
sg16
I0
s(dp50
S'y'
I158
sS'x'
I1146
sg16
I0
s(dp51
g14
S'curve'
p52
sS'x'
I1146
sg16
I1
sS'y'
I316
s(dp53
S'y'
I439
sS'x'
I1146
sg16
I0
s(dp54
S'y'
I568
sS'x'
I1074
sg16
I0
s(dp55
g14
S'curve'
p56
sS'x'
I919
sg16
I0
sS'y'
I611
s(dp57
S'y'
I669
sS'x'
I1029
sg16
I0
s(dp58
S'y'
I769
sS'x'
I1079
sg16
I0
s(dp59
g14
S'curve'
p60
sS'x'
I1079
sg16
I1
sS'y'
I870
s(dp61
S'y'
I1012
sS'x'
I1079
sg16
I0
s(dp62
S'y'
I1154
sS'x'
I964
sg16
I0
s(dp63
g14
S'curve'
p64
sS'x'
I740
sg16
I1
sS'y'
I1154
s(dp65
g14
S'line'
p66
sS'x'
I122
sg16
I0
sS'y'
I1154
s(dp67
g14
S'line'
p68
sS'x'
I122
sg16
I0
sS'y'
I1095
s(dp69
g14
S'line'
p70
sS'x'
I278
sg16
I0
sS'y'
I1095
s(dp71
g14
S'line'
p72
sS'x'
I278
sg16
I0
sS'y'
I58
s(dp73
g14
S'line'
p74
sS'x'
I135
sg16
I0
sS'y'
I58
s(dp75
g14
S'line'
p76
sS'x'
I135
sg16
I0
sS'y'
I0
stp77
stp78
sS'components'
p79
(tsS'anchors'
p80
(tsss."
AnchorPoint: "top" 616 1152 basechar 0
LayerCount: 2
Fore
SplineSet
279 0 m 257
 861 0 l 258
 1038 0 1159 139 1159 314 c 256
 1159 423 1095 578 914 611 c 257
 1024 646 1087 738 1087 873 c 256
 1087 1060 983 1152 771 1152 c 258
 280 1152 l 257
 280 1118 l 257
 771 1118 l 258
 957 1118 1048 1043 1048 873 c 256
 1048 741 975 623 835 623 c 258
 282 623 l 257
 282 589 l 257
 835 589 l 258
 1036 589 1117 448 1117 314 c 256
 1117 158 1014 34 861 34 c 258
 279 34 l 257
 279 0 l 257
EndSplineSet
Refer: 380 -1 N 1 0 0 1 -33 0 2
EndChar

StartChar: C
Encoding: 67 67 14
Width: 1345
VWidth: 0
Flags: W
PickledData: "(dp1
S'com.typemytype.robofont.layerData'
p2
(dp3
S'b'
(dp4
S'name'
p5
S'C'
sS'lib'
p6
(dp7
sS'unicodes'
p8
(tsS'width'
p9
I1345
sS'contours'
p10
(tsS'components'
p11
(tsS'anchors'
p12
(tsss."
AnchorPoint: "top" 672.5 1152 basechar 0
AnchorPoint: "bot" 695 0 basechar 0
LayerCount: 2
Fore
SplineSet
689 -22 m 256
 912 -22 1091 53 1215 245 c 257
 1189 268 l 257
 1070 72 871 14 689 14 c 256
 427 14 140 193 140 580 c 256
 140 867 336 1136 689 1136 c 256
 952 1136 1078 1032 1185 820 c 257
 1205 825 l 257
 1205 1152 l 257
 1171 1152 l 257
 1171 904 l 257
 1082 1070 954 1172 689 1172 c 256
 335 1172 96 908 96 582 c 256
 96 154 423 -22 689 -22 c 256
EndSplineSet
EndChar

StartChar: D
Encoding: 68 68 21
Width: 1353
VWidth: 0
Flags: W
PickledData: "(dp1
S'com.typemytype.robofont.layerData'
p2
(dp3
S'b'
(dp4
S'name'
p5
S'D'
sS'lib'
p6
(dp7
sS'unicodes'
p8
(tsS'width'
p9
I1353
sS'contours'
p10
(tsS'components'
p11
(tsS'anchors'
p12
(tsss."
AnchorPoint: "bot" 676.5 0 basechar 0
AnchorPoint: "top" 676.5 1152 basechar 0
AnchorPoint: "mid" 270 592 basechar 0
LayerCount: 2
Fore
SplineSet
279 0 m 257
 783 0 l 258
 1099 0 1257 321 1257 570 c 256
 1257 823 1107 1152 777 1152 c 258
 279 1152 l 257
 279 1118 l 257
 779 1118 l 258
 1067 1118 1215 823 1215 570 c 256
 1215 319 1067 34 773 34 c 258
 279 34 l 257
 279 0 l 257
EndSplineSet
Refer: 380 -1 N 1 0 0 1 -33 0 2
EndChar

StartChar: Delta
Encoding: 916 916 24
Width: 1271
VWidth: 0
Flags: W
LayerCount: 2
Fore
SplineSet
175 0 m 257
 1106 0 l 257
 673 1152 l 257
 615 1152 l 257
 175 0 l 257
1032 50 m 257
 230 50 l 257
 634 1125 l 257
 637 1125 l 257
 1032 50 l 257
EndSplineSet
EndChar

StartChar: E
Encoding: 69 69 25
Width: 1126
VWidth: 0
Flags: W
PickledData: "(dp1
S'com.typemytype.robofont.layerData'
p2
(dp3
S'b'
(dp4
S'name'
p5
S'E'
sS'lib'
p6
(dp7
sS'unicodes'
p8
(tsS'width'
p9
I1126
sS'contours'
p10
(tsS'components'
p11
(tsS'anchors'
p12
(tsss."
AnchorPoint: "bot" 563 0 basechar 0
AnchorPoint: "top" 563 1152 basechar 0
AnchorPoint: "ogonek" 625 0 basechar 0
LayerCount: 2
Fore
SplineSet
733 390 m 257
 772 390 l 257
 772 770 l 257
 732 770 l 257
 732 603 l 257
 281 603 l 257
 280 569 l 257
 733 569 l 257
 733 390 l 257
274 0 m 257
 1038 0 l 257
 1038 362 l 257
 998 362 l 257
 998 34 l 257
 274 34 l 257
 274 0 l 257
970 796 m 257
 1010 796 l 257
 1010 1152 l 257
 274 1152 l 257
 274 1118 l 257
 970 1118 l 257
 970 796 l 257
EndSplineSet
Refer: 380 -1 N 1 0 0 1 -33 0 2
EndChar

StartChar: Eng
Encoding: 330 330 34
Width: 1397
VWidth: 0
Flags: W
LayerCount: 2
Fore
SplineSet
1323 1152 m 257
 1005 1152 l 257
 1005 1118 l 257
 1156 1118 l 257
 1156 63 l 257
 280 1152 l 257
 102 1152 l 257
 102 1118 l 257
 246 1118 l 257
 246 34 l 257
 102 34 l 257
 102 0 l 257
 439 0 l 257
 439 34 l 257
 290 34 l 257
 290 1073 l 257
 1156 0 l 257
 1156 -50 l 258
 1156 -239 1053 -359 832 -359 c 257
 829 -393 l 257
 1062 -393 1200 -280 1200 -36 c 258
 1200 1118 l 257
 1323 1118 l 257
 1323 1152 l 257
EndSplineSet
EndChar

StartChar: Euro
Encoding: 8364 8364 37
Width: 1408
VWidth: 0
Flags: W
LayerCount: 2
Fore
SplineSet
697 -25 m 256
 935 -25 1113 53 1238 245 c 257
 1203 284 l 257
 1084 88 894 14 724 14 c 256
 383 14 210 222 167 460 c 257
 602 460 l 257
 628 493 l 257
 163 493 l 257
 160 521 158 551 158 580 c 256
 158 599 159 617 161 636 c 257
 602 636 l 257
 628 669 l 257
 162 669 l 257
 201 916 399 1131 724 1131 c 256
 975 1131 1143 970 1208 820 c 257
 1239 836 l 257
 1239 1152 l 257
 1193 1152 l 257
 1193 934 l 257
 1090 1092 906 1172 701 1172 c 256
 400 1172 166 956 124 669 c 257
 1 669 l 257
 -25 636 l 257
 121 636 l 257
 120 619 119 600 119 582 c 256
 119 550 120 522 124 493 c 257
 1 493 l 257
 -25 460 l 257
 128 460 l 257
 185 122 467 -25 697 -25 c 256
EndSplineSet
EndChar

StartChar: F
Encoding: 70 70 38
Width: 1102
VWidth: 0
Flags: W
PickledData: "(dp1
S'com.typemytype.robofont.layerData'
p2
(dp3
S'b'
(dp4
S'name'
p5
S'F'
sS'lib'
p6
(dp7
sS'unicodes'
p8
(tsS'width'
p9
I1102
sS'contours'
p10
((dp11
S'points'
p12
((dp13
S'segmentType'
p14
S'line'
p15
sS'x'
I990
sS'smooth'
p16
I0
sS'y'
I1086
s(dp17
g14
S'line'
p18
sS'x'
I990
sg16
I0
sS'y'
I802
s(dp19
g14
S'line'
p20
sS'x'
I1062
sg16
I0
sS'y'
I802
s(dp21
g14
S'line'
p22
sS'x'
I1062
sg16
I0
sS'y'
I1152
s(dp23
g14
S'line'
p24
sS'x'
I122
sg16
I0
sS'y'
I1152
s(dp25
g14
S'line'
p26
sS'x'
I122
sg16
I0
sS'y'
I1086
s(dp27
g14
S'line'
p28
sS'x'
I286
sg16
I0
sS'y'
I1086
s(dp29
g14
S'line'
p30
sS'x'
I286
sg16
I0
sS'y'
I1039
s(dp31
g14
S'line'
p32
sS'x'
I363
sg16
I0
sS'y'
I1039
s(dp33
g14
S'line'
p34
sS'x'
I363
sg16
I0
sS'y'
I1086
stp35
s(dp36
g12
((dp37
g14
S'line'
p38
sS'x'
I286
sg16
I0
sS'y'
I1039
s(dp39
g14
S'line'
p40
sS'x'
I286
sg16
I0
sS'y'
I677
s(dp41
g14
S'line'
p42
sS'x'
I363
sg16
I0
sS'y'
I677
s(dp43
g14
S'line'
p44
sS'x'
I363
sg16
I0
sS'y'
I1039
stp45
s(dp46
g12
((dp47
g14
S'line'
p48
sS'x'
I286
sg16
I0
sS'y'
I677
s(dp49
g14
S'line'
p50
sS'x'
I286
sg16
I0
sS'y'
I65
s(dp51
g14
S'line'
p52
sS'x'
I122
sg16
I0
sS'y'
I65
s(dp53
g14
S'line'
p54
sS'x'
I122
sg16
I0
sS'y'
I0
s(dp55
g14
S'line'
p56
sS'x'
I552
sg16
I0
sS'y'
I0
s(dp57
g14
S'line'
p58
sS'x'
I552
sg16
I0
sS'y'
I65
s(dp59
g14
S'line'
p60
sS'x'
I363
sg16
I0
sS'y'
I65
s(dp61
g14
S'line'
p62
sS'x'
I363
sg16
I0
sS'y'
I539
s(dp63
g14
S'line'
p64
sS'x'
I824
sg16
I0
sS'y'
I539
s(dp65
g14
S'line'
p66
sS'x'
I824
sg16
I0
sS'y'
I378
s(dp67
g14
S'line'
p68
sS'x'
I886
sg16
I0
sS'y'
I378
s(dp69
g14
S'line'
p70
sS'x'
I886
sg16
I0
sS'y'
I764
s(dp71
g14
S'line'
p72
sS'x'
I824
sg16
I0
sS'y'
I764
s(dp73
g14
S'line'
p74
sS'x'
I824
sg16
I0
sS'y'
I601
s(dp75
g14
S'line'
p76
sS'x'
I363
sg16
I0
sS'y'
I601
s(dp77
g14
S'line'
p78
sS'x'
I363
sg16
I0
sS'y'
I677
stp79
stp80
sS'components'
p81
(tsS'anchors'
p82
(tsss."
AnchorPoint: "top" 551 1152 basechar 0
AnchorPoint: "bot" 551 0 basechar 0
LayerCount: 2
Fore
SplineSet
802 390 m 257
 838 390 l 257
 838 770 l 257
 802 770 l 257
 802 609 l 257
 284 609 l 257
 284 575 l 257
 802 575 l 257
 802 390 l 257
990 796 m 257
 1026 796 l 257
 1026 1152 l 257
 274 1152 l 257
 274 1118 l 257
 990 1118 l 257
 990 796 l 257
EndSplineSet
Refer: 380 -1 N 1 0 0 1 -33 0 2
EndChar

StartChar: G
Encoding: 71 71 39
Width: 1338
VWidth: 0
Flags: W
PickledData: "(dp1
S'com.typemytype.robofont.layerData'
p2
(dp3
S'b'
(dp4
S'name'
p5
S'G'
sS'lib'
p6
(dp7
sS'unicodes'
p8
(tsS'width'
p9
I1338
sS'contours'
p10
(tsS'components'
p11
(tsS'anchors'
p12
(tsss."
AnchorPoint: "top" 669 1152 basechar 0
AnchorPoint: "bot" 688 0 basechar 0
LayerCount: 2
Fore
SplineSet
684 -22 m 256
 874 -22 1222 59 1222 543 c 257
 925 543 l 257
 925 509 l 257
 1180 509 l 257
 1175 110 861 14 684 14 c 256
 349 14 138 233 138 582 c 256
 138 924 349 1138 684 1138 c 256
 890 1138 1068 1034 1146 851 c 257
 1178 851 l 257
 1178 1152 l 257
 1134 1152 l 257
 1134 945 l 257
 1043 1093 869 1174 684 1174 c 256
 323 1174 96 946 96 582 c 256
 96 211 323 -22 684 -22 c 256
EndSplineSet
EndChar

StartChar: H
Encoding: 72 72 45
Width: 1409
VWidth: 0
Flags: W
PickledData: "(dp1
S'com.typemytype.robofont.layerData'
p2
(dp3
S'b'
(dp4
S'name'
p5
S'H'
sS'lib'
p6
(dp7
sS'unicodes'
p8
(tsS'width'
p9
I1409
sS'contours'
p10
(tsS'components'
p11
(tsS'anchors'
p12
(tsss."
AnchorPoint: "top" 704.5 1152 basechar 0
AnchorPoint: "bot" 703 0 basechar 0
LayerCount: 2
Fore
SplineSet
277 564 m 257
 1131 564 l 257
 1132 598 l 257
 278 598 l 257
 277 564 l 257
EndSplineSet
Refer: 380 -1 N 1 0 0 1 -33 0 2
Refer: 380 -1 N 1 0 0 1 816 0 2
EndChar

StartChar: Hbar
Encoding: 294 294 46
Width: 1471
VWidth: 0
Flags: W
PickledData: "(dp1
S'com.typemytype.robofont.layerData'
p2
(dp3
S'b'
(dp4
S'name'
p5
S'Hbar'
p6
sS'lib'
p7
(dp8
sS'unicodes'
p9
(tsS'width'
p10
I1471
sS'contours'
p11
(tsS'components'
p12
(tsS'anchors'
p13
(tsss."
LayerCount: 2
Fore
SplineSet
143 850 m 257
 1263 850 l 257
 1263 877 l 257
 143 877 l 257
 143 850 l 257
EndSplineSet
Refer: 45 72 N 1 0 0 1 0 0 2
EndChar

StartChar: J
Encoding: 74 74 59
Width: 551
VWidth: 0
Flags: W
PickledData: "(dp1
S'com.typemytype.robofont.layerData'
p2
(dp3
S'b'
(dp4
S'name'
p5
S'J'
sS'lib'
p6
(dp7
sS'unicodes'
p8
(tsS'width'
p9
I551
sS'contours'
p10
(tsS'components'
p11
(tsS'anchors'
p12
(tsss."
AnchorPoint: "bot" 275.5 0 basechar 0
AnchorPoint: "top" 346 1152 basechar 0
LayerCount: 2
Fore
SplineSet
107 -40 m 257
 212 -40 l 258
 313 -39 362 -20 362 161 c 258
 362 1118 l 257
 483 1118 l 257
 483 1152 l 257
 199 1152 l 257
 199 1118 l 257
 318 1118 l 257
 318 173 l 258
 318 42 307 -6 229 -6 c 258
 107 -6 l 257
 107 -40 l 257
EndSplineSet
EndChar

StartChar: K
Encoding: 75 75 61
Width: 1160
VWidth: 0
Flags: W
PickledData: "(dp1
S'com.typemytype.robofont.guides'
p2
((dp3
S'y'
I593
sS'x'
I467
sS'magnetic'
p4
I5
sS'angle'
p5
I0
sS'isGlobal'
p6
I0
stp7
sS'com.typemytype.robofont.layerData'
p8
(dp9
S'b'
(dp10
S'name'
p11
S'K'
sS'lib'
p12
(dp13
sS'unicodes'
p14
(tsS'width'
p15
I1160
sS'contours'
p16
(tsS'components'
p17
(tsS'anchors'
p18
(tsss."
AnchorPoint: "top" 580 1152 basechar 0
AnchorPoint: "bot" 636 0 basechar 0
LayerCount: 2
Fore
SplineSet
769 0 m 257
 1144 0 l 257
 1144 34 l 257
 1001 34 l 257
 359 588 l 257
 933 1118 l 257
 1108 1118 l 257
 1108 1152 l 257
 723 1152 l 257
 723 1118 l 257
 880 1118 l 257
 299 588 l 257
 945 34 l 257
 769 34 l 257
 769 0 l 257
EndSplineSet
Refer: 380 -1 N 1 0 0 1 -33 0 2
EndChar

StartChar: L
Encoding: 76 76 63
Width: 1055
VWidth: 0
Flags: W
PickledData: "(dp1
S'com.typemytype.robofont.layerData'
p2
(dp3
S'b'
(dp4
S'name'
p5
S'L'
sS'lib'
p6
(dp7
sS'unicodes'
p8
(tsS'width'
p9
I1055
sS'contours'
p10
(tsS'components'
p11
(tsS'anchors'
p12
(tsss."
AnchorPoint: "bot" 652 0 basechar 0
AnchorPoint: "mid" 329 579 basechar 0
AnchorPoint: "top" 527.5 1152 basechar 0
AnchorPoint: "caron.alt" 454 804 basechar 0
LayerCount: 2
Fore
SplineSet
322 0 m 257
 1002 0 l 257
 1002 358 l 257
 966 358 l 257
 966 34 l 257
 322 34 l 257
 322 0 l 257
EndSplineSet
Refer: 380 -1 N 1 0 0 1 16 0 2
EndChar

StartChar: Lslash
Encoding: 321 321 68
Width: 1243
VWidth: 0
Flags: W
PickledData: "(dp1
S'com.typemytype.robofont.layerData'
p2
(dp3
S'b'
(dp4
S'name'
p5
S'Lslash'
p6
sS'lib'
p7
(dp8
sS'unicodes'
p9
(tsS'width'
p10
I1243
sS'contours'
p11
(tsS'components'
p12
(tsS'anchors'
p13
(tsss."
LayerCount: 2
Fore
SplineSet
132 386 m 257
 532 640 l 257
 532 678 l 257
 132 424 l 257
 132 386 l 257
EndSplineSet
Refer: 63 76 N 1 0 0 1 0 0 2
EndChar

StartChar: M
Encoding: 77 77 69
Width: 1524
VWidth: 0
Flags: W
PickledData: "(dp1
S'com.typemytype.robofont.layerData'
p2
(dp3
S'b'
(dp4
S'name'
p5
S'M'
sS'lib'
p6
(dp7
sS'unicodes'
p8
(tsS'width'
p9
I1524
sS'contours'
p10
(tsS'components'
p11
(tsS'anchors'
p12
(tsss."
AnchorPoint: "bot" 762 0 basechar 0
AnchorPoint: "top" 762 1152 basechar 0
LayerCount: 2
Fore
SplineSet
102 0 m 257
 455 0 l 257
 455 34 l 257
 299 34 l 257
 299 1058 l 257
 774 105 l 257
 778 105 l 257
 1226 1058 l 257
 1226 34 l 257
 1068 34 l 257
 1068 0 l 257
 1422 0 l 257
 1422 34 l 257
 1270 34 l 257
 1270 1118 l 257
 1422 1118 l 257
 1422 1152 l 257
 1223 1152 l 257
 775 190 l 257
 298 1152 l 257
 102 1152 l 257
 102 1118 l 257
 255 1118 l 257
 255 34 l 257
 102 34 l 257
 102 0 l 257
EndSplineSet
EndChar

StartChar: N
Encoding: 78 78 70
Width: 1397
VWidth: 0
Flags: W
PickledData: "(dp1
S'com.typemytype.robofont.layerData'
p2
(dp3
S'b'
(dp4
S'name'
p5
S'N'
sS'lib'
p6
(dp7
sS'unicodes'
p8
(tsS'width'
p9
I1397
sS'contours'
p10
(tsS'components'
p11
(tsS'anchors'
p12
(tsss."
AnchorPoint: "top" 698.5 1152 basechar 0
AnchorPoint: "bot" 713 0 basechar 0
LayerCount: 2
Fore
SplineSet
102 0 m 257
 439 0 l 257
 439 34 l 257
 290 34 l 257
 290 1073 l 257
 1156 0 l 257
 1200 0 l 257
 1200 1118 l 257
 1323 1118 l 257
 1323 1152 l 257
 1005 1152 l 257
 1005 1118 l 257
 1156 1118 l 257
 1156 63 l 257
 280 1152 l 257
 102 1152 l 257
 102 1118 l 257
 246 1118 l 257
 246 34 l 257
 102 34 l 257
 102 0 l 257
EndSplineSet
EndChar

StartChar: O
Encoding: 79 79 75
Width: 1392
VWidth: 0
Flags: W
PickledData: "(dp1
S'com.typemytype.robofont.layerData'
p2
(dp3
S'b'
(dp4
S'name'
p5
S'O'
sS'lib'
p6
(dp7
sS'unicodes'
p8
(tsS'width'
p9
I1392
sS'contours'
p10
(tsS'components'
p11
(tsS'anchors'
p12
(tsss."
AnchorPoint: "bot" 696 0 basechar 0
AnchorPoint: "top" 696 1152 basechar 0
AnchorPoint: "ogonek" 760 0 basechar 0
LayerCount: 2
Fore
SplineSet
696 14 m 256
 305 14 138 300 138 572 c 256
 138 832 309 1136 696 1136 c 256
 1078 1136 1254 832 1254 572 c 256
 1254 310 1078 14 696 14 c 256
696 -22 m 256
 1115 -22 1296 289 1296 571 c 256
 1296 851 1112 1172 696 1172 c 256
 281 1172 96 852 96 571 c 256
 96 291 277 -23 696 -22 c 256
EndSplineSet
EndChar

StartChar: OE
Encoding: 338 338 76
Width: 1913
VWidth: 0
Flags: W
PickledData: "(dp1
S'com.typemytype.robofont.layerData'
p2
(dp3
S'b'
(dp4
S'name'
p5
S'OE'
p6
sS'lib'
p7
(dp8
sS'unicodes'
p9
(tsS'width'
p10
I1913
sS'contours'
p11
(tsS'components'
p12
(tsS'anchors'
p13
(tsss."
LayerCount: 2
Fore
SplineSet
602 0 m 258
 1773 0 l 257
 1773 362 l 257
 1733 362 l 257
 1733 34 l 257
 1036 34 l 257
 1036 569 l 257
 1468 569 l 257
 1468 390 l 257
 1507 390 l 257
 1507 770 l 257
 1467 770 l 257
 1467 603 l 257
 1036 603 l 257
 1036 1118 l 257
 1705 1118 l 257
 1705 796 l 257
 1745 796 l 257
 1745 1152 l 257
 608 1152 l 258
 278 1152 128 823 128 570 c 256
 128 321 286 0 602 0 c 258
612 34 m 258
 318 34 170 319 170 570 c 256
 170 823 318 1118 606 1118 c 258
 992 1118 l 257
 992 34 l 257
 612 34 l 258
EndSplineSet
EndChar

StartChar: Omega
Encoding: 937 937 84
Width: 1468
VWidth: 0
Flags: W
LayerCount: 2
Fore
SplineSet
734 1172 m 256
 328 1172 144 940 144 616 c 256
 144 402 269 189 502 40 c 257
 147 40 l 257
 147 0 l 257
 549 0 l 257
 549 34 l 257
 317 193 186 400 186 616 c 256
 186 922 356 1136 734 1136 c 256
 1112 1136 1282 922 1282 616 c 256
 1282 400 1151 193 919 34 c 257
 919 0 l 257
 1321 0 l 257
 1321 40 l 257
 966 40 l 257
 1199 189 1324 402 1324 616 c 256
 1324 940 1140 1172 734 1172 c 256
EndSplineSet
EndChar

StartChar: Oslash
Encoding: 216 216 85
Width: 1392
VWidth: 0
Flags: W
PickledData: "(dp1
S'com.typemytype.robofont.layerData'
p2
(dp3
S'b'
(dp4
S'name'
p5
S'Oslash'
p6
sS'lib'
p7
(dp8
sS'unicodes'
p9
(tsS'width'
p10
I1392
sS'contours'
p11
(tsS'components'
p12
(tsS'anchors'
p13
(tsss."
AnchorPoint: "top" 696 1152 basechar 0
LayerCount: 2
Fore
SplineSet
246 -71 m 257
 1219 1195 l 257
 1208 1205 l 257
 232 -59 l 257
 246 -71 l 257
EndSplineSet
Refer: 75 79 N 1 0 0 1 0 0 2
EndChar

StartChar: P
Encoding: 80 80 88
Width: 1129
VWidth: 0
Flags: W
PickledData: "(dp1
S'com.typemytype.robofont.layerData'
p2
(dp3
S'b'
(dp4
S'name'
p5
S'P'
sS'lib'
p6
(dp7
sS'unicodes'
p8
(tsS'width'
p9
I1129
sS'contours'
p10
((dp11
S'points'
p12
((dp13
S'segmentType'
p14
S'line'
p15
sS'x'
I353
sS'smooth'
p16
I0
sS'y'
I1095
s(dp17
g14
S'line'
p18
sS'x'
I759
sg16
I1
sS'y'
I1095
s(dp19
S'y'
I1095
sS'x'
I936
sg16
I0
s(dp20
S'y'
I960
sS'x'
I1024
sg16
I0
s(dp21
g14
S'curve'
p22
sS'x'
I1024
sg16
I1
sS'y'
I823
s(dp23
S'y'
I683
sS'x'
I1024
sg16
I0
s(dp24
S'y'
I544
sS'x'
I934
sg16
I0
s(dp25
g14
S'curve'
p26
sS'x'
I759
sg16
I1
sS'y'
I544
s(dp27
g14
S'line'
p28
sS'x'
I353
sg16
I0
sS'y'
I544
stp29
s(dp30
g12
((dp31
g14
S'line'
p32
sS'x'
I135
sg16
I0
sS'y'
I0
s(dp33
g14
S'line'
p34
sS'x'
I512
sg16
I0
sS'y'
I0
s(dp35
g14
S'line'
p36
sS'x'
I512
sg16
I0
sS'y'
I58
s(dp37
g14
S'line'
p38
sS'x'
I353
sg16
I0
sS'y'
I58
s(dp39
g14
S'line'
p40
sS'x'
I353
sg16
I0
sS'y'
I483
s(dp41
g14
S'line'
p42
sS'x'
I759
sg16
I1
sS'y'
I483
s(dp43
S'y'
I483
sS'x'
I984
sg16
I0
s(dp44
S'y'
I656
sS'x'
I1098
sg16
I0
s(dp45
g14
S'curve'
p46
sS'x'
I1098
sg16
I1
sS'y'
I826
s(dp47
S'y'
I989
sS'x'
I1098
sg16
I0
s(dp48
S'y'
I1154
sS'x'
I984
sg16
I0
s(dp49
g14
S'curve'
p50
sS'x'
I759
sg16
I1
sS'y'
I1154
s(dp51
g14
S'line'
p52
sS'x'
I122
sg16
I0
sS'y'
I1154
s(dp53
g14
S'line'
p54
sS'x'
I122
sg16
I0
sS'y'
I1095
s(dp55
g14
S'line'
p56
sS'x'
I278
sg16
I0
sS'y'
I1095
s(dp57
g14
S'line'
p58
sS'x'
I278
sg16
I0
sS'y'
I58
s(dp59
g14
S'line'
p60
sS'x'
I135
sg16
I0
sS'y'
I58
stp61
stp62
sS'components'
p63
(tsS'anchors'
p64
(tsss."
AnchorPoint: "bot" 564.5 0 basechar 0
AnchorPoint: "top" 564.5 1152 basechar 0
LayerCount: 2
Fore
SplineSet
448 500 m 257
 766 500 l 258
 960 500 1075 631 1075 852 c 256
 1075 1041 956 1152 754 1152 c 258
 326 1152 l 257
 326 1118 l 257
 753 1118 l 258
 927 1118 1030 1019 1031 851 c 256
 1032 652 934 534 767 534 c 258
 449 534 l 257
 448 500 l 257
EndSplineSet
Refer: 380 -1 N 1 0 0 1 16 0 2
EndChar

StartChar: Q
Encoding: 81 81 89
Width: 1392
VWidth: 0
Flags: W
PickledData: "(dp1
S'com.typemytype.robofont.layerData'
p2
(dp3
S'b'
(dp4
S'name'
p5
S'Q'
sS'lib'
p6
(dp7
sS'unicodes'
p8
(tsS'width'
p9
I1392
sS'contours'
p10
(tsS'components'
p11
(tsS'anchors'
p12
(tsss."
LayerCount: 2
Fore
SplineSet
1020 -297 m 256
 1058 -297 1100 -292 1154 -274 c 257
 1143 -246 l 257
 1095 -262 1052 -266 1024 -266 c 256
 912 -266 803 -77 706 -4 c 257
 657 -6 l 257
 791 -95 880 -297 1020 -297 c 256
EndSplineSet
Refer: 75 79 N 1 0 0 1 0 0 2
EndChar

StartChar: R
Encoding: 82 82 90
Width: 1180
VWidth: 0
Flags: W
PickledData: "(dp1
S'com.typemytype.robofont.layerData'
p2
(dp3
S'b'
(dp4
S'name'
p5
S'R'
sS'lib'
p6
(dp7
sS'unicodes'
p8
(tsS'width'
p9
I1180
sS'contours'
p10
((dp11
S'points'
p12
((dp13
S'segmentType'
p14
S'line'
p15
sS'x'
I135
sS'smooth'
p16
I0
sS'y'
I0
s(dp17
g14
S'line'
p18
sS'x'
I512
sg16
I0
sS'y'
I0
s(dp19
g14
S'line'
p20
sS'x'
I512
sg16
I0
sS'y'
I58
s(dp21
g14
S'line'
p22
sS'x'
I353
sg16
I0
sS'y'
I58
s(dp23
g14
S'line'
p24
sS'x'
I353
sg16
I0
sS'y'
I539
s(dp25
g14
S'line'
p26
sS'x'
I641
sg16
I0
sS'y'
I539
s(dp27
g14
S'line'
p28
sS'x'
I961
sg16
I0
sS'y'
I0
s(dp29
g14
S'line'
p30
sS'x'
I1178
sg16
I0
sS'y'
I0
s(dp31
g14
S'line'
p32
sS'x'
I1178
sg16
I0
sS'y'
I58
s(dp33
g14
S'line'
p34
sS'x'
I1015
sg16
I0
sS'y'
I58
s(dp35
g14
S'line'
p36
sS'x'
I721
sg16
I0
sS'y'
I539
s(dp37
S'y'
I539
sS'x'
I945
sg16
I0
s(dp38
S'y'
I696
sS'x'
I1059
sg16
I0
s(dp39
g14
S'curve'
p40
sS'x'
I1059
sg16
I1
sS'y'
I848
s(dp41
S'y'
I1000
sS'x'
I1059
sg16
I0
s(dp42
S'y'
I1154
sS'x'
I945
sg16
I0
s(dp43
g14
S'curve'
p44
sS'x'
I721
sg16
I1
sS'y'
I1154
s(dp45
g14
S'line'
p46
sS'x'
I122
sg16
I0
sS'y'
I1154
s(dp47
g14
S'line'
p48
sS'x'
I122
sg16
I0
sS'y'
I1095
s(dp49
g14
S'line'
p50
sS'x'
I278
sg16
I0
sS'y'
I1095
s(dp51
g14
S'line'
p52
sS'x'
I278
sg16
I0
sS'y'
I58
s(dp53
g14
S'line'
p54
sS'x'
I135
sg16
I0
sS'y'
I58
stp55
s(dp56
g12
((dp57
g14
S'line'
p58
sS'x'
I353
sg16
I0
sS'y'
I1095
s(dp59
g14
S'line'
p60
sS'x'
I721
sg16
I1
sS'y'
I1095
s(dp61
S'y'
I1095
sS'x'
I898
sg16
I0
s(dp62
S'y'
I971
sS'x'
I985
sg16
I0
s(dp63
g14
S'curve'
p64
sS'x'
I985
sg16
I1
sS'y'
I845
s(dp65
S'y'
I723
sS'x'
I985
sg16
I0
s(dp66
S'y'
I600
sS'x'
I896
sg16
I0
s(dp67
g14
S'curve'
p68
sS'x'
I721
sg16
I1
sS'y'
I600
s(dp69
g14
S'line'
p70
sS'x'
I353
sg16
I0
sS'y'
I600
stp71
stp72
sS'components'
p73
(tsS'anchors'
p74
(tsss."
AnchorPoint: "top" 590 1152 basechar 0
AnchorPoint: "bot" 670 0 basechar 0
LayerCount: 2
Fore
SplineSet
951 0 m 257
 1149 0 l 257
 1149 34 l 257
 980 34 l 257
 662 539 l 257
 947 539 1029 698 1029 845 c 256
 1029 988 946 1152 710 1152 c 258
 278 1152 l 257
 278 1118 l 257
 715 1118 l 258
 922 1118 987 973 987 845 c 256
 987 727 929 573 653 573 c 258
 370 573 l 257
 370 539 l 257
 612 539 l 257
 951 0 l 257
EndSplineSet
Refer: 380 -1 N 1 0 0 1 -33 0 2
EndChar

StartChar: S
Encoding: 83 83 94
Width: 1093
VWidth: 0
Flags: W
PickledData: "(dp1
S'com.typemytype.robofont.layerData'
p2
(dp3
S'b'
(dp4
S'name'
p5
S'S'
sS'lib'
p6
(dp7
sS'unicodes'
p8
(tsS'width'
p9
I1093
sS'contours'
p10
((dp11
S'points'
p12
((dp13
S'segmentType'
p14
S'curve'
p15
sS'x'
I636
sS'smooth'
p16
I1
sS'y'
S'-23'
p17
s(dp18
S'y'
S'-23'
p19
sS'x'
I930
sg16
I0
s(dp20
S'y'
I171
sS'x'
I1026
sg16
I0
s(dp21
g14
S'curve'
p22
sS'x'
I1026
sg16
I1
sS'y'
I295
s(dp23
S'y'
I543
sS'x'
I1026
sg16
I0
s(dp24
S'y'
I599
sS'x'
I829
sg16
I0
s(dp25
g14
S'curve'
p26
sS'x'
I606
sg16
I1
sS'y'
I622
s(dp27
S'y'
I643
sS'x'
I405
sg16
I0
s(dp28
S'y'
I667
sS'x'
I269
sg16
I0
s(dp29
g14
S'curve'
p30
sS'x'
I269
sg16
I1
sS'y'
I851
s(dp31
S'y'
I998
sS'x'
I269
sg16
I0
s(dp32
S'y'
I1104
sS'x'
I360
sg16
I0
s(dp33
g14
S'curve'
p34
sS'x'
I573
sg16
I1
sS'y'
I1104
s(dp35
S'y'
I1104
sS'x'
I719
sg16
I0
s(dp36
S'y'
I1024
sS'x'
I885
sg16
I0
s(dp37
g14
S'curve'
p38
sS'x'
I885
sg16
I1
sS'y'
I941
s(dp39
g14
S'line'
p40
sS'x'
I885
sg16
I0
sS'y'
I839
s(dp41
g14
S'line'
p42
sS'x'
I959
sg16
I0
sS'y'
I839
s(dp43
g14
S'line'
p44
sS'x'
I959
sg16
I0
sS'y'
I1152
s(dp45
g14
S'line'
p46
sS'x'
I885
sg16
I0
sS'y'
I1152
s(dp47
g14
S'line'
p48
sS'x'
I885
sg16
I0
sS'y'
I1049
s(dp49
S'y'
I1131
sS'x'
I828
sg16
I0
s(dp50
S'y'
I1172
sS'x'
I673
sg16
I0
s(dp51
g14
S'curve'
p52
sS'x'
I561
sg16
I1
sS'y'
I1172
s(dp53
S'y'
I1172
sS'x'
I360
sg16
I0
s(dp54
S'y'
I1066
sS'x'
I184
sg16
I0
s(dp55
g14
S'curve'
p56
sS'x'
I184
sg16
I1
sS'y'
I863
s(dp57
S'y'
I635
sS'x'
I184
sg16
I0
s(dp58
S'y'
I579
sS'x'
I332
sg16
I0
s(dp59
g14
S'curve'
p60
sS'x'
I584
sg16
I1
sS'y'
I553
s(dp61
S'y'
I531
sS'x'
I805
sg16
I0
s(dp62
S'y'
I488
sS'x'
I942
sg16
I0
s(dp63
g14
S'curve'
p64
sS'x'
I942
sg16
I1
sS'y'
I300
s(dp65
S'y'
I169
sS'x'
I942
sg16
I0
s(dp66
S'y'
I47
sS'x'
I831
sg16
I0
s(dp67
g14
S'curve'
p68
sS'x'
I644
sg16
I1
sS'y'
I47
s(dp69
S'y'
I47
sS'x'
I448
sg16
I0
s(dp70
S'y'
I118
sS'x'
I261
sg16
I0
s(dp71
g14
S'curve'
p72
sS'x'
I261
sg16
I1
sS'y'
I247
s(dp73
g14
S'line'
p74
sS'x'
I261
sg16
I0
sS'y'
I387
s(dp75
g14
S'line'
p76
sS'x'
I187
sg16
I0
sS'y'
I387
s(dp77
g14
S'line'
p78
sS'x'
I187
sg16
I0
sS'y'
S'-1'
p79
s(dp80
g14
S'line'
p81
sS'x'
I261
sg16
I0
sS'y'
S'-1'
p82
s(dp83
g14
S'line'
p84
sS'x'
I261
sg16
I0
sS'y'
I122
s(dp85
S'y'
I22
sS'x'
I335
sg16
I0
s(dp86
S'y'
S'-23'
p87
sS'x'
I496
sg16
I0
stp88
stp89
sS'components'
p90
(tsS'anchors'
p91
(tsss."
AnchorPoint: "top" 546.5 1152 basechar 0
AnchorPoint: "bot" 604 0 basechar 0
LayerCount: 2
Fore
SplineSet
617 -22 m 256
 961 -22 1006 197 1006 292 c 256
 1006 558 805 578 590 598 c 256
 386 617 198 638 198 856 c 256
 198 1011 301 1136 553 1136 c 256
 708 1136 894 1044 894 958 c 258
 893 847 l 257
 937 847 l 257
 937 1152 l 257
 893 1152 l 257
 893 1037 l 257
 844 1127 666 1172 549 1172 c 256
 333 1172 156 1074 156 859 c 256
 156 599 378 578 585 560 c 256
 812 540 964 512 964 300 c 256
 964 158 882 14 620 14 c 256
 366 14 201 102 201 252 c 258
 201 387 l 257
 157 387 l 257
 157 -1 l 257
 201 -1 l 257
 201 130 l 257
 277 21 410 -22 617 -22 c 256
EndSplineSet
EndChar

StartChar: Sigma
Encoding: 931 931 100
Width: 1249
VWidth: 0
Flags: W
LayerCount: 2
Fore
SplineSet
119 0 m 257
 1071 0 l 257
 1071 362 l 257
 1022 362 l 257
 1022 35 l 257
 314 35 l 257
 700 576 l 257
 700 627 l 257
 319 1115 l 257
 996 1115 l 257
 996 796 l 257
 1043 796 l 257
 1043 1152 l 257
 119 1152 l 257
 119 1115 l 257
 284 1115 l 257
 673 601 l 257
 284 35 l 257
 119 35 l 257
 119 0 l 257
EndSplineSet
EndChar

StartChar: T
Encoding: 84 84 101
Width: 1147
VWidth: 0
Flags: W
PickledData: "(dp1
S'com.typemytype.robofont.layerData'
p2
(dp3
S'b'
(dp4
S'name'
p5
S'T'
sS'lib'
p6
(dp7
sS'unicodes'
p8
(tsS'width'
p9
I1147
sS'contours'
p10
(tsS'components'
p11
(tsS'anchors'
p12
(tsss."
AnchorPoint: "mid" 573.5 804 basechar 0
AnchorPoint: "top" 573.5 1152 basechar 0
AnchorPoint: "bot" 563 0 basechar 0
LayerCount: 2
Fore
SplineSet
52 777 m 257
 92 777 l 257
 92 1118 l 257
 1053 1118 l 257
 1053 777 l 257
 1097 777 l 257
 1097 1152 l 257
 52 1152 l 257
 52 777 l 257
EndSplineSet
Refer: 380 -1 N 1 0 0 1 253 0 2
EndChar

StartChar: Thorn
Encoding: 222 222 105
Width: 1123
VWidth: 0
Flags: W
PickledData: "(dp1
S'com.typemytype.robofont.layerData'
p2
(dp3
S'b'
(dp4
S'name'
p5
S'Thorn'
p6
sS'lib'
p7
(dp8
sS'unicodes'
p9
(tsS'width'
p10
I1123
sS'contours'
p11
(tsS'components'
p12
(tsS'anchors'
p13
(tsss."
LayerCount: 2
Fore
SplineSet
102 0 m 257
 480 0 l 257
 480 34 l 257
 300 34 l 257
 300 325 l 257
 752 325 l 258
 918 325 1036 451 1036 629 c 256
 1036 795 906 912 722 912 c 258
 301 912 l 257
 301 1117 l 257
 459 1117 l 257
 459 1152 l 257
 105 1152 l 257
 105 1118 l 257
 256 1118 l 257
 256 34 l 257
 102 34 l 257
 102 0 l 257
301 359 m 257
 301 878 l 257
 720 878 l 258
 879 878 992 775 992 629 c 256
 995 471 891 359 740 359 c 258
 301 359 l 257
EndSplineSet
EndChar

StartChar: U
Encoding: 85 85 106
Width: 1382
VWidth: 0
Flags: W
PickledData: "(dp1
S'com.typemytype.robofont.layerData'
p2
(dp3
S'b'
(dp4
S'name'
p5
S'U'
sS'lib'
p6
(dp7
sS'unicodes'
p8
(tsS'width'
p9
I1382
sS'contours'
p10
(tsS'components'
p11
(tsS'anchors'
p12
(tsss."
AnchorPoint: "bot" 691 0 basechar 0
AnchorPoint: "top" 691 1152 basechar 0
AnchorPoint: "ogonek" 714 0 basechar 0
LayerCount: 2
Fore
SplineSet
671 -22 m 256
 987 -22 1175 136 1175 368 c 258
 1175 1118 l 257
 1334 1118 l 257
 1334 1152 l 257
 979 1152 l 257
 979 1118 l 257
 1130 1118 l 257
 1130 368 l 258
 1130 157 961 14 671 14 c 256
 400 14 246 159 246 372 c 258
 246 1118 l 257
 385 1118 l 257
 385 1152 l 257
 48 1152 l 257
 48 1118 l 257
 201 1118 l 257
 201 368 l 258
 201 136 378 -22 671 -22 c 256
EndSplineSet
EndChar

StartChar: V
Encoding: 86 86 117
Width: 1209
VWidth: 0
Flags: W
PickledData: "(dp1
S'com.typemytype.robofont.layerData'
p2
(dp3
S'b'
(dp4
S'name'
p5
S'V'
sS'lib'
p6
(dp7
sS'unicodes'
p8
(tsS'width'
p9
I1209
sS'contours'
p10
(tsS'components'
p11
(tsS'anchors'
p12
(tsss."
LayerCount: 2
Fore
SplineSet
575 0 m 257
 625 0 l 257
 1056 1118 l 257
 1177 1118 l 257
 1177 1152 l 257
 850 1152 l 257
 850 1118 l 257
 1009 1118 l 257
 601 55 l 257
 215 1118 l 257
 378 1118 l 257
 378 1152 l 257
 32 1152 l 257
 32 1118 l 257
 168 1118 l 257
 575 0 l 257
EndSplineSet
EndChar

StartChar: W
Encoding: 87 87 118
Width: 1872
VWidth: 0
Flags: W
PickledData: "(dp1
S'com.typemytype.robofont.layerData'
p2
(dp3
S'b'
(dp4
S'name'
p5
S'W'
sS'lib'
p6
(dp7
sS'unicodes'
p8
(tsS'width'
p9
I1872
sS'contours'
p10
(tsS'components'
p11
(tsS'anchors'
p12
(tsss."
AnchorPoint: "bot" 936 0 basechar 0
AnchorPoint: "top" 936 1152 basechar 0
LayerCount: 2
Fore
SplineSet
559 0 m 257
 612 0 l 257
 936 1018 l 257
 1276 0 l 257
 1327 0 l 257
 1692 1118 l 257
 1830 1118 l 257
 1830 1152 l 257
 1493 1152 l 257
 1493 1118 l 257
 1650 1118 l 257
 1301 48 l 257
 951 1087 l 257
 916 1087 l 257
 585 48 l 257
 222 1118 l 257
 385 1118 l 257
 385 1152 l 257
 42 1152 l 257
 42 1118 l 257
 179 1118 l 257
 559 0 l 257
EndSplineSet
EndChar

StartChar: X
Encoding: 88 88 123
Width: 1142
VWidth: 0
Flags: W
PickledData: "(dp1
S'com.typemytype.robofont.layerData'
p2
(dp3
S'b'
(dp4
S'name'
p5
S'X'
sS'lib'
p6
(dp7
sS'unicodes'
p8
(tsS'width'
p9
I1142
sS'contours'
p10
(tsS'components'
p11
(tsS'anchors'
p12
(tsss."
LayerCount: 2
Fore
SplineSet
40 0 m 257
 380 0 l 257
 380 34 l 257
 215 34 l 257
 568 561 l 257
 920 34 l 257
 765 34 l 257
 765 0 l 257
 1102 0 l 257
 1102 34 l 257
 955 34 l 257
 590 585 l 257
 937 1118 l 257
 1083 1118 l 257
 1083 1152 l 257
 736 1152 l 257
 736 1118 l 257
 898 1118 l 257
 573 615 l 257
 237 1118 l 257
 391 1118 l 257
 391 1152 l 257
 52 1152 l 257
 52 1118 l 257
 200 1118 l 257
 551 590 l 257
 176 34 l 257
 40 34 l 257
 40 0 l 257
EndSplineSet
EndChar

StartChar: Y
Encoding: 89 89 124
Width: 1237
VWidth: 0
Flags: W
PickledData: "(dp1
S'com.typemytype.robofont.layerData'
p2
(dp3
S'b'
(dp4
S'name'
p5
S'Y'
sS'lib'
p6
(dp7
sS'unicodes'
p8
(tsS'width'
p9
I1237
sS'contours'
p10
(tsS'components'
p11
(tsS'anchors'
p12
(tsss."
AnchorPoint: "bot" 618.5 0 basechar 0
AnchorPoint: "top" 618.5 1152 basechar 0
LayerCount: 2
Fore
SplineSet
450 0 m 257
 785 0 l 257
 785 34 l 257
 642 34 l 257
 642 359 l 257
 1075 1118 l 257
 1217 1118 l 257
 1217 1152 l 257
 877 1152 l 257
 877 1118 l 257
 1029 1118 l 257
 621 391 l 257
 211 1118 l 257
 353 1118 l 257
 353 1152 l 257
 20 1152 l 257
 20 1118 l 257
 167 1118 l 257
 598 359 l 257
 598 34 l 257
 450 34 l 257
 450 0 l 257
EndSplineSet
EndChar

StartChar: Z
Encoding: 90 90 129
Width: 1140
VWidth: 0
Flags: W
PickledData: "(dp1
S'com.typemytype.robofont.layerData'
p2
(dp3
S'b'
(dp4
S'name'
p5
S'Z'
sS'lib'
p6
(dp7
sS'unicodes'
p8
(tsS'width'
p9
I1140
sS'contours'
p10
(tsS'components'
p11
(tsS'anchors'
p12
(tsss."
AnchorPoint: "bot" 570 0 basechar 0
AnchorPoint: "top" 570 1152 basechar 0
LayerCount: 2
Fore
SplineSet
100 0 m 257
 1048 0 l 257
 1048 359 l 257
 1008 359 l 257
 1008 34 l 257
 148 34 l 257
 1019 1117 l 257
 1019 1152 l 257
 128 1152 l 257
 128 808 l 257
 168 808 l 257
 168 1118 l 257
 971 1118 l 257
 100 36 l 257
 100 0 l 257
EndSplineSet
EndChar

StartChar: a
Encoding: 97 97 133
Width: 929
VWidth: 0
Flags: W
PickledData: "(dp1
S'com.typemytype.robofont.layerData'
p2
(dp3
S'b'
(dp4
S'name'
p5
S'a'
sS'lib'
p6
(dp7
sS'unicodes'
p8
(tsS'width'
p9
I929
sS'contours'
p10
((dp11
S'points'
p12
((dp13
S'segmentType'
p14
S'curve'
p15
sS'x'
I391
sS'smooth'
p16
I1
sS'y'
S'-14'
p17
s(dp18
S'y'
S'-14'
p19
sS'x'
I507
sg16
I0
s(dp20
S'y'
I21
sS'x'
I593
sg16
I0
s(dp21
g14
S'curve'
p22
sS'x'
I687
sg16
I0
sS'y'
I91
s(dp23
g14
S'line'
p24
sS'x'
I703
sg16
I0
sS'y'
S'-1'
p25
s(dp26
g14
S'line'
p27
sS'x'
I890
sg16
I0
sS'y'
S'-1'
p28
s(dp29
g14
S'line'
p30
sS'x'
I890
sg16
I0
sS'y'
I57
s(dp31
g14
S'line'
p32
sS'x'
I764
sg16
I0
sS'y'
I57
s(dp33
g14
S'line'
p34
sS'x'
I764
sg16
I1
sS'y'
I569
s(dp35
S'y'
I672
sS'x'
I764
sg16
I0
s(dp36
S'y'
I819
sS'x'
I710
sg16
I0
s(dp37
g14
S'curve'
p38
sS'x'
I461
sg16
I1
sS'y'
I819
s(dp39
S'y'
I819
sS'x'
I332
sg16
I0
s(dp40
S'y'
I792
sS'x'
I226
sg16
I0
s(dp41
g14
S'curve'
p42
sS'x'
I155
sg16
I0
sS'y'
I724
s(dp43
g14
S'line'
p44
sS'x'
I190
sg16
I0
sS'y'
I668
s(dp45
S'y'
I726
sS'x'
I247
sg16
I0
s(dp46
S'y'
I755
sS'x'
I339
sg16
I0
s(dp47
g14
S'curve'
p48
sS'x'
I459
sg16
I1
sS'y'
I755
s(dp49
S'y'
I755
sS'x'
I600
sg16
I0
s(dp50
S'y'
I706
sS'x'
I687
sg16
I0
s(dp51
g14
S'curve'
p52
sS'x'
I687
sg16
I1
sS'y'
I551
s(dp53
g14
S'line'
p54
sS'x'
I687
sg16
I0
sS'y'
I428
s(dp55
S'y'
I443
sS'x'
I609
sg16
I0
s(dp56
S'y'
I455
sS'x'
I539
sg16
I0
s(dp57
g14
S'curve'
p58
sS'x'
I465
sg16
I1
sS'y'
I455
s(dp59
S'y'
I455
sS'x'
I295
sg16
I0
s(dp60
S'y'
I433
sS'x'
I117
sg16
I0
s(dp61
g14
S'curve'
p62
sS'x'
I117
sg16
I1
sS'y'
I222
s(dp63
S'y'
I96
sS'x'
I117
sg16
I0
s(dp64
S'y'
S'-14'
p65
sS'x'
I206
sg16
I0
stp66
s(dp67
g12
((dp68
g14
S'curve'
p69
sS'x'
I401
sg16
I1
sS'y'
I50
s(dp70
S'y'
I50
sS'x'
I246
sg16
I0
s(dp71
S'y'
I142
sS'x'
I195
sg16
I0
s(dp72
g14
S'curve'
p73
sS'x'
I195
sg16
I1
sS'y'
I220
s(dp74
S'y'
I390
sS'x'
I195
sg16
I0
s(dp75
S'y'
I393
sS'x'
I346
sg16
I0
s(dp76
g14
S'curve'
p77
sS'x'
I462
sg16
I1
sS'y'
I393
s(dp78
S'y'
I393
sS'x'
I559
sg16
I0
s(dp79
S'y'
I368
sS'x'
I687
sg16
I0
s(dp80
g14
S'curve'
p81
sS'x'
I687
sg16
I0
sS'y'
I368
s(dp82
g14
S'line'
p83
sS'x'
I687
sg16
I0
sS'y'
I151
s(dp84
S'y'
I76
sS'x'
I606
sg16
I0
s(dp85
S'y'
I50
sS'x'
I511
sg16
I0
stp86
stp87
sS'components'
p88
(tsS'anchors'
p89
(tsss."
AnchorPoint: "bot" 464.5 0 basechar 0
AnchorPoint: "top" 458 804 basechar 0
AnchorPoint: "ogonek" 787 0 basechar 0
LayerCount: 2
Fore
SplineSet
385 -22 m 256
 476 -22 579 11 704 84 c 257
 704 84 718 -8 718 0 c 257
 869 0 l 257
 869 34 l 257
 746 34 l 257
 746 558 l 258
 746 669 697 826 451 826 c 256
 381 826 276 805 165 763 c 257
 178 726 l 257
 262 759 360 792 460 792 c 256
 601 792 702 714 702 540 c 258
 702 414 l 257
 600 432 489 450 389 450 c 256
 245 450 116 395 116 217 c 256
 116 73 223 -22 385 -22 c 256
383 12 m 256
 238 12 158 108 158 215 c 256
 158 364 266 416 390 416 c 256
 485 416 590 395 702 379 c 257
 702 118 l 257
 562 41 481 12 383 12 c 256
EndSplineSet
EndChar

StartChar: acute
Encoding: 180 180 137
Width: 45
VWidth: 0
Flags: W
PickledData: "(dp1
S'com.typemytype.robofont.layerData'
p2
(dp3
S'b'
(dp4
S'name'
p5
S'acute'
p6
sS'lib'
p7
(dp8
sS'unicodes'
p9
(tsS'width'
p10
I45
sS'contours'
p11
(tsS'components'
p12
(tsS'anchors'
p13
(tsss."
AnchorPoint: "top" 22.5 804 mark 0
LayerCount: 2
Fore
SplineSet
8 899 m 257
 24 899 l 257
 145 1174 l 257
 95 1174 l 257
 8 899 l 257
EndSplineSet
EndChar

StartChar: ae
Encoding: 230 230 139
Width: 1536
VWidth: 0
Flags: W
PickledData: "(dp1
S'com.typemytype.robofont.layerData'
p2
(dp3
S'b'
(dp4
S'name'
p5
S'ae'
p6
sS'lib'
p7
(dp8
sS'unicodes'
p9
(tsS'width'
p10
I1536
sS'contours'
p11
(tsS'components'
p12
(tsS'anchors'
p13
(tsss."
AnchorPoint: "top" 803 804 basechar 0
AnchorPoint: "ogonek" 1182 0 basechar 0
LayerCount: 2
Fore
SplineSet
373 -22 m 256
 493 -22 638 -8 796 138 c 257
 876 33 981 -22 1112 -22 c 256
 1231 -22 1362 25 1467 129 c 257
 1454 166 l 257
 1385 81 1241 12 1112 12 c 256
 940 12 863 108 816 164 c 257
 816 407 l 257
 1483 407 l 257
 1483 731 1301 826 1125 826 c 256
 982 826 833 745 796 589 c 257
 774 723 664 826 449 826 c 256
 379 826 264 805 153 763 c 257
 166 726 l 257
 250 759 348 792 448 792 c 256
 609 792 772 730 772 497 c 258
 772 441 l 257
 377 441 l 258
 233 441 104 395 104 217 c 256
 104 73 211 -22 373 -22 c 256
371 12 m 256
 226 12 146 108 146 215 c 256
 146 364 254 407 378 407 c 258
 773 407 l 257
 774 162 l 257
 627 32 491 12 371 12 c 256
816 441 m 257
 816 654 938 792 1125 792 c 256
 1309 792 1443 677 1443 441 c 257
 816 441 l 257
EndSplineSet
EndChar

StartChar: ampersand
Encoding: 38 38 144
Width: 1088
VWidth: 0
Flags: W
PickledData: "(dp1
S'com.typemytype.robofont.layerData'
p2
(dp3
S'b'
(dp4
S'name'
p5
S'ampersand'
p6
sS'lib'
p7
(dp8
sS'unicodes'
p9
(tsS'width'
p10
I1088
sS'contours'
p11
(tsS'components'
p12
(tsS'anchors'
p13
(tsss."
LayerCount: 2
Fore
SplineSet
476 -25 m 256
 585 -25 700 -19 793 100 c 257
 891 -1 l 257
 1042 -1 l 257
 1042 37 l 257
 906 37 l 257
 824 132 l 257
 825 139 924 279 910 400 c 257
 1042 400 l 257
 1042 433 l 257
 877 433 l 257
 885 233 804 167 805 165 c 258
 444 635 l 257
 679 728 730 837 730 966 c 256
 730 1079 640 1172 470 1172 c 256
 302 1172 220 1075 220 969 c 256
 220 813 423 609 391 649 c 257
 168 579 120 467 120 291 c 256
 120 123 276 -25 476 -25 c 256
476 14 m 256
 274 14 154 163 154 303 c 256
 154 433 195 555 410 615 c 257
 772 132 l 257
 679 18 588 14 476 14 c 256
427 663 m 257
 448 634 259 843 259 958 c 256
 259 1059 353 1129 475 1129 c 256
 590 1129 685 1074 685 965 c 256
 685 838 664 750 427 663 c 257
EndSplineSet
EndChar

StartChar: apostrophemod
Encoding: 700 700 146
Width: 600
VWidth: 0
Flags: W
AnchorPoint: "top" 93 804 mark 0
LayerCount: 2
Fore
SplineSet
6 999 m 257
 97 998 108 1047 108 1161 c 258
 108 1239 l 257
 45 1239 l 257
 45 1144 l 257
 80 1144 l 257
 80 1059 80 1018 6 1016 c 257
 6 999 l 257
EndSplineSet
EndChar

StartChar: approxequal
Encoding: 8776 8776 147
Width: 811
VWidth: 0
Flags: W
LayerCount: 2
Fore
SplineSet
580 449 m 256
 628 449 659 458 668 540 c 257
 641 540 l 257
 632 498 610 487 576 487 c 256
 468 487 349 544 230 544 c 256
 167 544 142 525 132 455 c 257
 160 455 l 257
 168 492 183 506 229 506 c 256
 330 506 452 449 580 449 c 256
580 731 m 256
 628 731 659 740 668 822 c 257
 641 822 l 257
 632 780 610 769 576 769 c 256
 468 769 349 826 230 826 c 256
 167 826 142 807 132 737 c 257
 160 737 l 257
 168 774 183 788 229 788 c 256
 330 788 452 731 580 731 c 256
EndSplineSet
EndChar

StartChar: asciicircum
Encoding: 94 94 149
Width: 911
VWidth: 0
Flags: W
PickledData: "(dp1
S'com.typemytype.robofont.layerData'
p2
(dp3
S'b'
(dp4
S'name'
p5
S'asciicircum'
p6
sS'lib'
p7
(dp8
sS'unicodes'
p9
(tsS'width'
p10
I911
sS'contours'
p11
(tsS'components'
p12
(tsS'anchors'
p13
(tsss."
LayerCount: 2
Fore
SplineSet
70 708 m 257
 113 708 l 257
 463 1129 l 257
 795 708 l 257
 836 708 l 257
 492 1174 l 257
 434 1174 l 257
 70 708 l 257
EndSplineSet
EndChar

StartChar: asciitilde
Encoding: 126 126 150
Width: 708
VWidth: 0
Flags: W
PickledData: "(dp1
S'com.typemytype.robofont.layerData'
p2
(dp3
S'b'
(dp4
S'name'
p5
S'asciitilde'
p6
sS'lib'
p7
(dp8
sS'unicodes'
p9
(tsS'width'
p10
I708
sS'contours'
p11
(tsS'components'
p12
(tsS'anchors'
p13
(tsss."
LayerCount: 2
Fore
SplineSet
127 636 m 257
 153 636 l 257
 153 692 174 710 209 710 c 256
 282 710 400 643 487 643 c 256
 540 643 569 676 569 747 c 257
 545 747 l 257
 544 688 521 669 484 669 c 256
 403 669 289 736 208 736 c 256
 158 736 127 709 127 636 c 257
EndSplineSet
EndChar

StartChar: asterisk
Encoding: 42 42 151
Width: 941
VWidth: 0
Flags: W
PickledData: "(dp1
S'com.typemytype.robofont.layerData'
p2
(dp3
S'b'
(dp4
S'name'
p5
S'asterisk'
p6
sS'lib'
p7
(dp8
sS'unicodes'
p9
(tsS'width'
p10
I941
sS'contours'
p11
(tsS'components'
p12
(tsS'anchors'
p13
(tsss."
LayerCount: 2
Fore
SplineSet
269 467 m 257
 471 758 l 257
 671 467 l 257
 709 495 l 257
 489 777 l 257
 827 896 l 257
 809 940 l 257
 485 802 l 257
 499 1152 l 257
 442 1152 l 257
 457 802 l 257
 131 940 l 257
 113 896 l 257
 451 777 l 257
 228 499 l 257
 269 467 l 257
EndSplineSet
EndChar

StartChar: at
Encoding: 64 64 152
Width: 1379
VWidth: 0
Flags: W
PickledData: "(dp1
S'com.typemytype.robofont.layerData'
p2
(dp3
S'b'
(dp4
S'name'
p5
S'at'
p6
sS'lib'
p7
(dp8
sS'unicodes'
p9
(tsS'width'
p10
I1379
sS'contours'
p11
(tsS'components'
p12
(tsS'anchors'
p13
(tsss."
LayerCount: 2
Fore
SplineSet
720 -22 m 256
 870 -22 1045 20 1141 91 c 257
 1123 118 l 257
 1032 53 863 14 720 14 c 256
 386 14 149 236 149 549 c 256
 149 894 393 1138 739 1138 c 256
 1030 1138 1240 950 1240 683 c 256
 1240 432 1093 289 972 289 c 256
 914 289 873 336 896 426 c 258
 1013 877 l 257
 979 877 l 257
 935 696 l 257
 937 822 855 917 723 917 c 256
 539 917 409 756 409 529 c 256
 409 370 506 258 644 258 c 256
 711 258 810 291 871 426 c 257
 837 290 918 255 972 255 c 256
 1119 255 1280 427 1280 683 c 256
 1280 971 1056 1174 739 1174 c 256
 368 1174 105 915 105 549 c 256
 105 215 360 -22 720 -22 c 256
644 292 m 256
 532 292 453 390 453 529 c 256
 453 736 565 883 723 883 c 256
 859 883 911 785 911 664 c 256
 911 472 795 292 644 292 c 256
EndSplineSet
EndChar

StartChar: backslash
Encoding: 92 92 155
Width: 395
VWidth: 0
Flags: W
PickledData: "(dp1
S'com.typemytype.robofont.layerData'
p2
(dp3
S'b'
(dp4
S'name'
p5
S'backslash'
p6
sS'lib'
p7
(dp8
sS'unicodes'
p9
(tsS'width'
p10
I395
sS'contours'
p11
(tsS'components'
p12
(tsS'anchors'
p13
(tsss."
LayerCount: 2
Fore
SplineSet
357 -75 m 257
 395 -75 l 257
 38 1239 l 257
 0 1239 l 257
 357 -75 l 257
EndSplineSet
EndChar

StartChar: bar
Encoding: 124 124 156
Width: 348
VWidth: 0
Flags: W
PickledData: "(dp1
S'com.typemytype.robofont.layerData'
p2
(dp3
S'b'
(dp4
S'name'
p5
S'bar'
p6
sS'lib'
p7
(dp8
sS'unicodes'
p9
(tsS'width'
p10
I348
sS'contours'
p11
(tsS'components'
p12
(tsS'anchors'
p13
(tsss."
LayerCount: 2
Fore
SplineSet
162 -67 m 257
 203 -67 l 257
 203 1279 l 257
 162 1279 l 257
 162 -67 l 257
EndSplineSet
EndChar

StartChar: braceleft
Encoding: 123 123 157
Width: 404
VWidth: 0
Flags: W
PickledData: "(dp1
S'com.typemytype.robofont.layerData'
p2
(dp3
S'b'
(dp4
S'name'
p5
S'braceleft'
p6
sS'lib'
p7
(dp8
sS'unicodes'
p9
(tsS'width'
p10
I404
sS'contours'
p11
(tsS'components'
p12
(tsS'anchors'
p13
(tsss."
LayerCount: 2
Fore
SplineSet
340 -79 m 258
 392 -79 l 257
 392 -48 l 257
 259 -48 232 -25 232 152 c 256
 232 463 225 556 118 572 c 257
 226 586 232 643 232 975 c 256
 232 1164 253 1186 392 1186 c 257
 392 1218 l 257
 340 1218 l 258
 194 1218 189 1116 189 930 c 256
 189 637 185 591 68 591 c 257
 68 557 l 257
 192 557 189 405 189 208 c 256
 189 24 193 -79 340 -79 c 258
EndSplineSet
EndChar

StartChar: braceright
Encoding: 125 125 158
Width: 406
VWidth: 0
Flags: W
PickledData: "(dp1
S'com.typemytype.robofont.layerData'
p2
(dp3
S'b'
(dp4
S'name'
p5
S'braceright'
p6
sS'lib'
p7
(dp8
sS'unicodes'
p9
(tsS'width'
p10
I406
sS'contours'
p11
(tsS'components'
p12
(tsS'anchors'
p13
(tsss."
LayerCount: 2
Fore
SplineSet
66 -79 m 257
 118 -79 l 258
 265 -79 269 24 269 208 c 256
 269 405 266 557 390 557 c 257
 390 591 l 257
 273 591 269 637 269 930 c 256
 269 1116 264 1218 118 1218 c 258
 66 1218 l 257
 66 1186 l 257
 205 1186 226 1164 226 975 c 256
 226 643 232 586 340 572 c 257
 233 556 226 463 226 152 c 256
 226 -25 199 -48 66 -48 c 257
 66 -79 l 257
EndSplineSet
EndChar

StartChar: bracketleft
Encoding: 91 91 159
Width: 318
VWidth: 0
Flags: W
PickledData: "(dp1
S'com.typemytype.robofont.layerData'
p2
(dp3
S'b'
(dp4
S'name'
p5
S'bracketleft'
p6
sS'lib'
p7
(dp8
sS'unicodes'
p9
(tsS'width'
p10
I318
sS'contours'
p11
(tsS'components'
p12
(tsS'anchors'
p13
(tsss."
LayerCount: 2
Fore
SplineSet
118 -127 m 257
 272 -127 l 257
 272 -93 l 257
 162 -93 l 257
 162 1155 l 257
 272 1155 l 257
 272 1189 l 257
 118 1189 l 257
 118 -127 l 257
EndSplineSet
EndChar

StartChar: bracketright
Encoding: 93 93 160
Width: 316
VWidth: 0
Flags: W
PickledData: "(dp1
S'com.typemytype.robofont.layerData'
p2
(dp3
S'b'
(dp4
S'name'
p5
S'bracketright'
p6
sS'lib'
p7
(dp8
sS'unicodes'
p9
(tsS'width'
p10
I316
sS'contours'
p11
(tsS'components'
p12
(tsS'anchors'
p13
(tsss."
LayerCount: 2
Fore
SplineSet
60 -127 m 257
 214 -127 l 257
 214 1189 l 257
 60 1189 l 257
 60 1155 l 257
 170 1155 l 257
 170 -93 l 257
 60 -93 l 257
 60 -127 l 257
EndSplineSet
EndChar

StartChar: breve
Encoding: 728 728 161
Width: 233
VWidth: 0
Flags: W
PickledData: "(dp1
S'com.typemytype.robofont.layerData'
p2
(dp3
S'b'
(dp4
S'name'
p5
S'breve'
p6
sS'lib'
p7
(dp8
sS'unicodes'
p9
(tsS'width'
p10
I233
sS'contours'
p11
(tsS'components'
p12
(tsS'anchors'
p13
(tsss."
AnchorPoint: "top" 116.5 804 mark 0
LayerCount: 2
Fore
SplineSet
120 934 m 256
 193 934 243 980 256 1059 c 257
 224 1059 l 257
 208 1002 169 968 119 968 c 256
 68 968 29 1002 14 1059 c 257
 -21 1059 l 257
 -3 980 49 934 120 934 c 256
EndSplineSet
EndChar

StartChar: breveinvertedcomb
Encoding: 785 785 162
Width: 962
VWidth: 0
Flags: W
PickledData: "(dp1
S'com.typemytype.robofont.layerData'
p2
(dp3
S'b'
(dp4
S'name'
p5
S'uni0311'
p6
sS'lib'
p7
(dp8
sS'unicodes'
p9
(tsS'width'
p10
I962
sS'contours'
p11
(tsS'components'
p12
(tsS'anchors'
p13
(tsss."
AnchorPoint: "top" 488 804 mark 0
LayerCount: 2
Fore
SplineSet
352 934 m 257
 388 934 l 257
 403 988 436 1015 488 1015 c 256
 545 1015 580 988 595 934 c 257
 629 934 l 257
 616 1013 570 1051 488 1051 c 256
 413 1051 368 1013 352 934 c 257
EndSplineSet
EndChar

StartChar: brokenbar
Encoding: 166 166 163
Width: 418
VWidth: 0
Flags: W
PickledData: "(dp1
S'com.typemytype.robofont.layerData'
p2
(dp3
S'b'
(dp4
S'name'
p5
S'brokenbar'
p6
sS'lib'
p7
(dp8
sS'unicodes'
p9
(tsS'width'
p10
I418
sS'contours'
p11
(tsS'components'
p12
(tsS'anchors'
p13
(tsss."
LayerCount: 2
Fore
SplineSet
189 -87 m 257
 236 -87 l 257
 236 483 l 257
 189 483 l 257
 189 -87 l 257
189 664 m 257
 236 664 l 257
 236 1235 l 257
 189 1235 l 257
 189 664 l 257
EndSplineSet
EndChar

StartChar: bullet
Encoding: 8226 8226 164
Width: 768
VWidth: 0
Flags: W
PickledData: "(dp1
S'com.typemytype.robofont.layerData'
p2
(dp3
S'b'
(dp4
S'name'
p5
S'bullet'
p6
sS'lib'
p7
(dp8
sS'unicodes'
p9
(tsS'width'
p10
I768
sS'contours'
p11
(tsS'components'
p12
(tsS'anchors'
p13
(tsss."
LayerCount: 2
Fore
SplineSet
384 333 m 256
 527 333 641 443 641 580 c 256
 641 719 527 826 384 826 c 256
 240 826 128 718 128 580 c 256
 128 445 240 333 384 333 c 256
EndSplineSet
EndChar

StartChar: c
Encoding: 99 99 165
Width: 900
VWidth: 0
Flags: W
PickledData: "(dp1
S'com.typemytype.robofont.layerData'
p2
(dp3
S'b'
(dp4
S'name'
p5
S'c'
sS'lib'
p6
(dp7
sS'unicodes'
p8
(tsS'width'
p9
I900
sS'contours'
p10
((dp11
S'points'
p12
((dp13
S'y'
S'-14'
p14
sS'x'
I633
sS'smooth'
p15
I0
s(dp16
S'y'
I33
sS'x'
I758
sg15
I0
s(dp17
S'segmentType'
p18
S'curve'
p19
sS'x'
I868
sg15
I0
sS'y'
I142
s(dp20
g18
S'line'
p21
sS'x'
I845
sg15
I0
sS'y'
I213
s(dp22
S'y'
I105
sS'x'
I763
sg15
I0
s(dp23
S'y'
I51
sS'x'
I637
sg15
I0
s(dp24
g18
S'curve'
p25
sS'x'
I515
sg15
I1
sS'y'
I51
s(dp26
S'y'
I51
sS'x'
I316
sg15
I0
s(dp27
S'y'
I193
sS'x'
I169
sg15
I0
s(dp28
g18
S'curve'
p29
sS'x'
I169
sg15
I1
sS'y'
I406
s(dp30
S'y'
I630
sS'x'
I169
sg15
I0
s(dp31
S'y'
I755
sS'x'
I336
sg15
I0
s(dp32
g18
S'curve'
p33
sS'x'
I515
sg15
I1
sS'y'
I755
s(dp34
S'y'
I755
sS'x'
I705
sg15
I0
s(dp35
S'y'
I657
sS'x'
I768
sg15
I0
s(dp36
g18
S'curve'
p37
sS'x'
I776
sg15
I0
sS'y'
I570
s(dp38
g18
S'line'
p39
sS'x'
I840
sg15
I0
sS'y'
I570
s(dp40
g18
S'line'
p41
sS'x'
I840
sg15
I0
sS'y'
I825
s(dp42
g18
S'line'
p43
sS'x'
I767
sg15
I0
sS'y'
I825
s(dp44
g18
S'line'
p45
sS'x'
I767
sg15
I0
sS'y'
I714
s(dp46
S'y'
I764
sS'x'
I736
sg15
I0
s(dp47
S'y'
I819
sS'x'
I645
sg15
I0
s(dp48
g18
S'curve'
p49
sS'x'
I522
sg15
I1
sS'y'
I819
s(dp50
S'y'
I819
sS'x'
F268.96812951340218
sg15
I0
s(dp51
S'y'
I650
sS'x'
I90
sg15
I0
s(dp52
g18
S'curve'
p53
sS'x'
I90
sg15
I1
sS'y'
I406
s(dp54
S'y'
I145
sS'x'
I90
sg15
I0
s(dp55
S'y'
S'-14'
p56
sS'x'
I286
sg15
I0
s(dp57
g18
S'curve'
p58
sS'x'
I515
sg15
I1
sS'y'
S'-14'
p59
stp60
stp61
sS'components'
p62
(tsS'anchors'
p63
(tsss."
AnchorPoint: "top" 490 804 basechar 0
AnchorPoint: "bot" 445 0 basechar 0
LayerCount: 2
Fore
SplineSet
482 -22 m 256
 613 -22 724 13 833 126 c 257
 816 152 l 257
 720 56 618 13 486 12 c 256
 286 11 112 168 112 403 c 256
 112 682 326 792 495 792 c 256
 662 792 744 718 772 578 c 257
 800 578 l 257
 800 804 l 257
 766 804 l 257
 766 678 l 257
 728 771 652 826 494 826 c 256
 310 826 70 707 70 405 c 256
 70 146 261 -22 482 -22 c 256
EndSplineSet
EndChar

StartChar: caron
Encoding: 711 711 167
Width: 351
VWidth: 0
Flags: W
PickledData: "(dp1
S'com.typemytype.robofont.layerData'
p2
(dp3
S'b'
(dp4
S'name'
p5
S'caron'
p6
sS'lib'
p7
(dp8
sS'unicodes'
p9
(tsS'width'
p10
I351
sS'contours'
p11
(tsS'components'
p12
(tsS'anchors'
p13
(tsss."
AnchorPoint: "top" 175.5 804 mark 0
LayerCount: 2
Fore
SplineSet
159 930 m 257
 182 930 l 257
 315 1203 l 257
 279 1203 l 257
 171 981 l 257
 61 1203 l 257
 23 1203 l 257
 159 930 l 257
EndSplineSet
EndChar

StartChar: caron.alt
Encoding: 65539 -1 168
Width: 418
VWidth: 0
Flags: W
PickledData: "(dp1
S'com.typemytype.robofont.layerData'
p2
(dp3
S'b'
(dp4
S'name'
p5
S'uni0326'
p6
sS'lib'
p7
(dp8
sS'unicodes'
p9
(tsS'width'
p10
I418
sS'contours'
p11
(tsS'components'
p12
(tsS'anchors'
p13
(tsss."
AnchorPoint: "caron.alt" 209 804 mark 0
LayerCount: 2
Fore
SplineSet
362 912 m 257
 453 911 464 960 464 1074 c 258
 464 1152 l 257
 401 1152 l 257
 401 1057 l 257
 436 1057 l 257
 436 972 436 931 362 929 c 257
 362 912 l 257
EndSplineSet
EndChar

StartChar: cedilla
Encoding: 184 184 173
Width: 600
VWidth: 0
Flags: W
PickledData: "(dp1
S'com.typemytype.robofont.layerData'
p2
(dp3
S'b'
(dp4
S'name'
p5
S'cedilla'
p6
sS'lib'
p7
(dp8
sS'unicodes'
p9
(tsS'width'
p10
I600
sS'contours'
p11
(tsS'components'
p12
(tsS'anchors'
p13
(tsss."
AnchorPoint: "bot" 300 0 mark 0
LayerCount: 2
Fore
SplineSet
278 -306 m 256
 371 -306 402 -248 402 -206 c 256
 402 -161 368 -118 300 -118 c 256
 272 -118 243 -125 243 -125 c 257
 290 6 l 257
 267 6 l 257
 206 -149 l 257
 238 -143 263 -140 284 -140 c 256
 356 -140 371 -174 371 -202 c 256
 371 -245 342 -281 270 -281 c 256
 241 -281 207 -274 167 -260 c 257
 167 -282 l 257
 205 -297 243 -306 278 -306 c 256
EndSplineSet
EndChar

StartChar: cent
Encoding: 162 162 174
Width: 872
VWidth: 0
Flags: W
PickledData: "(dp1
S'com.typemytype.robofont.layerData'
p2
(dp3
S'b'
(dp4
S'name'
p5
S'cent'
p6
sS'lib'
p7
(dp8
sS'unicodes'
p9
(tsS'width'
p10
I872
sS'contours'
p11
(tsS'components'
p12
(tsS'anchors'
p13
(tsss."
LayerCount: 2
Fore
SplineSet
335 -186 m 257
 648 1012 l 257
 618 1020 l 257
 304 -179 l 257
 335 -186 l 257
EndSplineSet
Refer: 165 99 N 1 0 0 1 0 0 2
EndChar

StartChar: circumflex
Encoding: 710 710 175
Width: 347
VWidth: 0
Flags: W
PickledData: "(dp1
S'com.typemytype.robofont.layerData'
p2
(dp3
S'b'
(dp4
S'name'
p5
S'circumflex'
p6
sS'lib'
p7
(dp8
sS'unicodes'
p9
(tsS'width'
p10
I347
sS'contours'
p11
(tsS'components'
p12
(tsS'anchors'
p13
(tsss."
AnchorPoint: "top" 173.5 804 mark 0
LayerCount: 2
Fore
SplineSet
23 930 m 257
 61 930 l 257
 171 1152 l 257
 279 930 l 257
 315 930 l 257
 182 1203 l 257
 159 1203 l 257
 23 930 l 257
EndSplineSet
EndChar

StartChar: colon
Encoding: 58 58 176
Width: 453
VWidth: 0
Flags: W
PickledData: "(dp1
S'com.typemytype.robofont.layerData'
p2
(dp3
S'b'
(dp4
S'name'
p5
S'colon'
p6
sS'lib'
p7
(dp8
sS'unicodes'
p9
(tsS'width'
p10
I453
sS'contours'
p11
(tsS'components'
p12
(tsS'anchors'
p13
(tsss."
LayerCount: 2
Fore
SplineSet
194 272 m 257
 267 272 l 257
 267 355 l 257
 194 355 l 257
 194 272 l 257
194 729 m 257
 267 729 l 257
 267 813 l 257
 194 813 l 257
 194 729 l 257
EndSplineSet
EndChar

StartChar: comma
Encoding: 44 44 177
Width: 374
VWidth: 0
Flags: W
PickledData: "(dp1
S'com.typemytype.robofont.layerData'
p2
(dp3
S'b'
(dp4
S'name'
p5
S'comma'
p6
sS'lib'
p7
(dp8
sS'unicodes'
p9
(tsS'width'
p10
I374
sS'contours'
p11
(tsS'components'
p12
(tsS'anchors'
p13
(tsss."
AnchorPoint: "bot" 187 0 mark 0
LayerCount: 2
Fore
SplineSet
138 -145 m 257
 229 -146 240 -97 240 17 c 258
 240 95 l 257
 167 95 l 257
 167 0 l 257
 212 0 l 257
 212 -85 212 -126 138 -128 c 257
 138 -145 l 257
EndSplineSet
EndChar

StartChar: commaaccent
Encoding: 806 806 178
Width: 418
VWidth: 0
Flags: W
PickledData: "(dp1
S'com.typemytype.robofont.layerData'
p2
(dp3
S'b'
(dp4
S'name'
p5
S'uni0326'
p6
sS'lib'
p7
(dp8
sS'unicodes'
p9
(tsS'width'
p10
I418
sS'contours'
p11
(tsS'components'
p12
(tsS'anchors'
p13
(tsss."
AnchorPoint: "bot" 209 0 mark 0
LayerCount: 2
Fore
SplineSet
136 -339 m 257
 227 -340 238 -291 238 -177 c 258
 238 -99 l 257
 175 -99 l 257
 175 -194 l 257
 210 -194 l 257
 210 -279 210 -320 136 -322 c 257
 136 -339 l 257
EndSplineSet
EndChar

StartChar: copyright
Encoding: 169 169 179
Width: 1512
VWidth: 0
Flags: W
PickledData: "(dp1
S'com.typemytype.robofont.layerData'
p2
(dp3
S'b'
(dp4
S'name'
p5
S'copyright'
p6
sS'lib'
p7
(dp8
sS'unicodes'
p9
(tsS'width'
p10
I1512
sS'contours'
p11
(tsS'components'
p12
(tsS'anchors'
p13
(tsss."
LayerCount: 2
Fore
SplineSet
757 154 m 256
 882 154 1002 200 1090 290 c 257
 1091 333 l 257
 995 237 893 189 761 188 c 256
 561 187 387 344 387 579 c 256
 387 858 601 968 770 968 c 256
 937 968 1036 888 1047 754 c 257
 1085 754 l 257
 1085 980 l 257
 1050 980 l 257
 1048 870 l 257
 995 966 890 1002 769 1002 c 256
 585 1002 345 883 345 581 c 256
 345 322 536 154 757 154 c 256
756 -48 m 256
 1113 -48 1397 224 1397 577 c 256
 1397 929 1113 1201 756 1201 c 256
 399 1201 115 929 115 577 c 256
 115 224 399 -48 756 -48 c 256
756 -14 m 256
 423 -14 159 243 159 577 c 256
 159 910 423 1167 756 1167 c 256
 1089 1167 1353 910 1353 577 c 256
 1353 243 1089 -14 756 -14 c 256
EndSplineSet
EndChar

StartChar: currency
Encoding: 164 164 180
Width: 1032
VWidth: 0
Flags: W
PickledData: "(dp1
S'com.typemytype.robofont.layerData'
p2
(dp3
S'b'
(dp4
S'name'
p5
S'currency'
p6
sS'lib'
p7
(dp8
sS'unicodes'
p9
(tsS'width'
p10
I1032
sS'contours'
p11
(tsS'components'
p12
(tsS'anchors'
p13
(tsss."
LayerCount: 2
Fore
SplineSet
204 280 m 257
 295 377 l 257
 346 335 438 306 516 306 c 256
 594 306 686 335 737 377 c 257
 828 280 l 257
 864 312 l 257
 771 408 l 257
 836 475 868 566 868 658 c 256
 868 750 836 841 771 908 c 257
 864 1004 l 257
 828 1036 l 257
 737 939 l 257
 686 981 594 1010 516 1010 c 256
 438 1010 346 981 295 939 c 257
 204 1036 l 257
 168 1004 l 257
 261 908 l 257
 196 841 164 750 164 658 c 256
 164 566 196 475 261 408 c 257
 168 312 l 257
 204 280 l 257
516 339 m 256
 307 339 202 498 202 658 c 256
 202 818 307 977 516 977 c 256
 725 977 830 818 830 658 c 256
 830 498 725 339 516 339 c 256
EndSplineSet
EndChar

StartChar: dagger
Encoding: 8224 8224 182
Width: 364
VWidth: 0
Flags: W
PickledData: "(dp1
S'com.typemytype.robofont.layerData'
p2
(dp3
S'b'
(dp4
S'name'
p5
S'dagger'
p6
sS'lib'
p7
(dp8
sS'unicodes'
p9
(tsS'width'
p10
I364
sS'contours'
p11
(tsS'components'
p12
(tsS'anchors'
p13
(tsss."
LayerCount: 2
Fore
SplineSet
172 94 m 257
 194 94 l 257
 194 267 220 394 199 531 c 257
 199 662 222 713 194 860 c 257
 374 848 l 257
 374 889 l 257
 194 885 l 257
 217 1152 l 257
 148 1152 l 257
 172 885 l 257
 -12 889 l 257
 -12 848 l 257
 172 860 l 257
 144 710 166 659 166 527 c 257
 146 393 172 271 172 94 c 257
EndSplineSet
EndChar

StartChar: daggerdbl
Encoding: 8225 8225 183
Width: 486
VWidth: 0
Flags: W
PickledData: "(dp1
S'com.typemytype.robofont.layerData'
p2
(dp3
S'b'
(dp4
S'name'
p5
S'daggerdbl'
p6
sS'lib'
p7
(dp8
sS'unicodes'
p9
(tsS'width'
p10
I486
sS'contours'
p11
(tsS'components'
p12
(tsS'anchors'
p13
(tsss."
LayerCount: 2
Fore
SplineSet
204 17 m 257
 288 17 l 257
 262 308 l 257
 474 295 l 257
 474 351 l 257
 258 331 l 257
 268 391 277 459 277 603 c 256
 277 750 268 828 258 891 c 257
 474 871 l 257
 474 927 l 257
 262 914 l 257
 288 1205 l 257
 204 1205 l 257
 231 914 l 257
 15 927 l 257
 15 871 l 257
 235 891 l 257
 223 829 216 755 216 610 c 256
 216 465 223 392 235 331 c 257
 15 351 l 257
 15 295 l 257
 231 308 l 257
 204 17 l 257
EndSplineSet
EndChar

StartChar: dblgravecmb
Encoding: 783 783 184
Width: 643
VWidth: 0
Flags: W
PickledData: "(dp1
S'com.typemytype.robofont.layerData'
p2
(dp3
S'b'
(dp4
S'name'
p5
S'uni030F'
p6
sS'lib'
p7
(dp8
sS'unicodes'
p9
(tsS'width'
p10
I643
sS'contours'
p11
(tsS'components'
p12
(tsS'anchors'
p13
(tsss."
AnchorPoint: "top" 385 804 mark 0
LayerCount: 2
Fore
SplineSet
277 913 m 257
 292 913 l 257
 206 1152 l 257
 157 1152 l 257
 277 913 l 257
440 913 m 257
 455 913 l 257
 368 1152 l 257
 320 1152 l 257
 440 913 l 257
EndSplineSet
EndChar

StartChar: degree
Encoding: 176 176 187
Width: 922
VWidth: 0
Flags: W
PickledData: "(dp1
S'com.typemytype.robofont.layerData'
p2
(dp3
S'b'
(dp4
S'name'
p5
S'degree'
p6
sS'lib'
p7
(dp8
sS'unicodes'
p9
(tsS'width'
p10
I922
sS'contours'
p11
(tsS'components'
p12
(tsS'anchors'
p13
(tsss."
LayerCount: 2
Fore
SplineSet
461 721 m 256
 602 721 701 815 701 947 c 256
 701 1080 602 1174 461 1174 c 256
 321 1174 222 1080 222 947 c 256
 222 815 321 721 461 721 c 256
462 748 m 256
 342 748 257 830 257 947 c 256
 258 1064 343 1146 461 1146 c 256
 581 1146 666 1064 666 948 c 256
 666 831 581 748 462 748 c 256
EndSplineSet
EndChar

StartChar: dieresis
Encoding: 168 168 188
Width: 295
VWidth: 0
Flags: W
PickledData: "(dp1
S'com.typemytype.robofont.layerData'
p2
(dp3
S'b'
(dp4
S'name'
p5
S'dieresis'
p6
sS'lib'
p7
(dp8
sS'unicodes'
p9
(tsS'width'
p10
I295
sS'contours'
p11
(tsS'components'
p12
(tsS'anchors'
p13
(tsss."
AnchorPoint: "top" 147.5 804 mark 0
LayerCount: 2
Fore
SplineSet
-11 947 m 256
 13 947 27 960 27 983 c 256
 27 1006 13 1019 -11 1019 c 256
 -34 1019 -48 1006 -48 983 c 256
 -48 960 -34 947 -11 947 c 256
299 946 m 256
 323 946 337 959 338 982 c 256
 338 1005 324 1019 299 1019 c 256
 276 1019 263 1005 263 982 c 256
 263 959 276 946 299 946 c 256
EndSplineSet
EndChar

StartChar: divide
Encoding: 247 247 189
Width: 339
VWidth: 0
Flags: W
PickledData: "(dp1
S'com.typemytype.robofont.layerData'
p2
(dp3
S'b'
(dp4
S'name'
p5
S'divide'
p6
sS'lib'
p7
(dp8
sS'unicodes'
p9
(tsS'width'
p10
I339
sS'contours'
p11
(tsS'components'
p12
(tsS'anchors'
p13
(tsss."
LayerCount: 2
Fore
SplineSet
122 170 m 257
 223 170 l 257
 223 276 l 257
 122 276 l 257
 122 170 l 257
-57 388 m 257
 399 388 l 257
 399 428 l 257
 -57 428 l 257
 -57 388 l 257
122 530 m 257
 223 530 l 257
 223 637 l 257
 122 637 l 257
 122 530 l 257
EndSplineSet
EndChar

StartChar: dollar
Encoding: 36 36 190
Width: 1143
VWidth: 0
Flags: W
LayerCount: 2
Fore
SplineSet
583 -183 m 257
 613 -183 l 257
 613 1323 l 257
 583 1323 l 257
 583 -183 l 257
EndSplineSet
Refer: 94 83 N 1 0 0 1 0 0 2
EndChar

StartChar: dotaccent
Encoding: 729 729 191
Width: 496
VWidth: 0
Flags: W
AnchorPoint: "top" 251 804 mark 0
LayerCount: 2
Fore
SplineSet
251 999 m 256
 277 999 293 1016 293 1044 c 256
 293 1072 277 1089 251 1089 c 256
 227 1089 212 1072 212 1044 c 256
 212 1016 227 999 251 999 c 256
EndSplineSet
EndChar

StartChar: dotlessi
Encoding: 305 305 193
Width: 513
VWidth: 0
Flags: W
PickledData: "(dp1
S'com.typemytype.robofont.layerData'
p2
(dp3
S'b'
(dp4
S'name'
p5
S'dotlessi'
p6
sS'lib'
p7
(dp8
sS'unicodes'
p9
(tsS'width'
p10
I513
sS'contours'
p11
(tsS'components'
p12
(tsS'anchors'
p13
(tsss."
AnchorPoint: "top" 292 804 basechar 0
AnchorPoint: "ogonek" 300 0 basechar 0
LayerCount: 2
Fore
SplineSet
93 0 m 257
 494 0 l 257
 494 34 l 257
 318 34 l 257
 318 804 l 257
 96 804 l 257
 96 770 l 257
 274 770 l 257
 274 34 l 257
 93 34 l 257
 93 0 l 257
EndSplineSet
EndChar

StartChar: dotlessj
Encoding: 567 567 194
Width: 398
VWidth: 0
Flags: W
PickledData: "(dp1
S'com.typemytype.robofont.layerData'
p2
(dp3
S'b'
(dp4
S'name'
p5
S'uni0237'
p6
sS'lib'
p7
(dp8
sS'unicodes'
p9
(tsS'width'
p10
I398
sS'contours'
p11
(tsS'components'
p12
(tsS'anchors'
p13
(tsss."
AnchorPoint: "top" 245 804 basechar 0
LayerCount: 2
Fore
SplineSet
23 -240 m 257
 95 -240 l 258
 293 -240 268 -101 268 -34 c 258
 268 805 l 257
 64 805 l 257
 64 774 l 257
 221 774 l 257
 221 -39 l 258
 221 -152 228 -208 85 -208 c 258
 23 -208 l 257
 23 -240 l 257
EndSplineSet
EndChar

StartChar: e
Encoding: 101 101 195
Width: 937
VWidth: 0
Flags: W
PickledData: "(dp1
S'com.typemytype.robofont.layerData'
p2
(dp3
S'b'
(dp4
S'name'
p5
S'e'
sS'lib'
p6
(dp7
sS'unicodes'
p8
(tsS'width'
p9
I937
sS'contours'
p10
((dp11
S'points'
p12
((dp13
S'segmentType'
p14
S'line'
p15
sS'x'
I171
sS'smooth'
p16
I0
sS'y'
I442
s(dp17
S'y'
I592
sS'x'
I182
sg16
I0
s(dp18
S'y'
I755
sS'x'
I296
sg16
I0
s(dp19
g14
S'curve'
p20
sS'x'
I507
sg16
I1
sS'y'
I755
s(dp21
S'y'
I755
sS'x'
I699
sg16
I0
s(dp22
S'y'
I616
sS'x'
I803
sg16
I0
s(dp23
g14
S'curve'
p24
sS'x'
I820
sg16
I0
sS'y'
I442
stp25
s(dp26
g12
((dp27
g14
S'line'
p28
sS'x'
I890
sg16
I0
sS'y'
I383
s(dp29
S'y'
I601
sS'x'
I889
sg16
I0
s(dp30
S'y'
I819
sS'x'
F778.76831688899995
sg16
I0
s(dp31
g14
S'curve'
p32
sS'x'
I502
sg16
I1
sS'y'
I819
s(dp33
S'y'
I819
sS'x'
I232
sg16
I0
s(dp34
S'y'
I618
sS'x'
I90
sg16
I0
s(dp35
g14
S'curve'
p36
sS'x'
I90
sg16
I1
sS'y'
I403
s(dp37
S'y'
I150
sS'x'
I90
sg16
I0
s(dp38
S'y'
S'-14'
p39
sS'x'
I284
sg16
I0
s(dp40
g14
S'curve'
p41
sS'x'
I511
sg16
I1
sS'y'
S'-14'
p42
s(dp43
S'y'
S'-14'
p44
sS'x'
I657
sg16
I0
s(dp45
S'y'
I34
sS'x'
I761
sg16
I0
s(dp46
g14
S'curve'
p47
sS'x'
I868
sg16
I0
sS'y'
I139
s(dp48
g14
S'line'
p49
sS'x'
I836
sg16
I0
sS'y'
I197
s(dp50
S'y'
I103
sS'x'
I747
sg16
I0
s(dp51
S'y'
I50
sS'x'
I652
sg16
I0
s(dp52
g14
S'curve'
p53
sS'x'
I515
sg16
I1
sS'y'
I50
s(dp54
S'y'
I50
sS'x'
I347
sg16
I0
s(dp55
S'y'
I162
sS'x'
I182
sg16
I0
s(dp56
g14
S'curve'
p57
sS'x'
I169
sg16
I0
sS'y'
I383
stp58
stp59
sS'components'
p60
(tsS'anchors'
p61
(tsss."
AnchorPoint: "bot" 468.5 0 basechar 0
AnchorPoint: "top" 479 804 basechar 0
AnchorPoint: "ogonek" 562 0 basechar 0
LayerCount: 2
Fore
SplineSet
492 -22 m 256
 611 -22 735 25 840 129 c 257
 827 166 l 257
 758 81 621 12 492 12 c 256
 312 12 125 140 114 390 c 257
 860 390 l 257
 852 718 649 826 473 826 c 256
 276 826 70 687 70 403 c 256
 70 133 276 -22 492 -22 c 256
113 424 m 257
 120 649 280 792 473 792 c 256
 645 792 796 678 820 424 c 257
 113 424 l 257
EndSplineSet
EndChar

StartChar: eight
Encoding: 56 56 203
Width: 1061
VWidth: 0
Flags: W
PickledData: "(dp1
S'com.typemytype.robofont.layerData'
p2
(dp3
S'b'
(dp4
S'name'
p5
S'eight'
p6
sS'lib'
p7
(dp8
sS'unicodes'
p9
(tsS'width'
p10
I1061
sS'contours'
p11
(tsS'components'
p12
(tsS'anchors'
p13
(tsss."
LayerCount: 2
Fore
SplineSet
530 -22 m 256
 763 -22 901 94 901 290 c 256
 901 456 804 574 639 604 c 257
 779 635 862 738 862 885 c 256
 862 1068 739 1175 531 1174 c 256
 323 1175 200 1068 200 885 c 256
 200 745 282 642 422 604 c 257
 257 573 160 455 160 290 c 256
 160 94 297 -22 530 -22 c 256
530 14 m 256
 324 14 202 117 202 290 c 256
 202 474 325 583 531 584 c 256
 735 583 859 474 859 290 c 256
 859 117 737 14 530 14 c 256
531 624 m 257
 349 620 242 723 242 885 c 256
 242 1044 349 1138 531 1138 c 256
 713 1138 820 1044 820 885 c 256
 820 718 711 621 531 624 c 257
EndSplineSet
EndChar

StartChar: ellipsis
Encoding: 8230 8230 204
Width: 856
VWidth: 0
Flags: W
PickledData: "(dp1
S'com.typemytype.robofont.layerData'
p2
(dp3
S'b'
(dp4
S'name'
p5
S'ellipsis'
p6
sS'lib'
p7
(dp8
sS'unicodes'
p9
(tsS'width'
p10
I856
sS'contours'
p11
(tsS'components'
p12
(tsS'anchors'
p13
(tsss."
LayerCount: 2
Fore
SplineSet
197 0 m 257
 268 0 l 257
 268 84 l 257
 197 84 l 257
 197 0 l 257
395 0 m 257
 468 0 l 257
 468 84 l 257
 395 84 l 257
 395 0 l 257
595 0 m 257
 666 0 l 257
 666 84 l 257
 595 84 l 257
 595 0 l 257
EndSplineSet
EndChar

StartChar: emdash
Encoding: 8212 8212 206
Width: 849
VWidth: 0
Flags: W
PickledData: "(dp1
S'com.typemytype.robofont.layerData'
p2
(dp3
S'b'
(dp4
S'name'
p5
S'emdash'
p6
sS'lib'
p7
(dp8
sS'unicodes'
p9
(tsS'width'
p10
I849
sS'contours'
p11
(tsS'components'
p12
(tsS'anchors'
p13
(tsss."
LayerCount: 2
Fore
SplineSet
0 577 m 257
 849 577 l 257
 849 611 l 257
 0 611 l 257
 0 577 l 257
EndSplineSet
EndChar

StartChar: emptyset
Encoding: 8709 8709 207
Width: 1426
VWidth: 0
Flags: W
LayerCount: 2
Fore
SplineSet
133 32 m 257
 1330 1089 l 257
 1321 1101 l 257
 122 47 l 257
 133 32 l 257
EndSplineSet
Refer: 75 79 N 1 0 0 1 0 0 2
EndChar

StartChar: endash
Encoding: 8211 8211 208
Width: 653
VWidth: 0
Flags: W
PickledData: "(dp1
S'com.typemytype.robofont.layerData'
p2
(dp3
S'b'
(dp4
S'name'
p5
S'endash'
p6
sS'lib'
p7
(dp8
sS'unicodes'
p9
(tsS'width'
p10
I653
sS'contours'
p11
(tsS'components'
p12
(tsS'anchors'
p13
(tsss."
LayerCount: 2
Fore
SplineSet
0 560 m 257
 653 560 l 257
 653 594 l 257
 0 594 l 257
 0 560 l 257
EndSplineSet
EndChar

StartChar: eng
Encoding: 331 331 209
Width: 1040
VWidth: 0
Flags: W
LayerCount: 2
Fore
SplineSet
246 694 m 257
 246 656 l 257
 413 750 509 790 618 790 c 256
 747 790 822 715 822 605 c 258
 822 -31 l 258
 822 -220 719 -340 498 -340 c 257
 495 -374 l 257
 728 -374 866 -261 866 -17 c 258
 866 582 l 258
 866 749 762 826 623 826 c 256
 507 826 383 778 246 694 c 257
EndSplineSet
Refer: 275 -1 N 1 0 0 1 -43 0 2
EndChar

StartChar: equal
Encoding: 61 61 211
Width: 715
VWidth: 0
Flags: W
PickledData: "(dp1
S'com.typemytype.robofont.layerData'
p2
(dp3
S'b'
(dp4
S'name'
p5
S'equal'
p6
sS'lib'
p7
(dp8
sS'unicodes'
p9
(tsS'width'
p10
I715
sS'contours'
p11
(tsS'components'
p12
(tsS'anchors'
p13
(tsss."
LayerCount: 2
Fore
SplineSet
92 311 m 257
 653 311 l 257
 653 351 l 257
 92 351 l 257
 92 311 l 257
92 539 m 257
 653 539 l 257
 653 577 l 257
 92 577 l 257
 92 539 l 257
EndSplineSet
EndChar

StartChar: estimated
Encoding: 8494 8494 212
Width: 946
VWidth: 0
Flags: W
LayerCount: 2
Fore
SplineSet
523 -14 m 256
 669 -14 783 52 868 139 c 257
 840 171 l 257
 772 90 661 30 523 30 c 256
 331 30 204 184 197 393 c 257
 869 393 l 257
 869 642.053 734 819 499 819 c 256
 264 819 106 641 106 403 c 256
 106 165 279 -14 523 -14 c 256
197 430 m 257
 205 634 318 785 499 785 c 256
 691 785 790 622 790 430 c 257
 197 430 l 257
EndSplineSet
EndChar

StartChar: eth
Encoding: 240 240 213
Width: 886
VWidth: 0
Flags: W
PickledData: "(dp1
S'com.typemytype.robofont.layerData'
p2
(dp3
S'b'
(dp4
S'name'
p5
S'eth'
p6
sS'lib'
p7
(dp8
sS'unicodes'
p9
(tsS'width'
p10
I886
sS'contours'
p11
(tsS'components'
p12
(tsS'anchors'
p13
(tsss."
LayerCount: 2
Fore
SplineSet
433 -23 m 256
 635 -23 817 120 817 395 c 256
 817 804 360 1159 141 1353 c 257
 113 1327 l 257
 296 1171 558 971 687 695 c 257
 608 768 499 808 424 808 c 256
 207 808 38 629 38 437 c 256
 38 210 159 -23 433 -23 c 256
433 18 m 256
 187 18 85 225 85 413 c 256
 85 660 267 770 428 770 c 256
 591 770 773 662 773 406 c 256
 773 220 678 18 433 18 c 256
165 923 m 257
 712 1157 l 257
 692 1187 l 257
 144 955 l 257
 165 923 l 257
EndSplineSet
EndChar

StartChar: exclam
Encoding: 33 33 214
Width: 150
VWidth: 0
Flags: W
PickledData: "(dp1
S'com.typemytype.robofont.layerData'
p2
(dp3
S'b'
(dp4
S'name'
p5
S'exclam'
p6
sS'lib'
p7
(dp8
sS'unicodes'
p9
(tsS'width'
p10
I150
sS'contours'
p11
(tsS'components'
p12
(tsS'anchors'
p13
(tsss."
LayerCount: 2
Fore
SplineSet
74 321 m 257
 87 321 l 257
 104 730 l 257
 104 1156 l 257
 57 1156 l 257
 57 730 l 257
 74 321 l 257
55 0 m 257
 105 0 l 257
 105 54 l 257
 55 54 l 257
 55 0 l 257
EndSplineSet
EndChar

StartChar: f
Encoding: 102 102 216
Width: 621
VWidth: 0
Flags: W
PickledData: "(dp1
S'com.typemytype.robofont.layerData'
p2
(dp3
S'b'
(dp4
S'name'
p5
S'f'
sS'lib'
p6
(dp7
sS'unicodes'
p8
(tsS'width'
p9
I621
sS'contours'
p10
(tsS'components'
p11
(tsS'anchors'
p12
(tsss."
AnchorPoint: "top" 305 1051 basechar 0
LayerCount: 2
Fore
SplineSet
107 0 m 257
 497 0 l 257
 497 34 l 257
 305 34 l 257
 305 770 l 257
 543 770 l 257
 543 804 l 257
 305 804 l 257
 305 1036 l 258
 305 1113 345 1155 411 1155 c 256
 476 1155 513 1120 522 1047 c 257
 555 1062 l 257
 547 1142 498 1191 409 1191 c 256
 313 1191 261 1134 261 1036 c 258
 261 804 l 257
 102 804 l 257
 102 770 l 257
 261 770 l 257
 261 34 l 257
 107 34 l 257
 107 0 l 257
EndSplineSet
EndChar

StartChar: ff
Encoding: 64256 64256 217
Width: 1169
VWidth: 0
Flags: W
PickledData: "(dp1
S'com.typemytype.robofont.layerData'
p2
(dp3
S'b'
(dp4
S'name'
p5
S'ff'
p6
sS'lib'
p7
(dp8
sS'unicodes'
p9
(tsS'width'
p10
I1169
sS'contours'
p11
(tsS'components'
p12
(tsS'anchors'
p13
(tsss."
LayerCount: 2
Fore
SplineSet
668 0 m 257
 1056 0 l 257
 1056 34 l 257
 863 34 l 257
 863 770 l 257
 1102 770 l 257
 1102 804 l 257
 863 804 l 257
 863 1039 l 258
 863 1112 918 1153 964 1153 c 256
 1012 1153 1072 1142 1083 1047 c 257
 1114 1062 l 257
 1102 1165 1030 1191 964 1191 c 256
 901 1191 819 1139 819 1033 c 258
 819 804 l 257
 511 804 l 257
 511 770 l 257
 819 770 l 257
 819 34 l 257
 668 34 l 257
 668 0 l 257
EndSplineSet
Refer: 216 102 N 1 0 0 1 0 0 2
EndChar

StartChar: ffi
Encoding: 64259 64259 218
Width: 1567
VWidth: 0
Flags: W
PickledData: "(dp1
S'com.typemytype.robofont.layerData'
p2
(dp3
S'b'
(dp4
S'name'
p5
S'ffi'
p6
sS'lib'
p7
(dp8
sS'unicodes'
p9
(tsS'width'
p10
I1567
sS'contours'
p11
(tsS'components'
p12
(tsS'anchors'
p13
(tsss."
LayerCount: 2
Fore
SplineSet
95 0 m 257
 486 0 l 257
 486 34 l 257
 293 34 l 257
 293 770 l 257
 711 770 l 257
 711 804 l 257
 293 804 l 257
 293 1011 l 258
 293 1100 420 1174 558 1174 c 256
 674 1174 771 1151 890 1071 c 257
 913 1093 l 257
 792 1176 666 1208 558 1208 c 256
 393 1208 249 1115 249 1005 c 258
 249 804 l 257
 90 804 l 257
 90 770 l 257
 249 770 l 257
 249 34 l 257
 95 34 l 257
 95 0 l 257
EndSplineSet
Refer: 220 64257 N 1 0 0 1 534 0 2
EndChar

StartChar: ffl
Encoding: 64260 64260 219
Width: 1801
VWidth: 0
Flags: W
PickledData: "(dp1
S'com.typemytype.robofont.layerData'
p2
(dp3
S'b'
(dp4
S'name'
p5
S'ffl'
p6
sS'lib'
p7
(dp8
sS'unicodes'
p9
(tsS'width'
p10
I1801
sS'contours'
p11
(tsS'components'
p12
(tsS'anchors'
p13
(tsss."
LayerCount: 2
Fore
SplineSet
114 0 m 257
 504 0 l 257
 504 35 l 257
 312 35 l 257
 312 775 l 257
 755 775 l 257
 755 804 l 257
 312 804 l 257
 312 1011 l 258
 312 1126 603 1260 894 1075 c 257
 930 1092 l 257
 607 1313 264 1181 264 1005 c 258
 264 804 l 257
 109 804 l 257
 109 775 l 257
 264 775 l 257
 264 35 l 257
 114 35 l 257
 114 0 l 257
EndSplineSet
Refer: 223 64258 N 1 0 0 1 578 0 2
EndChar

StartChar: fi
Encoding: 64257 64257 220
Width: 1014
VWidth: 0
Flags: W
PickledData: "(dp1
S'com.typemytype.robofont.layerData'
p2
(dp3
S'b'
(dp4
S'name'
p5
S'fi'
p6
sS'lib'
p7
(dp8
sS'unicodes'
p9
(tsS'width'
p10
I1014
sS'contours'
p11
(tsS'components'
p12
(tsS'anchors'
p13
(tsss."
LayerCount: 2
Fore
SplineSet
95 0 m 257
 509 0 l 257
 509 34 l 257
 307 34 l 257
 307 770 l 257
 809 770 l 257
 809 34 l 257
 663 34 l 257
 663 0 l 257
 1003 0 l 257
 1003 34 l 257
 853 34 l 257
 853 804 l 257
 307 804 l 257
 307 952 l 258
 307 1077 480 1170 627 1170 c 256
 733 1170 802 1151 835 1105 c 257
 794 1105 778 1075 781 1050 c 256
 783 1034 799 1011 834 1011 c 256
 865 1011 882 1038 882 1065 c 256
 882 1167 735 1202 627 1202 c 256
 462 1202 263 1098 263 950 c 258
 263 804 l 257
 90 804 l 257
 90 770 l 257
 263 770 l 257
 263 34 l 257
 95 34 l 257
 95 0 l 257
EndSplineSet
EndChar

StartChar: five
Encoding: 53 53 221
Width: 1061
VWidth: 0
Flags: W
PickledData: "(dp1
S'com.typemytype.robofont.layerData'
p2
(dp3
S'b'
(dp4
S'name'
p5
S'five'
p6
sS'lib'
p7
(dp8
sS'unicodes'
p9
(tsS'width'
p10
I1061
sS'contours'
p11
(tsS'components'
p12
(tsS'anchors'
p13
(tsss."
LayerCount: 2
Fore
SplineSet
548 -22 m 256
 799 -22 948 112 948 339 c 256
 948 579 807 721 569 721 c 256
 433 721 334 677 267 609 c 257
 274 1118 l 257
 827 1118 l 257
 827 903 l 257
 869 903 l 257
 869 1152 l 257
 232 1152 l 257
 227 592 l 257
 268 572 l 257
 348 649 458 685 569 685 c 256
 780 685 904 556 904 339 c 256
 904 135 772 14 548 14 c 256
 416 14 282 88 204 200 c 257
 179 169 l 257
 270 49 405 -22 548 -22 c 256
EndSplineSet
EndChar

StartChar: fj
Encoding: 65544 -1 222
Width: 901
VWidth: 0
Flags: W
PickledData: "(dp1
S'com.typemytype.robofont.layerData'
p2
(dp3
S'b'
(dp4
S'name'
p5
S'fj'
p6
sS'lib'
p7
(dp8
sS'unicodes'
p9
(tsS'width'
p10
I901
sS'contours'
p11
(tsS'components'
p12
(tsS'anchors'
p13
(tsss."
LayerCount: 2
Fore
SplineSet
530 -240 m 257
 602 -240 l 258
 800 -240 776 -101 776 -34 c 258
 776 804 l 257
 431 804 l 257
 431 770 l 257
 732 770 l 257
 732 -39 l 258
 732 -152 736 -206 593 -206 c 258
 530 -206 l 257
 530 -240 l 257
736 1056 m 256
 762 1056 778 1073 778 1101 c 256
 778 1129 762 1146 736 1146 c 256
 712 1146 697 1129 697 1101 c 256
 697 1073 712 1056 736 1056 c 256
EndSplineSet
Refer: 216 102 N 1 0 0 1 0 0 2
EndChar

StartChar: fl
Encoding: 64258 64258 223
Width: 1143
VWidth: 0
Flags: W
PickledData: "(dp1
S'com.typemytype.robofont.layerData'
p2
(dp3
S'b'
(dp4
S'name'
p5
S'fl'
p6
sS'lib'
p7
(dp8
sS'unicodes'
p9
(tsS'width'
p10
I1143
sS'contours'
p11
(tsS'components'
p12
(tsS'anchors'
p13
(tsss."
LayerCount: 2
Fore
SplineSet
95 0 m 257
 509 0 l 257
 509 34 l 257
 307 34 l 257
 307 770 l 257
 526 770 l 257
 526 804 l 257
 307 804 l 257
 307 967 l 258
 307 1126 477 1200 632 1200 c 256
 750 1200 857 1172 857 1127 c 258
 857 34 l 257
 657 34 l 257
 657 0 l 257
 1099 0 l 257
 1099 34 l 257
 901 34 l 257
 901 1120 l 258
 901 1204 779 1234 632 1234 c 256
 456 1234 263 1149 263 959 c 258
 263 804 l 257
 90 804 l 257
 90 770 l 257
 263 770 l 257
 263 34 l 257
 95 34 l 257
 95 0 l 257
EndSplineSet
EndChar

StartChar: florin
Encoding: 402 402 224
Width: 870
VWidth: 0
Flags: W
LayerCount: 2
Fore
SplineSet
78 -86 m 257
 188 -86 245 -78 280 49 c 258
 485 793 l 257
 697 793 l 257
 702 826 l 257
 494 826 l 257
 561 1069 l 258
 585 1155 639 1207 717 1207 c 256
 745 1207 776 1201 810 1186 c 257
 820 1219 l 257
 783 1236 745 1245 709 1245 c 256
 625 1245 550 1195 518 1078 c 258
 448 826 l 257
 266 826 l 257
 260 793 l 257
 439 793 l 257
 237 60 l 258
 204 -60 161 -51 83 -51 c 257
 78 -86 l 257
EndSplineSet
EndChar

StartChar: foundryicon
Encoding: 65545 -1 225
Width: 1347
VWidth: 0
Flags: W
PickledData: "(dp1
S'com.typemytype.robofont.layerData'
p2
(dp3
S'b'
(dp4
S'name'
p5
S'foundryicon'
p6
sS'lib'
p7
(dp8
sS'unicodes'
p9
(tsS'width'
p10
I1347
sS'contours'
p11
(tsS'components'
p12
(tsS'anchors'
p13
(tsss."
LayerCount: 2
Fore
SplineSet
485 405 m 257
 485 672 l 257
 591 672 l 257
 761 523 l 257
 761 672 l 257
 867 672 l 257
 867 405 l 257
 761 405 l 257
 591 552 l 257
 591 405 l 257
 485 405 l 257
280 2 m 257
 669 278 l 257
 1066 2 l 257
 922 461 l 257
 1313 755 l 257
 828 755 l 257
 669 1215 l 257
 519 755 l 257
 34 755 l 257
 423 461 l 257
 280 2 l 257
EndSplineSet
EndChar

StartChar: four
Encoding: 52 52 226
Width: 1061
VWidth: 0
Flags: W
PickledData: "(dp1
S'com.typemytype.robofont.layerData'
p2
(dp3
S'b'
(dp4
S'name'
p5
S'four'
p6
sS'lib'
p7
(dp8
sS'unicodes'
p9
(tsS'width'
p10
I1061
sS'contours'
p11
(tsS'components'
p12
(tsS'anchors'
p13
(tsss."
LayerCount: 2
Fore
SplineSet
485 0 m 257
 861 0 l 257
 861 35 l 257
 696 35 l 257
 696 370 l 257
 912 370 l 257
 912 404 l 257
 696 404 l 257
 696 1152 l 257
 650 1152 l 257
 115 403 l 257
 124 370 l 257
 652 370 l 257
 652 35 l 257
 485 35 l 257
 485 0 l 257
161 404 m 257
 652 1094 l 257
 652 404 l 257
 161 404 l 257
EndSplineSet
EndChar

StartChar: foursuperior
Encoding: 8308 8308 227
Width: 718
VWidth: 0
Flags: W
PickledData: "(dp1
S'com.typemytype.robofont.layerData'
p2
(dp3
S'b'
(dp4
S'name'
p5
S'uni2074'
p6
sS'lib'
p7
(dp8
sS'unicodes'
p9
(tsS'width'
p10
I718
sS'contours'
p11
(tsS'components'
p12
(tsS'anchors'
p13
(tsss."
LayerCount: 2
Fore
SplineSet
330 348 m 257
 598 348 l 257
 598 382 l 257
 486 382 l 257
 486 604 l 257
 606 604 l 257
 606 638 l 257
 486 638 l 257
 486 1152 l 257
 445 1152 l 257
 85 631 l 257
 94 604 l 257
 442 604 l 257
 442 382 l 257
 330 382 l 257
 330 348 l 257
135 638 m 257
 442 1089 l 257
 442 638 l 257
 135 638 l 257
EndSplineSet
EndChar

StartChar: fraction
Encoding: 8260 8260 228
Width: 395
VWidth: 0
Flags: W
PickledData: "(dp1
S'com.typemytype.robofont.layerData'
p2
(dp3
S'b'
(dp4
S'name'
p5
S'fraction'
p6
sS'lib'
p7
(dp8
sS'unicodes'
p9
(tsS'width'
p10
I395
sS'contours'
p11
(tsS'components'
p12
(tsS'anchors'
p13
(tsss."
LayerCount: 2
Fore
SplineSet
0 -75 m 257
 38 -75 l 257
 395 1239 l 257
 357 1239 l 257
 0 -75 l 257
EndSplineSet
EndChar

StartChar: g
Encoding: 103 103 229
Width: 1002
VWidth: 0
Flags: W
PickledData: "(dp1
S'com.typemytype.robofont.layerData'
p2
(dp3
S'b'
(dp4
S'name'
p5
S'g'
sS'lib'
p6
(dp7
sS'unicodes'
p8
(tsS'width'
p9
I1002
sS'contours'
p10
((dp11
S'points'
p12
((dp13
S'segmentType'
p14
S'curve'
p15
sS'x'
I510
sS'smooth'
p16
I1
sS'y'
S'-333'
p17
s(dp18
S'y'
S'-333'
p19
sS'x'
I722
sg16
I0
s(dp20
S'y'
S'-225'
p21
sS'x'
I880
sg16
I0
s(dp22
g14
S'curve'
p23
sS'x'
I880
sg16
I0
sS'y'
I15
s(dp24
g14
S'line'
p25
sS'x'
I880
sg16
I0
sS'y'
I735
s(dp26
g14
S'line'
p27
sS'x'
I1005
sg16
I0
sS'y'
I735
s(dp28
g14
S'line'
p29
sS'x'
I1005
sg16
I0
sS'y'
I789
s(dp30
g14
S'line'
p31
sS'x'
I804
sg16
I0
sS'y'
I789
s(dp32
g14
S'line'
p33
sS'x'
I804
sg16
I0
sS'y'
I673
s(dp34
S'y'
I673
sS'x'
I804
sg16
I0
s(dp35
S'y'
S'-2'
p36
sS'x'
I804
sg16
I0
s(dp37
g14
S'curve'
p38
sS'x'
I804
sg16
I1
sS'y'
S'-2'
p39
s(dp40
S'y'
S'-173'
p41
sS'x'
I804
sg16
I0
s(dp42
S'y'
S'-271'
p43
sS'x'
I695
sg16
I0
s(dp44
g14
S'curve'
p45
sS'x'
I515
sg16
I1
sS'y'
S'-271'
p46
s(dp47
S'y'
S'-271'
p48
sS'x'
I444
sg16
I0
s(dp49
S'y'
S'-255'
p50
sS'x'
I362
sg16
I0
s(dp51
g14
S'curve'
p52
sS'x'
I272
sg16
I0
sS'y'
S'-224'
p53
s(dp54
g14
S'line'
p55
sS'x'
I257
sg16
I0
sS'y'
S'-289'
p56
s(dp57
S'y'
S'-318'
p58
sS'x'
I345
sg16
I0
s(dp59
S'y'
S'-333'
p60
sS'x'
I431
sg16
I0
stp61
stp62
sS'components'
p63
(tsS'anchors'
p64
(tsss."
AnchorPoint: "bot" 501 0 basechar 0
AnchorPoint: "top" 496 805 basechar 0
LayerCount: 2
Fore
SplineSet
477 -374 m 256
 710 -374 848 -261 848 -17 c 258
 848 771 l 257
 955 771 l 257
 955 805 l 257
 804 805 l 257
 804 -31 l 258
 804 -220 701 -340 480 -340 c 256
 405 -340 314 -326 200 -294 c 257
 193 -328 l 257
 298 -355 394 -374 477 -374 c 256
EndSplineSet
Refer: 271 -1 N 1 0 0 0.98 -74 15 2
EndChar

StartChar: germandbls
Encoding: 223 223 235
Width: 1096
VWidth: 0
Flags: W
PickledData: "(dp1
S'com.typemytype.robofont.layerData'
p2
(dp3
S'b'
(dp4
S'name'
p5
S'germandbls'
p6
sS'lib'
p7
(dp8
sS'unicodes'
p9
(tsS'width'
p10
I1096
sS'contours'
p11
(tsS'components'
p12
(tsS'anchors'
p13
(tsss."
LayerCount: 2
Fore
SplineSet
50 0 m 257
 370 0 l 257
 370 34 l 257
 248 34 l 257
 248 862 l 258
 248 1063 358 1182 545 1182 c 256
 729 1182 837 1098 837 957 c 256
 837 810 727 716 541 704 c 257
 541 670 l 257
 822 669 989 554 990 361 c 256
 991 155 814 34 514 34 c 257
 514 0 l 257
 841 0 1035 134 1035 361 c 256
 1035 575 875 698 604 690 c 257
 778 705 881 804 881 957 c 256
 881 1120 756 1216 545 1216 c 256
 331 1216 204 1083 204 857 c 258
 204 34 l 257
 50 34 l 257
 50 0 l 257
EndSplineSet
EndChar

StartChar: grave
Encoding: 96 96 236
Width: 50
VWidth: 0
Flags: W
PickledData: "(dp1
S'com.typemytype.robofont.layerData'
p2
(dp3
S'b'
(dp4
S'name'
p5
S'grave'
p6
sS'lib'
p7
(dp8
sS'unicodes'
p9
(tsS'width'
p10
I50
sS'contours'
p11
(tsS'components'
p12
(tsS'anchors'
p13
(tsss."
AnchorPoint: "top" 25 804 mark 0
LayerCount: 2
Fore
SplineSet
62 929 m 257
 78 929 l 257
 -9 1174 l 257
 -59 1174 l 257
 62 929 l 257
EndSplineSet
EndChar

StartChar: greater
Encoding: 62 62 237
Width: 896
VWidth: 0
Flags: W
PickledData: "(dp1
S'com.typemytype.robofont.layerData'
p2
(dp3
S'b'
(dp4
S'name'
p5
S'greater'
p6
sS'lib'
p7
(dp8
sS'unicodes'
p9
(tsS'width'
p10
I896
sS'contours'
p11
(tsS'components'
p12
(tsS'anchors'
p13
(tsss."
LayerCount: 2
Fore
SplineSet
141 108 m 257
 945 556 l 257
 945 575 l 257
 141 1031 l 257
 141 985 l 257
 892 566 l 257
 141 150 l 257
 141 108 l 257
EndSplineSet
EndChar

StartChar: greaterequal
Encoding: 8805 8805 238
Width: 595
VWidth: 0
Flags: W
PickledData: "(dp1
S'com.typemytype.robofont.layerData'
p2
(dp3
S'b'
(dp4
S'name'
p5
S'greaterequal'
p6
sS'lib'
p7
(dp8
sS'unicodes'
p9
(tsS'width'
p10
I595
sS'contours'
p11
(tsS'components'
p12
(tsS'anchors'
p13
(tsss."
LayerCount: 2
Fore
SplineSet
-1 182 m 257
 610 496 l 257
 610 519 l 257
 -1 836 l 257
 -1 793 l 257
 557 507 l 257
 -1 222 l 257
 -1 182 l 257
-1 0 m 257
 610 0 l 257
 610 33 l 257
 -1 33 l 257
 -1 0 l 257
EndSplineSet
EndChar

StartChar: guillemotleft
Encoding: 171 171 239
Width: 744
VWidth: 0
Flags: W
PickledData: "(dp1
S'com.typemytype.robofont.layerData'
p2
(dp3
S'b'
(dp4
S'name'
p5
S'guillemotleft'
p6
sS'lib'
p7
(dp8
sS'unicodes'
p9
(tsS'width'
p10
I744
sS'contours'
p11
(tsS'components'
p12
(tsS'anchors'
p13
(tsss."
LayerCount: 2
Fore
SplineSet
368 276 m 257
 397 276 l 257
 184 553 l 257
 397 826 l 257
 368 826 l 257
 104 553 l 257
 368 276 l 257
601 276 m 257
 630 276 l 257
 415 553 l 257
 630 826 l 257
 601 826 l 257
 336 553 l 257
 601 276 l 257
EndSplineSet
EndChar

StartChar: guillemotright
Encoding: 187 187 240
Width: 744
VWidth: 0
Flags: W
PickledData: "(dp1
S'com.typemytype.robofont.layerData'
p2
(dp3
S'b'
(dp4
S'name'
p5
S'guillemotright'
p6
sS'lib'
p7
(dp8
sS'unicodes'
p9
(tsS'width'
p10
I744
sS'contours'
p11
(tsS'components'
p12
(tsS'anchors'
p13
(tsss."
LayerCount: 2
Fore
SplineSet
145 276 m 257
 174 276 l 257
 438 553 l 257
 174 826 l 257
 145 826 l 257
 358 553 l 257
 145 276 l 257
377 276 m 257
 406 276 l 257
 671 553 l 257
 406 826 l 257
 377 826 l 257
 591 553 l 257
 377 276 l 257
EndSplineSet
EndChar

StartChar: guilsinglleft
Encoding: 8249 8249 241
Width: 405
VWidth: 0
Flags: W
PickledData: "(dp1
S'com.typemytype.robofont.layerData'
p2
(dp3
S'b'
(dp4
S'name'
p5
S'guilsinglleft'
p6
sS'lib'
p7
(dp8
sS'unicodes'
p9
(tsS'width'
p10
I405
sS'contours'
p11
(tsS'components'
p12
(tsS'anchors'
p13
(tsss."
LayerCount: 2
Fore
SplineSet
311 276 m 257
 340 276 l 257
 127 553 l 257
 340 826 l 257
 311 826 l 257
 48 553 l 257
 311 276 l 257
EndSplineSet
EndChar

StartChar: guilsinglright
Encoding: 8250 8250 242
Width: 405
VWidth: 0
Flags: W
PickledData: "(dp1
S'com.typemytype.robofont.layerData'
p2
(dp3
S'b'
(dp4
S'name'
p5
S'guilsinglright'
p6
sS'lib'
p7
(dp8
sS'unicodes'
p9
(tsS'width'
p10
I405
sS'contours'
p11
(tsS'components'
p12
(tsS'anchors'
p13
(tsss."
LayerCount: 2
Fore
SplineSet
76 276 m 257
 105 276 l 257
 369 553 l 257
 105 826 l 257
 76 826 l 257
 289 553 l 257
 76 276 l 257
EndSplineSet
EndChar

StartChar: hungarumlaut
Encoding: 733 733 246
Width: 356
VWidth: 0
Flags: W
PickledData: "(dp1
S'com.typemytype.robofont.layerData'
p2
(dp3
S'b'
(dp4
S'name'
p5
S'hungarumlaut'
p6
sS'lib'
p7
(dp8
sS'unicodes'
p9
(tsS'width'
p10
I356
sS'contours'
p11
(tsS'components'
p12
(tsS'anchors'
p13
(tsss."
AnchorPoint: "top" 178 804 mark 0
LayerCount: 2
Fore
SplineSet
17 905 m 257
 32 905 l 257
 113 1144 l 257
 63 1144 l 257
 17 905 l 257
206 905 m 257
 221 905 l 257
 303 1144 l 257
 252 1144 l 257
 206 905 l 257
EndSplineSet
EndChar

StartChar: hyphen
Encoding: 45 45 247
Width: 715
VWidth: 0
Flags: W
PickledData: "(dp1
S'com.typemytype.robofont.layerData'
p2
(dp3
S'b'
(dp4
S'name'
p5
S'hyphen'
p6
sS'lib'
p7
(dp8
sS'unicodes'
p9
(tsS'width'
p10
I715
sS'contours'
p11
(tsS'components'
p12
(tsS'anchors'
p13
(tsss."
AnchorPoint: "mid" 344 557 mark 0
LayerCount: 2
Fore
SplineSet
96 542 m 257
 619 542 l 257
 619 576 l 257
 96 576 l 257
 96 542 l 257
EndSplineSet
EndChar

StartChar: infinity
Encoding: 8734 8734 257
Width: 1244
VWidth: 0
Flags: W
PickledData: "(dp1
S'com.typemytype.robofont.layerData'
p2
(dp3
S'b'
(dp4
S'name'
p5
S'infinity'
p6
sS'lib'
p7
(dp8
sS'unicodes'
p9
(tsS'width'
p10
I1244
sS'contours'
p11
(tsS'components'
p12
(tsS'anchors'
p13
(tsss."
LayerCount: 2
Fore
SplineSet
371 283 m 256
 474 283 563 354 615 477 c 257
 668 354 757 283 860 283 c 256
 1007 283 1094 380 1094 544 c 256
 1094 708 1007 805 860 805 c 256
 771 805 682 736 616 618 c 257
 549 736 460 805 371 805 c 256
 224 805 137 708 137 544 c 256
 137 380 224 283 371 283 c 256
371 315 m 256
 258 315 192 400 192 544 c 256
 192 687 258 772 371 772 c 256
 456 772 542 699 603 561 c 257
 556 415 469 315 371 315 c 256
860 315 m 256
 762 315 675 398 628 544 c 257
 689 682 775 772 860 772 c 256
 973 772 1039 687 1039 544 c 256
 1039 400 973 315 860 315 c 256
EndSplineSet
EndChar

StartChar: integral
Encoding: 8747 8747 258
Width: 767
VWidth: 0
Flags: W
LayerCount: 2
Fore
SplineSet
55 -86 m 257
 135 -86 215.824 -100.412 257 49 c 258
 538 1069 l 258
 562 1155 616 1207 694 1207 c 256
 722 1207 753 1201 787 1186 c 257
 797 1219 l 257
 760 1236 722 1245 686 1245 c 256
 602 1245 527 1195 495 1078 c 258
 214 60 l 258
 181 -60 138 -51 60 -51 c 257
 55 -86 l 257
EndSplineSet
EndChar

StartChar: k
Encoding: 107 107 263
Width: 883
VWidth: 0
Flags: W
PickledData: "(dp1
S'com.typemytype.robofont.guides'
p2
((dp3
S'y'
I421
sS'x'
I474
sS'magnetic'
p4
I5
sS'angle'
p5
I0
sS'isGlobal'
p6
I0
stp7
sS'com.typemytype.robofont.layerData'
p8
(dp9
S'b'
(dp10
S'name'
p11
S'k'
sS'lib'
p12
(dp13
sS'unicodes'
p14
(tsS'width'
p15
I883
sS'contours'
p16
(tsS'components'
p17
(tsS'anchors'
p18
(tsss."
AnchorPoint: "top" 441.5 804 basechar 0
AnchorPoint: "bot" 462 0 basechar 0
LayerCount: 2
Fore
SplineSet
663 0 m 257
 861 0 l 257
 861 34 l 257
 688 34 l 257
 300 422 l 257
 713 770 l 257
 856 770 l 257
 856 804 l 257
 504 804 l 257
 504 770 l 257
 653 770 l 257
 238 423 l 257
 663 0 l 257
EndSplineSet
Refer: 268 -1 N 1 0 0 1 -38 0 2
EndChar

StartChar: kgreenlandic
Encoding: 312 312 265
Width: 994
VWidth: 0
Flags: W
PickledData: "(dp1
S'com.typemytype.robofont.layerData'
p2
(dp3
S'b'
(dp4
S'name'
p5
S'kgreenlandic'
p6
sS'lib'
p7
(dp8
sS'unicodes'
p9
(tsS'width'
p10
I994
sS'contours'
p11
(tsS'components'
p12
(tsS'anchors'
p13
(tsss."
LayerCount: 2
Fore
SplineSet
50 0 m 257
 508 0 l 257
 508 34 l 257
 293 34 l 257
 293 401 l 257
 767 34 l 257
 633 34 l 257
 633 0 l 257
 966 0 l 257
 966 34 l 257
 826 34 l 257
 336 415 l 257
 777 770 l 257
 927 770 l 257
 927 804 l 257
 595 804 l 257
 595 770 l 257
 721 770 l 257
 293 429 l 257
 293 804 l 257
 50 804 l 257
 50 770 l 257
 249 770 l 257
 249 34 l 257
 50 34 l 257
 50 0 l 257
EndSplineSet
EndChar

StartChar: lc_ascender_stem
Encoding: 65547 -1 268
Width: 1170
VWidth: 0
Flags: W
PickledData: "(dp1
S'com.typemytype.robofont.layerData'
p2
(dp3
S'b'
(dp4
S'name'
p5
S'lc_descender_stem'
p6
sS'lib'
p7
(dp8
sS'unicodes'
p9
(tsS'width'
p10
I1170
sS'contours'
p11
(tsS'components'
p12
(tsS'anchors'
p13
(tsss."
LayerCount: 2
Fore
SplineSet
92 0 m 257
 415 0 l 257
 415 34 l 257
 276 34 l 257
 276 1174 l 257
 100 1174 l 257
 100 1140 l 257
 232 1140 l 257
 232 34 l 257
 92 34 l 257
 92 0 l 257
EndSplineSet
EndChar

StartChar: lc_ascender_stem_1
Encoding: 65548 -1 269
Width: 1378
VWidth: 0
Flags: W
PickledData: "(dp1
S'com.typemytype.robofont.layerData'
p2
(dp3
S'b'
(dp4
S'name'
p5
S'lc_ascender_stem_1'
p6
sS'lib'
p7
(dp8
sS'unicodes'
p9
(tsS'width'
p10
I1378
sS'contours'
p11
(tsS'components'
p12
(tsS'anchors'
p13
(tsss."
LayerCount: 2
Fore
SplineSet
94 0 m 257
 278 0 l 257
 278 1174 l 257
 102 1174 l 257
 102 1140 l 257
 234 1140 l 257
 234 34 l 257
 94 34 l 257
 94 0 l 257
EndSplineSet
EndChar

StartChar: lc_ascender_stem_2
Encoding: 65549 -1 270
Width: 1378
VWidth: 0
Flags: W
PickledData: "(dp1
S'com.typemytype.robofont.layerData'
p2
(dp3
S'b'
(dp4
S'name'
p5
S'lc_descender_stem'
p6
sS'lib'
p7
(dp8
sS'unicodes'
p9
(tsS'width'
p10
I1378
sS'contours'
p11
(tsS'components'
p12
(tsS'anchors'
p13
(tsss."
LayerCount: 2
Fore
SplineSet
232 0 m 257
 415 0 l 257
 415 34 l 257
 276 34 l 257
 276 1174 l 257
 100 1174 l 257
 100 1140 l 257
 232 1140 l 257
 232 0 l 257
EndSplineSet
EndChar

StartChar: lc_bowl_left
Encoding: 65550 -1 271
Width: 1179
VWidth: 0
Flags: W
PickledData: "(dp1
S'com.typemytype.robofont.layerData'
p2
(dp3
S'b'
(dp4
S'name'
p5
S'lc_bowl_left'
p6
sS'lib'
p7
(dp8
sS'unicodes'
p9
(tsS'width'
p10
I1179
sS'contours'
p11
((dp12
S'points'
p13
((dp14
S'segmentType'
p15
S'line'
p16
sS'x'
I134
sS'smooth'
p17
I0
sS'y'
I121
s(dp18
S'y'
I36
sS'x'
I206
sg17
I0
s(dp19
S'y'
S'-16'
p20
sS'x'
I320
sg17
I0
s(dp21
g15
S'curve'
p22
sS'x'
I464
sg17
I1
sS'y'
S'-16'
p23
s(dp24
S'y'
S'-16'
p25
sS'x'
I739
sg17
I0
s(dp26
S'y'
I185
sS'x'
I886
sg17
I0
s(dp27
g15
S'curve'
p28
sS'x'
I886
sg17
I1
sS'y'
I387
s(dp29
S'y'
I573
sS'x'
I886
sg17
I0
s(dp30
S'y'
I817
sS'x'
I774
sg17
I0
s(dp31
g15
S'curve'
p32
sS'x'
I467
sg17
I1
sS'y'
I817
s(dp33
S'y'
I817
sS'x'
I309
sg17
I0
s(dp34
S'y'
I733
sS'x'
I179
sg17
I0
s(dp35
g15
S'curve'
p36
sS'x'
I134
sg17
I0
sS'y'
I684
s(dp37
g15
S'line'
p38
sS'x'
I134
sg17
I0
sS'y'
I618
s(dp39
S'y'
I725
sS'x'
I273
sg17
I0
s(dp40
S'y'
I753
sS'x'
I353
sg17
I0
s(dp41
g15
S'curve'
p42
sS'x'
I470
sg17
I1
sS'y'
I753
s(dp43
S'y'
I753
sS'x'
I701
sg17
I0
s(dp44
S'y'
I568
sS'x'
I810
sg17
I0
s(dp45
g15
S'curve'
p46
sS'x'
I810
sg17
I1
sS'y'
I395
s(dp47
S'y'
I204
sS'x'
I810
sg17
I0
s(dp48
S'y'
I48
sS'x'
I680
sg17
I0
s(dp49
g15
S'curve'
p50
sS'x'
I468
sg17
I1
sS'y'
I48
s(dp51
S'y'
I48
sS'x'
I346
sg17
I0
s(dp52
S'y'
I62
sS'x'
I263
sg17
I0
s(dp53
g15
S'curve'
p54
sS'x'
I134
sg17
I0
sS'y'
I194
stp55
stp56
sS'components'
p57
(tsS'anchors'
p58
(tsss."
LayerCount: 2
Fore
SplineSet
566 -22 m 256
 688 -22 809 27 897 116 c 257
 897 159 l 257
 797 59 689 12 564 12 c 256
 364 12 179 163 179 397 c 256
 179 633 342 792 538 792 c 256
 662 792 779 755 897 651 c 257
 897 689 l 257
 805 775 673 826 543 826 c 256
 335 826 134 679 137 397 c 256
 140 124 352 -22 566 -22 c 256
EndSplineSet
EndChar

StartChar: lc_bowl_right
Encoding: 65551 -1 272
Width: 1179
VWidth: 0
Flags: W
PickledData: "(dp1
S'com.typemytype.robofont.layerData'
p2
(dp3
S'b'
(dp4
S'name'
p5
S'lc_bowl_right'
p6
sS'lib'
p7
(dp8
sS'unicodes'
p9
(tsS'width'
p10
I1179
sS'contours'
p11
((dp12
S'points'
p13
((dp14
S'segmentType'
p15
S'line'
p16
sS'x'
I268
sS'smooth'
p17
I0
sS'y'
I121
s(dp18
S'y'
I36
sS'x'
I340
sg17
I0
s(dp19
S'y'
S'-16'
p20
sS'x'
I454
sg17
I0
s(dp21
g15
S'curve'
p22
sS'x'
I598
sg17
I1
sS'y'
S'-16'
p23
s(dp24
S'y'
S'-16'
p25
sS'x'
I873
sg17
I0
s(dp26
S'y'
I185
sS'x'
I1020
sg17
I0
s(dp27
g15
S'curve'
p28
sS'x'
I1020
sg17
I1
sS'y'
I387
s(dp29
S'y'
I573
sS'x'
I1020
sg17
I0
s(dp30
S'y'
I817
sS'x'
I908
sg17
I0
s(dp31
g15
S'curve'
p32
sS'x'
I601
sg17
I1
sS'y'
I817
s(dp33
S'y'
I817
sS'x'
I443
sg17
I0
s(dp34
S'y'
I733
sS'x'
I313
sg17
I0
s(dp35
g15
S'curve'
p36
sS'x'
I268
sg17
I0
sS'y'
I684
s(dp37
g15
S'line'
p38
sS'x'
I268
sg17
I0
sS'y'
I618
s(dp39
S'y'
I725
sS'x'
I407
sg17
I0
s(dp40
S'y'
I753
sS'x'
I487
sg17
I0
s(dp41
g15
S'curve'
p42
sS'x'
I604
sg17
I1
sS'y'
I753
s(dp43
S'y'
I753
sS'x'
I835
sg17
I0
s(dp44
S'y'
I568
sS'x'
I944
sg17
I0
s(dp45
g15
S'curve'
p46
sS'x'
I944
sg17
I1
sS'y'
I395
s(dp47
S'y'
I204
sS'x'
I944
sg17
I0
s(dp48
S'y'
I48
sS'x'
I814
sg17
I0
s(dp49
g15
S'curve'
p50
sS'x'
I602
sg17
I1
sS'y'
I48
s(dp51
S'y'
I48
sS'x'
I480
sg17
I0
s(dp52
S'y'
I62
sS'x'
I397
sg17
I0
s(dp53
g15
S'curve'
p54
sS'x'
I268
sg17
I0
sS'y'
I194
stp55
stp56
sS'components'
p57
(tsS'anchors'
p58
(tsss."
LayerCount: 2
Fore
SplineSet
596 -22 m 256
 816 -22 1021 132 1025 393 c 256
 1030 686 828 826 612 826 c 256
 481 826 365 777 267 692 c 257
 267 647 l 257
 398 757 506 792 619 792 c 256
 825 792 983 638 983 400 c 256
 983 195 836 12 599 12 c 256
 478 12 373 53 267 173 c 257
 267 124 l 257
 358 24 470 -22 596 -22 c 256
EndSplineSet
EndChar

StartChar: lc_descender_stem
Encoding: 65552 -1 273
Width: 1192
VWidth: 0
Flags: W
PickledData: "(dp1
S'com.typemytype.robofont.layerData'
p2
(dp3
S'b'
(dp4
S'name'
p5
S'lc_descender_stem'
p6
sS'lib'
p7
(dp8
sS'unicodes'
p9
(tsS'width'
p10
I1192
sS'contours'
p11
(tsS'components'
p12
(tsS'anchors'
p13
(tsss."
LayerCount: 2
Fore
SplineSet
103 -316 m 257
 421 -316 l 257
 421 -282 l 257
 287 -282 l 257
 288 682 l 257
 287 804 l 257
 119 804 l 257
 119 770 l 257
 243 770 l 257
 243 -282 l 257
 103 -282 l 257
 103 -316 l 257
EndSplineSet
EndChar

StartChar: lc_xheight_curved_stem
Encoding: 65553 -1 274
Width: 1142
VWidth: 0
Flags: W
PickledData: "(dp1
S'com.typemytype.robofont.layerData'
p2
(dp3
S'b'
(dp4
S'name'
p5
S'lc_xheight_curved_stem'
p6
sS'lib'
p7
(dp8
sS'unicodes'
p9
(tsS'width'
p10
I1142
sS'contours'
p11
((dp12
S'points'
p13
((dp14
S'segmentType'
p15
S'line'
p16
sS'x'
I351
sS'smooth'
p17
I0
sS'y'
I643
s(dp18
S'y'
I715
sS'x'
I455
sg17
I0
s(dp19
S'y'
I756
sS'x'
I545
sg17
I0
s(dp20
g15
S'curve'
p21
sS'x'
I675
sg17
I1
sS'y'
I756
s(dp22
S'y'
I756
sS'x'
I821
sg17
I0
s(dp23
S'y'
I676
sS'x'
I849
sg17
I0
s(dp24
g15
S'curve'
p25
sS'x'
I849
sg17
I1
sS'y'
I577
s(dp26
g15
S'line'
p27
sS'x'
I849
sg17
I0
sS'y'
I58
s(dp28
g15
S'line'
p29
sS'x'
I688
sg17
I0
sS'y'
I58
s(dp30
g15
S'line'
p31
sS'x'
I688
sg17
I0
sS'y'
I0
s(dp32
g15
S'line'
p33
sS'x'
I1073
sg17
I0
sS'y'
I0
s(dp34
g15
S'line'
p35
sS'x'
I1073
sg17
I0
sS'y'
I58
s(dp36
g15
S'line'
p37
sS'x'
I924
sg17
I0
sS'y'
I58
s(dp38
g15
S'line'
p39
sS'x'
I924
sg17
I1
sS'y'
I592
s(dp40
S'y'
I697
sS'x'
I924
sg17
I0
s(dp41
S'y'
I820
sS'x'
I866
sg17
I0
s(dp42
g15
S'curve'
p43
sS'x'
I682
sg17
I1
sS'y'
I820
s(dp44
S'y'
I820
sS'x'
I557
sg17
I0
s(dp45
S'y'
I789
sS'x'
I468
sg17
I0
s(dp46
g15
S'curve'
p47
sS'x'
I348
sg17
I0
sS'y'
I709
stp48
stp49
sS'components'
p50
(tsS'anchors'
p51
(tsss."
LayerCount: 2
Fore
SplineSet
707 0 m 257
 1085 0 l 257
 1085 34 l 257
 931 34 l 257
 931 582 l 258
 931 749 827 826 688 826 c 256
 572 826 448 778 311 694 c 257
 311 656 l 257
 478 750 574 790 683 790 c 256
 812 790 887 715 887 605 c 258
 887 34 l 257
 707 34 l 257
 707 0 l 257
EndSplineSet
EndChar

StartChar: lc_xheight_stem
Encoding: 65554 -1 275
Width: 1324
VWidth: 0
Flags: W
PickledData: "(dp1
S'com.typemytype.robofont.layerData'
p2
(dp3
S'b'
(dp4
S'name'
p5
S'lc_xheight_stem'
p6
sS'lib'
p7
(dp8
sS'unicodes'
p9
(tsS'width'
p10
I1324
sS'contours'
p11
(tsS'components'
p12
(tsS'anchors'
p13
(tsss."
LayerCount: 2
Fore
SplineSet
93 0 m 257
 494 0 l 257
 494 34 l 257
 318 34 l 257
 318 646 l 257
 318 804 l 257
 96 804 l 257
 96 770 l 257
 274 770 l 257
 274 34 l 257
 93 34 l 257
 93 0 l 257
EndSplineSet
EndChar

StartChar: less
Encoding: 60 60 279
Width: 896
VWidth: 0
Flags: W
PickledData: "(dp1
S'com.typemytype.robofont.layerData'
p2
(dp3
S'b'
(dp4
S'name'
p5
S'less'
p6
sS'lib'
p7
(dp8
sS'unicodes'
p9
(tsS'width'
p10
I896
sS'contours'
p11
(tsS'components'
p12
(tsS'anchors'
p13
(tsss."
LayerCount: 2
Fore
SplineSet
844 108 m 257
 844 150 l 257
 93 566 l 257
 844 985 l 257
 844 1031 l 257
 40 575 l 257
 40 556 l 257
 844 108 l 257
EndSplineSet
EndChar

StartChar: lessequal
Encoding: 8804 8804 280
Width: 593
VWidth: 0
Flags: W
PickledData: "(dp1
S'com.typemytype.robofont.layerData'
p2
(dp3
S'b'
(dp4
S'name'
p5
S'lessequal'
p6
sS'lib'
p7
(dp8
sS'unicodes'
p9
(tsS'width'
p10
I593
sS'contours'
p11
(tsS'components'
p12
(tsS'anchors'
p13
(tsss."
LayerCount: 2
Fore
SplineSet
607 182 m 257
 607 222 l 257
 48 507 l 257
 607 793 l 257
 607 836 l 257
 -4 519 l 257
 -4 496 l 257
 607 182 l 257
-4 0 m 257
 607 0 l 257
 607 33 l 257
 -4 33 l 257
 -4 0 l 257
EndSplineSet
EndChar

StartChar: logicalnot
Encoding: 172 172 281
Width: 851
VWidth: 0
Flags: W
PickledData: "(dp1
S'com.typemytype.robofont.layerData'
p2
(dp3
S'b'
(dp4
S'name'
p5
S'logicalnot'
p6
sS'lib'
p7
(dp8
sS'unicodes'
p9
(tsS'width'
p10
I851
sS'contours'
p11
(tsS'components'
p12
(tsS'anchors'
p13
(tsss."
LayerCount: 2
Fore
SplineSet
698 304 m 257
 738 304 l 257
 738 639 l 257
 101 639 l 257
 101 601 l 257
 698 601 l 257
 698 304 l 257
EndSplineSet
EndChar

StartChar: lozenge
Encoding: 9674 9674 282
Width: 948
VWidth: 0
Flags: W
PickledData: "(dp1
S'com.typemytype.robofont.layerData'
p2
(dp3
S'b'
(dp4
S'name'
p5
S'lozenge'
p6
sS'lib'
p7
(dp8
sS'unicodes'
p9
(tsS'width'
p10
I948
sS'contours'
p11
(tsS'components'
p12
(tsS'anchors'
p13
(tsss."
LayerCount: 2
Fore
SplineSet
455 -32 m 257
 494 -32 l 257
 910 630 l 257
 494 1295 l 257
 455 1295 l 257
 38 628 l 257
 455 -32 l 257
477 7 m 257
 103 630 l 257
 477 1254 l 257
 851 630 l 257
 477 7 l 257
EndSplineSet
EndChar

StartChar: lslash
Encoding: 322 322 283
Width: 506
VWidth: 0
Flags: W
PickledData: "(dp1
S'com.typemytype.robofont.layerData'
p2
(dp3
S'b'
(dp4
S'name'
p5
S'lslash'
p6
sS'lib'
p7
(dp8
sS'unicodes'
p9
(tsS'width'
p10
I506
sS'contours'
p11
(tsS'components'
p12
(tsS'anchors'
p13
(tsss."
LayerCount: 2
Fore
SplineSet
73 472 m 257
 413 691 l 257
 413 739 l 257
 72 518 l 257
 73 472 l 257
EndSplineSet
Refer: 266 108 N 1 0 0 1 0 0 2
EndChar

StartChar: macron
Encoding: 175 175 285
Width: 316
VWidth: 0
Flags: W
PickledData: "(dp1
S'com.typemytype.robofont.layerData'
p2
(dp3
S'b'
(dp4
S'name'
p5
S'macron'
p6
sS'lib'
p7
(dp8
sS'unicodes'
p9
(tsS'width'
p10
I316
sS'contours'
p11
(tsS'components'
p12
(tsS'anchors'
p13
(tsss."
AnchorPoint: "top" 158 804 mark 0
AnchorPoint: "mid" 161 970 mark 0
LayerCount: 2
Fore
SplineSet
-23 953 m 257
 346 953 l 257
 346 985 l 257
 -23 985 l 257
 -23 953 l 257
EndSplineSet
EndChar

StartChar: minus
Encoding: 8722 8722 287
Width: 1045
VWidth: 0
Flags: W
PickledData: "(dp1
S'com.typemytype.robofont.layerData'
p2
(dp3
S'b'
(dp4
S'name'
p5
S'minus'
p6
sS'lib'
p7
(dp8
sS'unicodes'
p9
(tsS'width'
p10
I1045
sS'contours'
p11
(tsS'components'
p12
(tsS'anchors'
p13
(tsss."
LayerCount: 2
Fore
SplineSet
153 530 m 257
 892 530 l 257
 892 574 l 257
 153 574 l 257
 153 530 l 257
EndSplineSet
EndChar

StartChar: mu
Encoding: 956 956 288
Width: 1022
VWidth: 0
Flags: W
LayerCount: 2
Fore
SplineSet
832 32 m 257
 832 804 l 257
 636 804 l 257
 636 770 l 257
 788 770 l 257
 788 133 l 257
 681 64 586 12 448 12 c 256
 308 12 249 108 249 204 c 258
 249 804 l 257
 46 804 l 257
 46 770 l 257
 205 770 l 257
 205 -233 l 257
 249 -233 l 257
 249 64.6388 l 257
 284.201 16.8165 345.405 -22 449 -22 c 256
 577 -22 687 30 791 101 c 257
 797 -1.57471e-06 l 257
 984 -1.57471e-06 l 257
 984 32 l 257
 832 32 l 257
EndSplineSet
EndChar

StartChar: multiply
Encoding: 215 215 289
Width: 520
VWidth: 0
Flags: W
PickledData: "(dp1
S'com.typemytype.robofont.layerData'
p2
(dp3
S'b'
(dp4
S'name'
p5
S'multiply'
p6
sS'lib'
p7
(dp8
sS'unicodes'
p9
(tsS'width'
p10
I520
sS'contours'
p11
(tsS'components'
p12
(tsS'anchors'
p13
(tsss."
LayerCount: 2
Fore
SplineSet
467 363 m 257
 495 391 l 257
 297 593 l 257
 495 795 l 257
 467 825 l 257
 266 623 l 257
 66 822 l 257
 37 794 l 257
 237 593 l 257
 37 393 l 257
 65 364 l 257
 266 565 l 257
 467 363 l 257
EndSplineSet
EndChar

StartChar: nine
Encoding: 57 57 295
Width: 1061
VWidth: 0
Flags: W
PickledData: "(dp1
S'com.typemytype.robofont.layerData'
p2
(dp3
S'b'
(dp4
S'name'
p5
S'nine'
p6
sS'lib'
p7
(dp8
sS'unicodes'
p9
(tsS'width'
p10
I1061
sS'contours'
p11
(tsS'components'
p12
(tsS'anchors'
p13
(tsss."
LayerCount: 2
Fore
SplineSet
449 -41 m 257
 844 668 l 258
 877 726 891 797 891 837 c 256
 891 1034 747 1174 543 1174 c 256
 329 1174 178 1034 178 837 c 256
 178 643 327 505 538 505 c 256
 628 505 726 547 752 578 c 257
 412 -22 l 257
 449 -41 l 257
538 541 m 256
 352 541 220 664 220 837 c 256
 220 1013 354 1138 543 1138 c 256
 722 1138 849 1013 849 837 c 256
 849 652 701 541 538 541 c 256
EndSplineSet
EndChar

StartChar: notequal
Encoding: 8800 8800 296
Width: 785
VWidth: 0
Flags: W
PickledData: "(dp1
S'com.typemytype.robofont.layerData'
p2
(dp3
S'b'
(dp4
S'name'
p5
S'notequal'
p6
sS'lib'
p7
(dp8
sS'unicodes'
p9
(tsS'width'
p10
I785
sS'contours'
p11
(tsS'components'
p12
(tsS'anchors'
p13
(tsss."
LayerCount: 2
Fore
SplineSet
285 178 m 257
 317 178 l 257
 365 362 l 257
 713 362 l 257
 713 396 l 257
 373 396 l 257
 446 676 l 257
 713 676 l 257
 713 710 l 257
 454 710 l 257
 501 890 l 257
 471 890 l 257
 424 710 l 257
 80 710 l 257
 80 676 l 257
 415 676 l 257
 342 396 l 257
 80 396 l 257
 80 362 l 257
 333 362 l 257
 285 178 l 257
EndSplineSet
EndChar

StartChar: numbersign
Encoding: 35 35 298
Width: 917
VWidth: 0
Flags: W
PickledData: "(dp1
S'com.typemytype.robofont.layerData'
p2
(dp3
S'b'
(dp4
S'name'
p5
S'numbersign'
p6
sS'lib'
p7
(dp8
sS'unicodes'
p9
(tsS'width'
p10
I917
sS'contours'
p11
(tsS'components'
p12
(tsS'anchors'
p13
(tsss."
LayerCount: 2
Fore
SplineSet
207 0 m 257
 242 0 l 257
 276 388 l 257
 630 388 l 257
 596 0 l 257
 631 0 l 257
 665 388 l 257
 806 388 l 257
 807 420 l 257
 668 420 l 257
 698 772 l 257
 836 772 l 257
 837 804 l 257
 701 804 l 257
 731 1152 l 257
 696 1152 l 257
 666 804 l 257
 312 804 l 257
 342 1152 l 257
 307 1152 l 257
 277 804 l 257
 126 804 l 257
 123 772 l 257
 274 772 l 257
 244 420 l 257
 96 420 l 257
 93 388 l 257
 241 388 l 257
 207 0 l 257
279 420 m 257
 309 772 l 257
 663 772 l 257
 633 420 l 257
 279 420 l 257
EndSplineSet
EndChar

StartChar: o
Encoding: 111 111 299
Width: 1000
VWidth: 0
Flags: W
PickledData: "(dp1
S'com.typemytype.robofont.layerData'
p2
(dp3
S'b'
(dp4
S'name'
p5
S'o'
sS'lib'
p6
(dp7
sS'unicodes'
p8
(tsS'width'
p9
I1000
sS'contours'
p10
(tsS'components'
p11
(tsS'anchors'
p12
(tsss."
AnchorPoint: "ogonek" 534 0 basechar 0
AnchorPoint: "bot" 500 0 basechar 0
AnchorPoint: "top" 495 805 basechar 0
LayerCount: 2
Fore
SplineSet
498 12 m 256
 276 12 112 179 112 408 c 256
 112 630 276 792 498 792 c 256
 724 792 888 630 888 408 c 256
 888 179 724 12 498 12 c 256
498 -22 m 256
 750 -22 930 155 930 408 c 256
 930 653 750 826 497 826 c 256
 247 826 70 652 70 406 c 256
 70 155 248 -22 498 -22 c 256
EndSplineSet
EndChar

StartChar: oe
Encoding: 339 339 304
Width: 1793
VWidth: 0
Flags: W
PickledData: "(dp1
S'com.typemytype.robofont.layerData'
p2
(dp3
S'b'
(dp4
S'name'
p5
S'oe'
p6
sS'lib'
p7
(dp8
sS'unicodes'
p9
(tsS'width'
p10
I1793
sS'contours'
p11
(tsS'components'
p12
(tsS'anchors'
p13
(tsss."
LayerCount: 2
Fore
SplineSet
491 -23 m 256
 692 -23 851 89 902 283 c 257
 948 87 1128 -22 1303 -22 c 256
 1422 -22 1553 25 1658 129 c 257
 1645 166 l 257
 1576 81 1432 12 1303 12 c 256
 1123 12 936 140 925 390 c 257
 1678 390 l 257
 1670 718 1460 826 1284 826 c 256
 1124 826 948 734 901 527 c 257
 856 716 691 825 491 825 c 256
 240 825 63 651 63 405 c 256
 63 154 241 -23 491 -23 c 256
491 11 m 256
 269 11 105 178 105 407 c 256
 105 629 269 791 491 791 c 256
 717 791 881 629 881 407 c 256
 881 178 717 11 491 11 c 256
924 424 m 257
 931 649 1091 792 1284 792 c 256
 1456 792 1614 678 1638 424 c 257
 924 424 l 257
EndSplineSet
EndChar

StartChar: ogonek
Encoding: 731 731 305
Width: 390
VWidth: 0
Flags: W
PickledData: "(dp1
S'com.typemytype.robofont.layerData'
p2
(dp3
S'b'
(dp4
S'name'
p5
S'ogonek'
p6
sS'lib'
p7
(dp8
sS'unicodes'
p9
(tsS'width'
p10
I390
sS'contours'
p11
(tsS'components'
p12
(tsS'anchors'
p13
(tsss."
AnchorPoint: "ogonek" 231 0 mark 0
LayerCount: 2
Fore
SplineSet
252 -251 m 256
 281 -251 310 -244 332 -230 c 257
 332 -213 l 257
 314 -221 293 -225 272 -225 c 256
 217 -225 162 -197 162 -134 c 256
 162 -100 182 -52 249 0 c 257
 223 0 l 257
 149 -54 121 -104 121 -146 c 256
 121 -217 188 -251 252 -251 c 256
EndSplineSet
EndChar

StartChar: one
Encoding: 49 49 309
Width: 740
VWidth: 0
Flags: W
PickledData: "(dp1
S'com.typemytype.robofont.layerData'
p2
(dp3
S'b'
(dp4
S'name'
p5
S'one'
p6
sS'lib'
p7
(dp8
sS'unicodes'
p9
(tsS'width'
p10
I740
sS'contours'
p11
(tsS'components'
p12
(tsS'anchors'
p13
(tsss."
LayerCount: 2
Fore
SplineSet
226 0 m 257
 597 0 l 257
 597 36 l 257
 437 36 l 257
 437 1154 l 257
 233 1091 l 257
 248 1055 l 257
 393 1101 l 257
 393 36 l 257
 226 36 l 257
 226 0 l 257
EndSplineSet
EndChar

StartChar: onehalf
Encoding: 189 189 310
Width: 1678
VWidth: 0
Flags: W
LayerCount: 2
Fore
SplineSet
1095 0 m 257
 1547 0 l 257
 1547 34 l 257
 1146 34 l 257
 1420 363 l 258
 1492 450 1548 517 1548 619 c 256
 1548 749 1461 826 1315 826 c 256
 1170 826 1085 742 1085 600 c 256
 1085 573 1091 536 1100 499 c 257
 1144 499 l 257
 1135 532 1130 570 1130 600 c 256
 1130 721 1199 792 1315 792 c 256
 1435 792 1506 727 1506 616 c 256
 1506 538 1466 481 1393 392 c 258
 1095 32 l 257
 1095 0 l 257
110 348 m 257
 397 348 l 257
 397 382 l 257
 275 382 l 257
 275 1152 l 257
 110 1152 l 257
 111 1118 l 257
 231 1118 l 257
 231 382 l 257
 110 382 l 257
 110 348 l 257
368 0 m 257
 415 0 l 257
 1171 1152 l 257
 1125 1152 l 257
 368 0 l 257
EndSplineSet
EndChar

StartChar: onequarter
Encoding: 188 188 311
Width: 1429
VWidth: 0
Flags: W
PickledData: "(dp1
S'com.typemytype.robofont.layerData'
p2
(dp3
S'b'
(dp4
S'name'
p5
S'onequarter'
p6
sS'lib'
p7
(dp8
sS'unicodes'
p9
(tsS'width'
p10
I1429
sS'contours'
p11
(tsS'components'
p12
(tsS'anchors'
p13
(tsss."
LayerCount: 2
Fore
SplineSet
1119 0 m 257
 1387 0 l 257
 1387 34 l 257
 1275 34 l 257
 1275 256 l 257
 1395 256 l 257
 1395 290 l 257
 1275 290 l 257
 1275 804 l 257
 1234 804 l 257
 874 283 l 257
 883 256 l 257
 1231 256 l 257
 1231 34 l 257
 1119 34 l 257
 1119 0 l 257
90 348 m 257
 377 348 l 257
 377 382 l 257
 255 382 l 257
 255 1152 l 257
 90 1152 l 257
 91 1118 l 257
 211 1118 l 257
 211 382 l 257
 90 382 l 257
 90 348 l 257
348 0 m 257
 395 0 l 257
 1151 1152 l 257
 1105 1152 l 257
 348 0 l 257
924 290 m 257
 1231 741 l 257
 1231 290 l 257
 924 290 l 257
EndSplineSet
EndChar

StartChar: onesuperior
Encoding: 185 185 312
Width: 531
VWidth: 0
Flags: W
PickledData: "(dp1
S'com.typemytype.robofont.layerData'
p2
(dp3
S'b'
(dp4
S'name'
p5
S'uni00B9'
p6
sS'lib'
p7
(dp8
sS'unicodes'
p9
(tsS'width'
p10
I531
sS'contours'
p11
(tsS'components'
p12
(tsS'anchors'
p13
(tsss."
LayerCount: 2
Fore
SplineSet
143 348 m 257
 430 348 l 257
 430 382 l 257
 308 382 l 257
 308 1152 l 257
 143 1152 l 257
 144 1118 l 257
 264 1118 l 257
 264 382 l 257
 143 382 l 257
 143 348 l 257
EndSplineSet
EndChar

StartChar: ordfeminine
Encoding: 170 170 313
Width: 801
VWidth: 0
Flags: W
PickledData: "(dp1
S'com.typemytype.robofont.layerData'
p2
(dp3
S'b'
(dp4
S'name'
p5
S'ordfeminine'
p6
sS'lib'
p7
(dp8
sS'unicodes'
p9
(tsS'width'
p10
I801
sS'contours'
p11
(tsS'components'
p12
(tsS'anchors'
p13
(tsss."
LayerCount: 2
Fore
SplineSet
362 572 m 256
 438 572 505 593 566 635 c 257
 570 584 l 257
 711 584 l 257
 711 618 l 257
 610 618 l 257
 610 990 l 258
 610 1114 544 1174 409 1174 c 256
 310 1174 237 1153 187 1109 c 257
 204 1075 l 257
 250 1120 317 1142 409 1142 c 256
 514 1142 566 1088 566 979 c 258
 566 903 l 257
 497 912 448 917 418 917 c 256
 244 917 159 860 159 745 c 256
 159 629 226 572 362 572 c 256
362 606 m 256
 255 606 203 651 203 744 c 256
 203 837 274 883 418 883 c 256
 453 883 502 880 566 873 c 257
 566 675 l 257
 512 629 445 606 362 606 c 256
EndSplineSet
EndChar

StartChar: ordmasculine
Encoding: 186 186 314
Width: 809
VWidth: 0
Flags: W
PickledData: "(dp1
S'com.typemytype.robofont.layerData'
p2
(dp3
S'b'
(dp4
S'name'
p5
S'ordmasculine'
p6
sS'lib'
p7
(dp8
sS'unicodes'
p9
(tsS'width'
p10
I809
sS'contours'
p11
(tsS'components'
p12
(tsS'anchors'
p13
(tsss."
LayerCount: 2
Fore
SplineSet
403 591 m 256
 258 591 155 706 155 868 c 256
 155 1027 258 1140 403 1140 c 256
 548 1140 651 1027 651 868 c 256
 651 706 548 591 403 591 c 256
403 557 m 256
 574 557 695 686 695 868 c 256
 695 1047 574 1174 403 1174 c 256
 232 1174 111 1047 111 868 c 256
 111 686 232 557 403 557 c 256
EndSplineSet
EndChar

StartChar: oslash
Encoding: 248 248 315
Width: 1023
VWidth: 0
Flags: W
PickledData: "(dp1
S'com.typemytype.robofont.layerData'
p2
(dp3
S'b'
(dp4
S'name'
p5
S'oslash'
p6
sS'lib'
p7
(dp8
sS'unicodes'
p9
(tsS'width'
p10
I1023
sS'contours'
p11
(tsS'components'
p12
(tsS'anchors'
p13
(tsss."
LayerCount: 2
Fore
SplineSet
166 -193 m 257
 869 979 l 257
 849 995 l 257
 147 -176 l 257
 166 -193 l 257
EndSplineSet
Refer: 299 111 N 1 0 0 1 0 0 2
EndChar

StartChar: paragraph
Encoding: 182 182 319
Width: 953
VWidth: 0
Flags: W
PickledData: "(dp1
S'com.typemytype.robofont.layerData'
p2
(dp3
S'b'
(dp4
S'name'
p5
S'paragraph'
p6
sS'lib'
p7
(dp8
sS'unicodes'
p9
(tsS'width'
p10
I953
sS'contours'
p11
(tsS'components'
p12
(tsS'anchors'
p13
(tsss."
LayerCount: 2
Fore
SplineSet
488 0 m 257
 837 0 l 257
 837 35 l 257
 698 35 l 257
 698 1123 l 257
 860 1123 l 257
 860 1152 l 257
 406 1152 l 258
 207 1152 115 1023 115 930 c 256
 115 826 205 688 414 690 c 258
 654 690 l 257
 654 35 l 257
 488 35 l 257
 488 0 l 257
477 737 m 257
 477 1123 l 257
 654 1123 l 257
 654 737 l 257
 477 737 l 257
EndSplineSet
EndChar

StartChar: parenleft
Encoding: 40 40 320
Width: 500
VWidth: 0
Flags: W
PickledData: "(dp1
S'com.typemytype.robofont.layerData'
p2
(dp3
S'b'
(dp4
S'name'
p5
S'parenleft'
p6
sS'lib'
p7
(dp8
sS'unicodes'
p9
(tsS'width'
p10
I500
sS'contours'
p11
(tsS'components'
p12
(tsS'anchors'
p13
(tsss."
LayerCount: 2
Fore
SplineSet
474 -114 m 257
 476 -88 l 257
 252 5 140 268 140 531 c 256
 140 794 252 1057 476 1149 c 257
 474 1174 l 257
 223 1086 97 807 97 529 c 256
 97 250 223 -28 474 -114 c 257
EndSplineSet
EndChar

StartChar: parenright
Encoding: 41 41 321
Width: 501
VWidth: 0
Flags: W
PickledData: "(dp1
S'com.typemytype.robofont.layerData'
p2
(dp3
S'b'
(dp4
S'name'
p5
S'parenright'
p6
sS'lib'
p7
(dp8
sS'unicodes'
p9
(tsS'width'
p10
I501
sS'contours'
p11
(tsS'components'
p12
(tsS'anchors'
p13
(tsss."
LayerCount: 2
Fore
SplineSet
84 -114 m 257
 336 -28 462 250 462 529 c 256
 462 807 336 1086 84 1174 c 257
 82 1149 l 257
 306 1057 419 794 419 531 c 256
 419 268 306 5 82 -88 c 257
 84 -114 l 257
EndSplineSet
EndChar

StartChar: partialdiff
Encoding: 8706 8706 322
Width: 930
VWidth: 0
Flags: W
LayerCount: 2
Fore
SplineSet
428 -22 m 256
 681 -22 830 180 830 522 c 256
 830 919 681 1174 430 1174 c 256
 332 1174 238 1142 150 1102 c 257
 163 1070 l 257
 256 1113 351 1140 430 1140 c 256
 644 1140 767 924 784 608 c 257
 359 608 156 436 156 210 c 256
 156 64 257 -22 428 -22 c 256
428 12 m 256
 285 12 200 85 200 209 c 256
 200 438 420 574 787 574 c 257
 788 556 789 493 789 522 c 257
 789 208 653 12 428 12 c 256
EndSplineSet
EndChar

StartChar: percent
Encoding: 37 37 323
Width: 1578
VWidth: 0
Flags: W
PickledData: "(dp1
S'com.typemytype.robofont.layerData'
p2
(dp3
S'b'
(dp4
S'name'
p5
S'percent'
p6
sS'lib'
p7
(dp8
sS'unicodes'
p9
(tsS'width'
p10
I1578
sS'contours'
p11
(tsS'components'
p12
(tsS'anchors'
p13
(tsss."
LayerCount: 2
Fore
SplineSet
390 642 m 256
 244 642 141 746 141 893 c 256
 141 1038 244 1140 390 1140 c 256
 537 1140 641 1038 641 893 c 256
 641 746 537 642 390 642 c 256
390 608 m 256
 563 608 685 726 685 893 c 256
 685 1058 563 1174 390 1174 c 256
 218 1174 97 1058 97 893 c 256
 97 726 218 608 390 608 c 256
300 -34 m 257
 1325 1199 l 257
 1299 1222 l 257
 274 -11 l 257
 300 -34 l 257
1171 12 m 256
 1025 12 922 116 922 263 c 256
 922 408 1025 510 1171 510 c 256
 1318 510 1422 408 1422 263 c 256
 1422 116 1318 12 1171 12 c 256
1171 -22 m 256
 1344 -22 1466 96 1466 263 c 256
 1466 428 1344 544 1171 544 c 256
 999 544 878 428 878 263 c 256
 878 96 999 -22 1171 -22 c 256
EndSplineSet
EndChar

StartChar: period
Encoding: 46 46 324
Width: 452
VWidth: 0
Flags: W
PickledData: "(dp1
S'com.typemytype.robofont.layerData'
p2
(dp3
S'b'
(dp4
S'name'
p5
S'period'
p6
sS'lib'
p7
(dp8
sS'unicodes'
p9
(tsS'width'
p10
I452
sS'contours'
p11
(tsS'components'
p12
(tsS'anchors'
p13
(tsss."
LayerCount: 2
Fore
SplineSet
197 0 m 257
 268 0 l 257
 268 84 l 257
 197 84 l 257
 197 0 l 257
EndSplineSet
EndChar

StartChar: periodcentered
Encoding: 183 183 325
Width: 453
VWidth: 0
Flags: W
PickledData: "(dp1
S'com.typemytype.robofont.layerData'
p2
(dp3
S'b'
(dp4
S'name'
p5
S'periodcentered'
p6
sS'lib'
p7
(dp8
sS'unicodes'
p9
(tsS'width'
p10
I453
sS'contours'
p11
(tsS'components'
p12
(tsS'anchors'
p13
(tsss."
AnchorPoint: "mid" 1 835 mark 0
LayerCount: 2
Fore
SplineSet
197 795 m 257
 270 795 l 257
 270 878 l 257
 197 878 l 257
 197 795 l 257
EndSplineSet
EndChar

StartChar: perthousand
Encoding: 8240 8240 326
Width: 2272
VWidth: 0
Flags: W
LayerCount: 2
Fore
SplineSet
1893 12 m 256
 1747 12 1644 116 1644 263 c 256
 1644 408 1747 510 1893 510 c 256
 2040 510 2144 408 2144 263 c 256
 2144 116 2040 12 1893 12 c 256
1893 -22 m 256
 2066 -22 2188 96 2188 263 c 256
 2188 428 2066 544 1893 544 c 256
 1721 544 1600 428 1600 263 c 256
 1600 96 1721 -22 1893 -22 c 256
EndSplineSet
Refer: 323 37 N 1 0 0 1 0 0 2
EndChar

StartChar: pi
Encoding: 960 960 327
Width: 1024
VWidth: 0
Flags: W
LayerCount: 2
Fore
SplineSet
866 -7 m 256
 895 -7 923 1 948 13 c 257
 948 49 l 257
 921 38 896 32 875 32 c 256
 776 32 739 107 739 253 c 256
 739 376 765 548 802 768 c 257
 970 768 l 257
 970 804 l 257
 304 804 l 258
 205 804 177 723 177 636 c 257
 214 636 l 257
 218 691 251 768 303 768 c 258
 410 768 l 257
 332 220 l 258
 313 86 283 30 130 30 c 257
 130 -4 l 257
 319 -4 366 36 384 215 c 258
 441 768 l 257
 774 768 l 257
 727 542 692 359 692 227 c 256
 692 76 738 -7 866 -7 c 256
EndSplineSet
EndChar

StartChar: plus
Encoding: 43 43 328
Width: 798
VWidth: 0
Flags: W
PickledData: "(dp1
S'com.typemytype.robofont.layerData'
p2
(dp3
S'b'
(dp4
S'name'
p5
S'plus'
p6
sS'lib'
p7
(dp8
sS'unicodes'
p9
(tsS'width'
p10
I798
sS'contours'
p11
(tsS'components'
p12
(tsS'anchors'
p13
(tsss."
LayerCount: 2
Fore
SplineSet
382 156 m 257
 419 156 l 257
 419 558 l 257
 754 558 l 257
 754 592 l 257
 419 592 l 257
 419 977 l 257
 382 977 l 257
 382 592 l 257
 44 592 l 257
 44 558 l 257
 382 558 l 257
 382 156 l 257
EndSplineSet
EndChar

StartChar: plusminus
Encoding: 177 177 329
Width: 823
VWidth: 0
Flags: W
PickledData: "(dp1
S'com.typemytype.robofont.layerData'
p2
(dp3
S'b'
(dp4
S'name'
p5
S'plusminus'
p6
sS'lib'
p7
(dp8
sS'unicodes'
p9
(tsS'width'
p10
I823
sS'contours'
p11
(tsS'components'
p12
(tsS'anchors'
p13
(tsss."
LayerCount: 2
Fore
SplineSet
395 76 m 257
 432 76 l 257
 432 479 l 257
 779 479 l 257
 779 520 l 257
 432 520 l 257
 432 906 l 257
 395 906 l 257
 395 520 l 257
 47 520 l 257
 47 479 l 257
 395 479 l 257
 395 76 l 257
44 0 m 257
 776 0 l 257
 776 38 l 257
 44 38 l 257
 44 0 l 257
EndSplineSet
EndChar

StartChar: product
Encoding: 8719 8719 330
Width: 1305
VWidth: 0
Flags: W
PickledData: "(dp1
S'com.typemytype.robofont.layerData'
p2
(dp3
S'b'
(dp4
S'name'
p5
S'product'
p6
sS'lib'
p7
(dp8
sS'unicodes'
p9
(tsS'width'
p10
I1305
sS'contours'
p11
(tsS'components'
p12
(tsS'anchors'
p13
(tsss."
LayerCount: 2
Fore
SplineSet
116 0 m 257
 454 0 l 257
 454 36 l 257
 306 36 l 257
 306 1117 l 257
 999 1117 l 257
 999 36 l 257
 851 36 l 257
 851 0 l 257
 1189 0 l 257
 1189 36 l 257
 1041 36 l 257
 1041 1117 l 257
 1189 1117 l 257
 1189 1152 l 257
 116 1152 l 257
 116 1117 l 257
 264 1117 l 257
 264 36 l 257
 116 36 l 257
 116 0 l 257
EndSplineSet
EndChar

StartChar: q
Encoding: 113 113 331
Width: 1032
VWidth: 0
Flags: W
PickledData: "(dp1
S'com.typemytype.robofont.layerData'
p2
(dp3
S'b'
(dp4
S'name'
p5
S'q'
sS'lib'
p6
(dp7
sS'unicodes'
p8
(tsS'width'
p9
F1032.0329999999999
sS'contours'
p10
(tsS'components'
p11
(tsS'anchors'
p12
(tsss."
LayerCount: 2
Fore
SplineSet
665 -330 m 257
 982 -330 l 257
 982 -296 l 257
 844 -296 l 257
 844 770 l 257
 973 770 l 257
 973 804 l 257
 806 804 l 257
 800 684 l 257
 800 -296 l 257
 665 -296 l 257
 665 -330 l 257
EndSplineSet
Refer: 271 -1 N 1 0 0 1 -67 0 2
EndChar

StartChar: question
Encoding: 63 63 332
Width: 629
VWidth: 0
Flags: W
PickledData: "(dp1
S'com.typemytype.robofont.layerData'
p2
(dp3
S'b'
(dp4
S'name'
p5
S'question'
p6
sS'lib'
p7
(dp8
sS'unicodes'
p9
(tsS'width'
p10
I629
sS'contours'
p11
(tsS'components'
p12
(tsS'anchors'
p13
(tsss."
LayerCount: 2
Fore
SplineSet
268 279 m 257
 283 279 l 257
 295 484.5 374.25 573.25 451.375 647 c 256
 528.5 720.75 603.5 779.5 607 925 c 256
 611 1095 492 1196 297 1196 c 256
 179 1196 75 1142 17 1050 c 257
 46 1027 l 257
 93 1112 186 1162 297 1162 c 256
 462 1162 563 1076 563 929 c 256
 563 788 489.25 730.5 415.5 655.75 c 256
 341.75 581 268 489 268 279 c 257
254 -28 m 257
 316 -28 l 257
 316 25 l 257
 254 25 l 257
 254 -28 l 257
EndSplineSet
EndChar

StartChar: quotedbl
Encoding: 34 34 334
Width: 514
VWidth: 0
Flags: W
PickledData: "(dp1
S'com.typemytype.robofont.layerData'
p2
(dp3
S'b'
(dp4
S'name'
p5
S'quotedbl'
p6
sS'lib'
p7
(dp8
sS'unicodes'
p9
(tsS'width'
p10
I514
sS'contours'
p11
(tsS'components'
p12
(tsS'anchors'
p13
(tsss."
LayerCount: 2
Fore
SplineSet
181 844 m 257
 202 844 l 257
 216 1174 l 257
 167 1174 l 257
 181 844 l 257
342 844 m 257
 362 844 l 257
 377 1174 l 257
 328 1174 l 257
 342 844 l 257
EndSplineSet
EndChar

StartChar: quotedblbase
Encoding: 8222 8222 335
Width: 652
VWidth: 0
Flags: W
PickledData: "(dp1
S'com.typemytype.robofont.layerData'
p2
(dp3
S'b'
(dp4
S'name'
p5
S'quotedblbase'
p6
sS'lib'
p7
(dp8
sS'unicodes'
p9
(tsS'width'
p10
I652
sS'contours'
p11
(tsS'components'
p12
(tsS'anchors'
p13
(tsss."
LayerCount: 2
Fore
SplineSet
190 -147 m 257
 270 -146 292 -81 292 -8 c 258
 292 78 l 257
 212 78 l 257
 212 -6 l 257
 255 -6 l 257
 254 -83 249 -107 190 -130 c 257
 190 -147 l 257
382 -147 m 257
 461 -146 484 -81 484 -8 c 258
 484 78 l 257
 404 78 l 257
 404 -6 l 257
 445 -6 l 257
 445 -84 441 -107 382 -130 c 257
 382 -147 l 257
EndSplineSet
EndChar

StartChar: quotedblleft
Encoding: 8220 8220 336
Width: 642
VWidth: 0
Flags: W
PickledData: "(dp1
S'com.typemytype.robofont.layerData'
p2
(dp3
S'b'
(dp4
S'name'
p5
S'quotedblleft'
p6
sS'lib'
p7
(dp8
sS'unicodes'
p9
(tsS'width'
p10
I642
sS'contours'
p11
(tsS'components'
p12
(tsS'anchors'
p13
(tsss."
LayerCount: 2
Fore
SplineSet
169 972 m 257
 249 972 l 257
 249 1056 l 257
 208 1056 l 257
 208 1134 212 1157 271 1180 c 257
 271 1197 l 257
 192 1196 169 1131 169 1058 c 258
 169 972 l 257
361 972 m 257
 441 972 l 257
 441 1056 l 257
 398 1056 l 257
 399 1133 404 1157 463 1180 c 257
 463 1197 l 257
 383 1196 361 1131 361 1058 c 258
 361 972 l 257
EndSplineSet
EndChar

StartChar: quotedblright
Encoding: 8221 8221 337
Width: 649
VWidth: 0
Flags: W
PickledData: "(dp1
S'com.typemytype.robofont.layerData'
p2
(dp3
S'b'
(dp4
S'name'
p5
S'quotedblright'
p6
sS'lib'
p7
(dp8
sS'unicodes'
p9
(tsS'width'
p10
I649
sS'contours'
p11
(tsS'components'
p12
(tsS'anchors'
p13
(tsss."
LayerCount: 2
Fore
SplineSet
180 949 m 257
 260 950 282 1015 282 1088 c 258
 282 1174 l 257
 202 1174 l 257
 202 1090 l 257
 245 1090 l 257
 244 1013 239 989 180 966 c 257
 180 949 l 257
372 949 m 257
 451 950 474 1015 474 1088 c 258
 474 1174 l 257
 394 1174 l 257
 394 1090 l 257
 435 1090 l 257
 435 1012 431 989 372 966 c 257
 372 949 l 257
EndSplineSet
EndChar

StartChar: quoteleft
Encoding: 8216 8216 338
Width: 399
VWidth: 0
Flags: W
PickledData: "(dp1
S'com.typemytype.robofont.layerData'
p2
(dp3
S'b'
(dp4
S'name'
p5
S'quoteleft'
p6
sS'lib'
p7
(dp8
sS'unicodes'
p9
(tsS'width'
p10
I399
sS'contours'
p11
(tsS'components'
p12
(tsS'anchors'
p13
(tsss."
LayerCount: 2
Fore
SplineSet
154 989 m 257
 234 989 l 257
 234 1073 l 257
 191 1073 l 257
 192 1150 197 1174 256 1197 c 257
 256 1214 l 257
 176 1213 154 1148 154 1075 c 258
 154 989 l 257
EndSplineSet
EndChar

StartChar: quoteright
Encoding: 8217 8217 339
Width: 409
VWidth: 0
Flags: W
PickledData: "(dp1
S'com.typemytype.robofont.layerData'
p2
(dp3
S'b'
(dp4
S'name'
p5
S'quoteright'
p6
sS'lib'
p7
(dp8
sS'unicodes'
p9
(tsS'width'
p10
I409
sS'contours'
p11
(tsS'components'
p12
(tsS'anchors'
p13
(tsss."
LayerCount: 2
Fore
SplineSet
155 949 m 257
 235 950 257 1015 257 1088 c 258
 257 1174 l 257
 177 1174 l 257
 177 1090 l 257
 220 1090 l 257
 219 1013 214 989 155 966 c 257
 155 949 l 257
EndSplineSet
EndChar

StartChar: quotesinglbase
Encoding: 8218 8218 340
Width: 403
VWidth: 0
Flags: W
PickledData: "(dp1
S'com.typemytype.robofont.layerData'
p2
(dp3
S'b'
(dp4
S'name'
p5
S'quotesinglbase'
p6
sS'lib'
p7
(dp8
sS'unicodes'
p9
(tsS'width'
p10
I403
sS'contours'
p11
(tsS'components'
p12
(tsS'anchors'
p13
(tsss."
LayerCount: 2
Fore
SplineSet
170 -147 m 257
 250 -146 272 -81 272 -8 c 258
 272 78 l 257
 192 78 l 257
 192 -6 l 257
 235 -6 l 257
 234 -83 229 -107 170 -130 c 257
 170 -147 l 257
EndSplineSet
EndChar

StartChar: quotesingle
Encoding: 39 39 341
Width: 239
VWidth: 0
Flags: W
PickledData: "(dp1
S'com.typemytype.robofont.layerData'
p2
(dp3
S'b'
(dp4
S'name'
p5
S'quotesingle'
p6
sS'lib'
p7
(dp8
sS'unicodes'
p9
(tsS'width'
p10
I239
sS'contours'
p11
(tsS'components'
p12
(tsS'anchors'
p13
(tsss."
LayerCount: 2
Fore
SplineSet
121 844 m 257
 142 844 l 257
 156 1174 l 257
 107 1174 l 257
 121 844 l 257
EndSplineSet
EndChar

StartChar: r
Encoding: 114 114 342
Width: 678
VWidth: 0
Flags: W
PickledData: "(dp1
S'com.typemytype.robofont.layerData'
p2
(dp3
S'b'
(dp4
S'name'
p5
S'r'
sS'lib'
p6
(dp7
sS'unicodes'
p8
(tsS'width'
p9
I678
sS'contours'
p10
((dp11
S'points'
p12
((dp13
S'segmentType'
p14
S'line'
p15
sS'x'
I338
sS'smooth'
p16
I0
sS'y'
I449
s(dp17
S'y'
I643
sS'x'
I338
sg16
I0
s(dp18
S'y'
I756
sS'x'
I441
sg16
I0
s(dp19
g14
S'curve'
p20
sS'x'
I570
sg16
I1
sS'y'
I756
s(dp21
S'y'
I756
sS'x'
I614
sg16
I0
s(dp22
S'y'
I742
sS'x'
I651
sg16
I0
s(dp23
g14
S'curve'
p24
sS'x'
I704
sg16
I0
sS'y'
I716
s(dp25
g14
S'line'
p26
sS'x'
I722
sg16
I0
sS'y'
I784
s(dp27
S'y'
I810
sS'x'
I664
sg16
I0
s(dp28
S'y'
I820
sS'x'
I622
sg16
I0
s(dp29
g14
S'curve'
p30
sS'x'
I575
sg16
I1
sS'y'
I820
s(dp31
S'y'
I820
sS'x'
I467
sg16
I0
s(dp32
S'y'
I769
sS'x'
I381
sg16
I0
s(dp33
g14
S'curve'
p34
sS'x'
I316
sg16
I0
sS'y'
I582
stp35
stp36
sS'components'
p37
(tsS'anchors'
p38
(tsss."
AnchorPoint: "top" 407 804 basechar 0
AnchorPoint: "bot" 267 0 basechar 0
LayerCount: 2
Fore
SplineSet
282 467 m 257
 282 670 382 791 492 791 c 256
 547 791 582 778 624 755 c 257
 633 787 l 257
 588 813 544 825 489 825 c 256
 391 825 289 755 258 549 c 257
 282 467 l 257
EndSplineSet
Refer: 275 -1 N 1 0 0 1 -38 0 2
EndChar

StartChar: radical
Encoding: 8730 8730 344
Width: 1118
VWidth: 0
Flags: W
PickledData: "(dp1
S'com.typemytype.robofont.layerData'
p2
(dp3
S'b'
(dp4
S'name'
p5
S'radical'
p6
sS'lib'
p7
(dp8
sS'unicodes'
p9
(tsS'width'
p10
I1118
sS'contours'
p11
(tsS'components'
p12
(tsS'anchors'
p13
(tsss."
LayerCount: 2
Fore
SplineSet
527 -14 m 257
 534 -14 l 257
 996 1363 l 257
 956 1363 l 257
 535 108 l 257
 294 621 l 257
 30 621 l 257
 30 586 l 257
 238 586 l 257
 527 -14 l 257
EndSplineSet
EndChar

StartChar: registered
Encoding: 174 174 347
Width: 1512
VWidth: 0
Flags: W
PickledData: "(dp1
S'com.typemytype.robofont.layerData'
p2
(dp3
S'b'
(dp4
S'name'
p5
S'registered'
p6
sS'lib'
p7
(dp8
sS'unicodes'
p9
(tsS'width'
p10
I1512
sS'contours'
p11
(tsS'components'
p12
(tsS'anchors'
p13
(tsss."
LayerCount: 2
Fore
SplineSet
440 217 m 257
 676 217 l 257
 676 249 l 257
 577 249 l 257
 577 579 l 257
 771 579 l 257
 973 217 l 257
 1105 217 l 257
 1105 249 l 257
 1000 249 l 257
 812 579 l 257
 940 583 1015 653 1015 767 c 256
 1015 885 937 955 805 955 c 258
 432 955 l 257
 432 923 l 257
 536 923 l 257
 536 249 l 257
 440 249 l 257
 440 217 l 257
577 612 m 257
 577 923 l 257
 805 923 l 258
 912 923 975 865 975 767 c 256
 975 670 912 612 806 612 c 258
 577 612 l 257
746 -14 m 256
 413 -14 149 243 149 577 c 256
 149 910 413 1167 746 1167 c 256
 1079 1167 1343 910 1343 577 c 256
 1343 243 1079 -14 746 -14 c 256
746 -48 m 256
 1103 -48 1387 224 1387 577 c 256
 1387 929 1103 1201 746 1201 c 256
 389 1201 105 929 105 577 c 256
 105 224 389 -48 746 -48 c 256
EndSplineSet
EndChar

StartChar: ring
Encoding: 730 730 348
Width: 317
VWidth: 0
Flags: W
PickledData: "(dp1
S'com.typemytype.robofont.layerData'
p2
(dp3
S'b'
(dp4
S'name'
p5
S'ring'
p6
sS'lib'
p7
(dp8
sS'unicodes'
p9
(tsS'width'
p10
I317
sS'contours'
p11
(tsS'components'
p12
(tsS'anchors'
p13
(tsss."
AnchorPoint: "top" 158.5 804 mark 0
LayerCount: 2
Fore
SplineSet
156 887 m 256
 227 887 268 928 268 999 c 256
 268 1068 226 1108 155 1108 c 256
 84 1108 42 1068 41 999 c 256
 42 928 84 887 156 887 c 256
156 914 m 256
 105 914 74 945 74 999 c 256
 74 1050 105 1080 156 1080 c 256
 206 1080 236 1050 236 999 c 256
 236 945 206 914 156 914 c 256
EndSplineSet
EndChar

StartChar: s
Encoding: 115 115 349
Width: 875
VWidth: 0
Flags: W
PickledData: "(dp1
S'com.typemytype.robofont.layerData'
p2
(dp3
S'b'
(dp4
S'name'
p5
S's'
sS'lib'
p6
(dp7
sS'unicodes'
p8
(tsS'width'
p9
I875
sS'contours'
p10
(tsS'components'
p11
(tsS'anchors'
p12
(tsss."
AnchorPoint: "top" 442 805 basechar 0
AnchorPoint: "bot" 454 0 basechar 0
LayerCount: 2
Fore
SplineSet
463 -22 m 256
 622 -22 780 44 780 193 c 256
 780 364 669 388 495 426 c 258
 356 456 l 258
 263 476 183 514 181 606 c 256
 180 735 306 792 429 792 c 256
 524 792 647 744 691 682 c 257
 696 545 l 257
 736 545 l 257
 736 804 l 257
 694 804 l 257
 694 728 l 257
 630 790 525 826 429 826 c 256
 280 826 139 761 139 604 c 256
 139 496 225 443 350 417 c 258
 487 389 l 258
 662 353 739 322 740 193 c 257
 742 84 626 12 463 12 c 256
 343 12 241 49 174 125 c 257
 171 233 l 257
 132 233 l 257
 132 0 l 257
 172 0 l 257
 172 84 l 257
 222 27 337 -22 463 -22 c 256
EndSplineSet
EndChar

StartChar: section
Encoding: 167 167 355
Width: 912
VWidth: 0
Flags: W
LayerCount: 2
Fore
SplineSet
495 -22 m 256
 699 -22 808 56 808 189 c 256
 808 254 766 306 706 341 c 257
 768 376 816 471 816 541 c 256
 816 876 179 766 191 983 c 256
 197 1084 290 1140 457 1140 c 256
 588 1140 672 1087 719 1027 c 257
 719 929 l 257
 759 929 l 257
 759 1157 l 257
 719 1157 l 257
 719 1076 l 257
 657 1132 573 1174 457 1174 c 256
 264 1174 150 1102 150 979 c 256
 150 893 206 856 276 828 c 257
 213 795 146 714 150 604 c 256
 160 336 782 414 769 185 c 256
 763 74 672 12 495 12 c 256
 380 12 237 54 200 131 c 257
 200 224 l 257
 156 224 l 257
 156 -7 l 257
 200 -7 l 257
 200 76 l 257
 258 17 381 -22 495 -22 c 256
674 357 m 257
 261 472 192 492 192 631 c 256
 192 732 267 799 311 816 c 257
 604 747 778 710 778 538 c 256
 778 478 725 379 674 357 c 257
EndSplineSet
EndChar

StartChar: semicolon
Encoding: 59 59 356
Width: 294
VWidth: 0
Flags: W
PickledData: "(dp1
S'com.typemytype.robofont.layerData'
p2
(dp3
S'b'
(dp4
S'name'
p5
S'semicolon'
p6
sS'lib'
p7
(dp8
sS'unicodes'
p9
(tsS'width'
p10
I294
sS'contours'
p11
(tsS'components'
p12
(tsS'anchors'
p13
(tsss."
LayerCount: 2
Fore
SplineSet
75 117 m 257
 166 116 177 165 177 279 c 258
 177 357 l 257
 104 357 l 257
 104 262 l 257
 149 262 l 257
 149 177 149 136 75 134 c 257
 75 117 l 257
104 729 m 257
 177 729 l 257
 177 813 l 257
 104 813 l 257
 104 729 l 257
EndSplineSet
EndChar

StartChar: seven
Encoding: 55 55 357
Width: 1061
VWidth: 0
Flags: W
PickledData: "(dp1
S'com.typemytype.robofont.layerData'
p2
(dp3
S'b'
(dp4
S'name'
p5
S'seven'
p6
sS'lib'
p7
(dp8
sS'unicodes'
p9
(tsS'width'
p10
I1061
sS'contours'
p11
(tsS'components'
p12
(tsS'anchors'
p13
(tsss."
LayerCount: 2
Fore
SplineSet
482 0 m 257
 526 0 l 257
 526 0 757 688 912 1119 c 257
 912 1152 l 257
 184 1152 l 257
 184 853 l 257
 226 853 l 257
 226 1116 l 257
 866 1116 l 257
 718 705 482 0 482 0 c 257
EndSplineSet
EndChar

StartChar: six
Encoding: 54 54 358
Width: 1061
VWidth: 0
Flags: W
PickledData: "(dp1
S'com.typemytype.robofont.layerData'
p2
(dp3
S'b'
(dp4
S'name'
p5
S'six'
p6
sS'lib'
p7
(dp8
sS'unicodes'
p9
(tsS'width'
p10
I1061
sS'contours'
p11
(tsS'components'
p12
(tsS'anchors'
p13
(tsss."
LayerCount: 2
Fore
SplineSet
527 -22 m 256
 741 -22 892 118 892 315 c 256
 892 509 743 647 532 647 c 256
 442 647 344 605 318 574 c 257
 658 1174 l 257
 621 1193 l 257
 226 484 l 258
 193 426 179 355 179 315 c 256
 179 118 323 -22 527 -22 c 256
527 14 m 256
 348 14 221 139 221 315 c 256
 221 500 369 611 532 611 c 256
 718 611 850 488 850 315 c 256
 850 139 716 14 527 14 c 256
EndSplineSet
EndChar

StartChar: slash
Encoding: 47 47 359
Width: 395
VWidth: 0
Flags: W
PickledData: "(dp1
S'com.typemytype.robofont.layerData'
p2
(dp3
S'b'
(dp4
S'name'
p5
S'slash'
p6
sS'lib'
p7
(dp8
sS'unicodes'
p9
(tsS'width'
p10
I395
sS'contours'
p11
(tsS'components'
p12
(tsS'anchors'
p13
(tsss."
LayerCount: 2
Fore
SplineSet
0 -75 m 257
 38 -75 l 257
 395 1239 l 257
 357 1239 l 257
 0 -75 l 257
EndSplineSet
EndChar

StartChar: sterling
Encoding: 163 163 362
Width: 1059
VWidth: 0
Flags: W
LayerCount: 2
Fore
SplineSet
266 -22 m 256
 379 -22 474 42 520 146 c 257
 596 53 695 -4 789 -4 c 256
 966.647 -4 1039 140.333 1019 287 c 257
 981 287 l 257
 1001 147 937.235 30 789 30 c 256
 700 30 605 82 534 174 c 257
 554 235 564 302 564 369 c 256
 564 440 553 512 530 577 c 257
 888 577 l 257
 888 611 l 257
 517 611 l 257
 454 744 341 828 341 946 c 256
 341 1099 457 1189 652 1189 c 256
 823 1189 924 1107 924 968 c 257
 965 968 l 257
 965 1127 849 1221 652 1221 c 256
 429 1221 297 1119 297 946 c 256
 297 828 421 727 478 611 c 257
 190 611 l 257
 190 577 l 257
 492 577 l 257
 522 516 536 444 536 369 c 256
 536 313 528 256 512 201 c 257
 455 279 367 325 275 325 c 256
 137 325 55 258 55 145 c 256
 55 40 133 -22 266 -22 c 256
266 12 m 256
 161 12 99 61 99 145 c 256
 99 237 164 291 275 291 c 256
 353 291 436 246 498 169 c 257
 454 70 368 12 266 12 c 256
EndSplineSet
EndChar

StartChar: summation
Encoding: 8721 8721 363
Width: 1212
VWidth: 0
Flags: W
PickledData: "(dp1
S'com.typemytype.robofont.layerData'
p2
(dp3
S'b'
(dp4
S'name'
p5
S'summation'
p6
sS'lib'
p7
(dp8
sS'unicodes'
p9
(tsS'width'
p10
I1212
sS'contours'
p11
(tsS'components'
p12
(tsS'anchors'
p13
(tsss."
LayerCount: 2
Fore
SplineSet
119 0 m 257
 1071 0 l 257
 1071 362 l 257
 1022 362 l 257
 1022 35 l 257
 314 35 l 257
 700 576 l 257
 700 627 l 257
 319 1115 l 257
 996 1115 l 257
 996 796 l 257
 1043 796 l 257
 1043 1152 l 257
 119 1152 l 257
 119 1115 l 257
 284 1115 l 257
 673 601 l 257
 284 35 l 257
 119 35 l 257
 119 0 l 257
EndSplineSet
EndChar

StartChar: t
Encoding: 116 116 364
Width: 574
VWidth: 0
Flags: W
PickledData: "(dp1
S'com.typemytype.robofont.layerData'
p2
(dp3
S'b'
(dp4
S'name'
p5
S't'
sS'lib'
p6
(dp7
sS'unicodes'
p8
(tsS'width'
p9
I574
sS'contours'
p10
(tsS'components'
p11
(tsS'anchors'
p12
(tsss."
AnchorPoint: "bot" 363 -4 basechar 0
AnchorPoint: "top" 219 981 basechar 0
AnchorPoint: "mid" 287 804 basechar 0
LayerCount: 2
Fore
SplineSet
448 0 m 258
 521 0 l 257
 521 34 l 257
 448 34 l 258
 300 34 238 82 238 219 c 258
 238 770 l 257
 477 770 l 257
 478 804 l 257
 238 804 l 257
 238 1096 l 257
 194 1084 l 257
 194 804 l 257
 40 804 l 257
 40 770 l 257
 194 770 l 257
 194 216 l 258
 194 46 303 0 448 0 c 258
EndSplineSet
EndChar

StartChar: thorn
Encoding: 254 254 369
Width: 1069
VWidth: 0
Flags: W
PickledData: "(dp1
S'com.typemytype.robofont.layerData'
p2
(dp3
S'b'
(dp4
S'name'
p5
S'thorn'
p6
sS'lib'
p7
(dp8
sS'unicodes'
p9
(tsS'width'
p10
I1069
sS'contours'
p11
(tsS'components'
p12
(tsS'anchors'
p13
(tsss."
LayerCount: 2
Fore
SplineSet
4 -383 m 257
 224 -383 l 257
 228 1152 l 257
 26 1152 l 257
 26 1114 l 257
 178 1114 l 257
 178 -348 l 257
 4 -348 l 257
 4 -383 l 257
EndSplineSet
Refer: 272 -1 N 1 0 0 1 -38 21 2
EndChar

StartChar: three
Encoding: 51 51 370
Width: 1061
VWidth: 0
Flags: W
PickledData: "(dp1
S'com.typemytype.robofont.layerData'
p2
(dp3
S'b'
(dp4
S'name'
p5
S'three'
p6
sS'lib'
p7
(dp8
sS'unicodes'
p9
(tsS'width'
p10
I1061
sS'contours'
p11
(tsS'components'
p12
(tsS'anchors'
p13
(tsss."
LayerCount: 2
Fore
SplineSet
559 -22 m 256
 795 -22 934 107 934 325 c 256
 934 475 820 598 633 616 c 257
 822 635 920 743 920 872 c 256
 920 1062 779 1174 540 1174 c 256
 385 1174 229 1080 179 942 c 257
 217 929 l 257
 268 1061 409 1138 540 1138 c 256
 751 1138 876 1039 876 872 c 256
 876 733 751 634 501 634 c 257
 501 598 l 257
 766 598 890 485 890 325 c 256
 890 130 767 14 559 14 c 256
 425 14 274 89 214 223 c 257
 182 199 l 257
 243 63 399 -22 559 -22 c 256
EndSplineSet
EndChar

StartChar: threequarters
Encoding: 190 190 371
Width: 1649
VWidth: 0
Flags: W
LayerCount: 2
Fore
SplineSet
349 348 m 256
 521 348 623 434 623 580 c 256
 623 698 552 774 433 785 c 257
 544 794 609 859 609 960 c 256
 609 1095 515 1174 357 1174 c 256
 242 1174 148 1123 104 1036 c 257
 137 1017 l 257
 178 1094 260 1140 357 1140 c 256
 488 1140 565 1073 565 960 c 256
 565 853 487 800 327 800 c 258
 266 800 l 257
 266 766 l 257
 327 766 l 258
 507 766 579 713 579 580 c 256
 579 456 494 382 349 382 c 256
 249 382 164 437 121 529 c 257
 88 509 l 257
 134 408 231 348 349 348 c 256
1257 0 m 257
 1525 0 l 257
 1525 34 l 257
 1413 34 l 257
 1413 256 l 257
 1533 256 l 257
 1533 290 l 257
 1413 290 l 257
 1413 804 l 257
 1372 804 l 257
 1012 283 l 257
 1021 256 l 257
 1369 256 l 257
 1369 34 l 257
 1257 34 l 257
 1257 0 l 257
486 0 m 257
 533 0 l 257
 1289 1152 l 257
 1243 1152 l 257
 486 0 l 257
1062 290 m 257
 1369 741 l 257
 1369 290 l 257
 1062 290 l 257
EndSplineSet
EndChar

StartChar: threesuperior
Encoding: 179 179 372
Width: 841
VWidth: 0
Flags: W
LayerCount: 2
Fore
SplineSet
426 348 m 256
 598 348 700 434 700 580 c 256
 700 698 629 774 510 785 c 257
 621 794 686 859 686 960 c 256
 686 1095 592 1174 434 1174 c 256
 319 1174 225 1123 181 1036 c 257
 214 1017 l 257
 255 1094 337 1140 434 1140 c 256
 565 1140 642 1073 642 960 c 256
 642 853 564 800 404 800 c 258
 343 800 l 257
 343 766 l 257
 404 766 l 258
 584 766 656 713 656 580 c 256
 656 456 571 382 426 382 c 256
 326 382 241 437 198 529 c 257
 165 509 l 257
 211 408 308 348 426 348 c 256
EndSplineSet
EndChar

StartChar: tilde
Encoding: 732 732 373
Width: 429
VWidth: 0
Flags: W
PickledData: "(dp1
S'com.typemytype.robofont.layerData'
p2
(dp3
S'b'
(dp4
S'name'
p5
S'tilde'
p6
sS'lib'
p7
(dp8
sS'unicodes'
p9
(tsS'width'
p10
I429
sS'contours'
p11
(tsS'components'
p12
(tsS'anchors'
p13
(tsss."
AnchorPoint: "top" 214.5 804 mark 0
LayerCount: 2
Fore
SplineSet
334 940 m 256
 397 940 409 978 417 1055 c 257
 394 1055 l 257
 378 979 362 972 329 972 c 256
 270 972 187 1059 109 1059 c 256
 53 1059 32 1012 23 942 c 257
 47 942 l 257
 63 1012 75 1027 107 1027 c 256
 170 1027 244 940 334 940 c 256
EndSplineSet
EndChar

StartChar: trademark
Encoding: 8482 8482 374
Width: 1581
VWidth: 0
Flags: W
PickledData: "(dp1
S'com.typemytype.robofont.layerData'
p2
(dp3
S'b'
(dp4
S'name'
p5
S'trademark'
p6
sS'lib'
p7
(dp8
sS'unicodes'
p9
(tsS'width'
p10
I1581
sS'contours'
p11
(tsS'components'
p12
(tsS'anchors'
p13
(tsss."
LayerCount: 2
Fore
SplineSet
777 584 m 257
 977 584 l 257
 977 610 l 257
 891 610 l 257
 891 1079 l 257
 1105 639 l 257
 1106 639 l 257
 1306 1076 l 257
 1306 610 l 257
 1222 610 l 257
 1222 584 l 257
 1419 584 l 257
 1419 610 l 257
 1340 610 l 257
 1340 1126 l 257
 1419 1126 l 257
 1419 1152 l 257
 1306 1152 l 257
 1105 704 l 257
 890 1152 l 257
 777 1152 l 257
 777 1126 l 257
 857 1126 l 257
 857 610 l 257
 777 610 l 257
 777 584 l 257
250 584 m 257
 487 584 l 257
 487 610 l 257
 384 610 l 257
 384 1126 l 257
 598 1126 l 257
 598 980 l 257
 626 980 l 257
 626 1152 l 257
 118 1152 l 257
 118 980 l 257
 145 980 l 257
 145 1126 l 257
 350 1126 l 257
 350 610 l 257
 250 610 l 257
 250 584 l 257
EndSplineSet
EndChar

StartChar: two
Encoding: 50 50 375
Width: 1061
VWidth: 0
Flags: W
PickledData: "(dp1
S'com.typemytype.robofont.layerData'
p2
(dp3
S'b'
(dp4
S'name'
p5
S'two'
p6
sS'lib'
p7
(dp8
sS'unicodes'
p9
(tsS'width'
p10
I1061
sS'contours'
p11
(tsS'components'
p12
(tsS'anchors'
p13
(tsss."
LayerCount: 2
Fore
SplineSet
185 0 m 257
 888 0 l 257
 888 243 l 257
 846 243 l 257
 846 36 l 257
 239 36 l 257
 636 424 l 258
 785 570 887 670 887 853 c 256
 887 1041 748 1174 552 1174 c 256
 346 1174 200 1036 200 842 c 256
 200 802 204 771 211 740 c 257
 254 740 l 257
 247 773 244 810 244 842 c 256
 244 1015 372 1138 552 1138 c 256
 722 1138 843 1020 843 853 c 256
 843 691 758 598 610 453 c 258
 185 39 l 257
 185 0 l 257
EndSplineSet
EndChar

StartChar: twosuperior
Encoding: 178 178 376
Width: 897
VWidth: 0
Flags: W
PickledData: "(dp1
S'com.typemytype.robofont.layerData'
p2
(dp3
S'b'
(dp4
S'name'
p5
S'uni00B2'
p6
sS'lib'
p7
(dp8
sS'unicodes'
p9
(tsS'width'
p10
I897
sS'contours'
p11
(tsS'components'
p12
(tsS'anchors'
p13
(tsss."
LayerCount: 2
Fore
SplineSet
248 348 m 257
 700 348 l 257
 700 499 l 257
 668 499 l 257
 668 382 l 257
 299 382 l 257
 573 711 l 258
 645 798 701 865 701 967 c 256
 701 1097 614 1174 468 1174 c 256
 323 1174 238 1090 238 948 c 256
 238 921 244 884 253 847 c 257
 297 847 l 257
 288 880 283 918 283 948 c 256
 283 1069 352 1140 468 1140 c 256
 588 1140 659 1075 659 964 c 256
 659 886 619 829 546 740 c 258
 248 380 l 257
 248 348 l 257
EndSplineSet
EndChar

StartChar: u
Encoding: 117 117 377
Width: 1022
VWidth: 0
Flags: W
PickledData: "(dp1
S'com.typemytype.robofont.layerData'
p2
(dp3
S'b'
(dp4
S'name'
p5
S'u'
sS'lib'
p6
(dp7
sS'unicodes'
p8
(tsS'width'
p9
I1022
sS'contours'
p10
(tsS'components'
p11
(tsS'anchors'
p12
(tsss."
AnchorPoint: "bot" 511 0 basechar 0
AnchorPoint: "top" 494 804 basechar 0
AnchorPoint: "ogonek" 904 0 basechar 0
LayerCount: 2
Fore
SplineSet
449 -22 m 256
 577 -22 687 30 791 101 c 257
 797 0 l 257
 984 0 l 257
 984 32 l 257
 832 32 l 257
 832 804 l 257
 636 804 l 257
 636 770 l 257
 788 770 l 257
 788 133 l 257
 681 64 586 12 448 12 c 256
 308 12 249 108 249 204 c 258
 249 804 l 257
 46 804 l 257
 46 770 l 257
 205 770 l 257
 205 203 l 258
 205 130 244 -22 449 -22 c 256
EndSplineSet
EndChar

StartChar: uc_main_stem
Encoding: 65558 -1 380
Width: 626
VWidth: 0
Flags: W
PickledData: "(dp1
S'com.typemytype.robofont.layerData'
p2
(dp3
S'b'
(dp4
S'name'
p5
S'uc_main_stem'
p6
sS'lib'
p7
(dp8
sS'unicodes'
p9
(tsS'width'
p10
I626
sS'contours'
p11
(tsS'components'
p12
(tsS'anchors'
p13
(tsss."
LayerCount: 2
Fore
SplineSet
135 0 m 257
 491 0 l 257
 491 34 l 257
 334 34 l 257
 334 1118 l 257
 491 1118 l 257
 491 1152 l 257
 135 1152 l 257
 135 1118 l 257
 290 1118 l 257
 290 34 l 257
 135 34 l 257
 135 0 l 257
EndSplineSet
EndChar

StartChar: underscore
Encoding: 95 95 386
Width: 666
VWidth: 0
Flags: W
PickledData: "(dp1
S'com.typemytype.robofont.layerData'
p2
(dp3
S'b'
(dp4
S'name'
p5
S'underscore'
p6
sS'lib'
p7
(dp8
sS'unicodes'
p9
(tsS'width'
p10
I666
sS'contours'
p11
(tsS'components'
p12
(tsS'anchors'
p13
(tsss."
LayerCount: 2
Fore
SplineSet
0 -151 m 257
 666 -151 l 257
 666 -111 l 257
 0 -111 l 257
 0 -151 l 257
EndSplineSet
EndChar

StartChar: uni00AD
Encoding: 173 173 392
Width: 715
VWidth: 0
Flags: HW
PickledData: "(dp1
S'com.typemytype.robofont.layerData'
p2
(dp3
S'b'
(dp4
S'name'
p5
S'uni00AD'
p6
sS'lib'
p7
(dp8
sS'unicodes'
p9
(tsS'width'
p10
I-130
sS'contours'
p11
(tsS'components'
p12
(tsS'anchors'
p13
(tsss."
AnchorPoint: "mid" 344 557 mark 0
LayerCount: 2
Fore
SplineSet
96 542 m 257
 619 542 l 257
 619 576 l 257
 96 576 l 257
 96 542 l 257
EndSplineSet
EndChar

StartChar: uni00B5
Encoding: 181 181 393
Width: 1022
VWidth: 0
Flags: W
PickledData: "(dp1
S'com.typemytype.robofont.layerData'
p2
(dp3
S'b'
(dp4
S'name'
p5
S'uni00B5'
p6
sS'lib'
p7
(dp8
sS'unicodes'
p9
(tsS'width'
p10
I1022
sS'contours'
p11
(tsS'components'
p12
(tsS'anchors'
p13
(tsss."
LayerCount: 2
Fore
SplineSet
205 -178 m 257
 249 -178 l 257
 249 430 l 257
 205 430 l 257
 205 -178 l 257
EndSplineSet
Refer: 377 117 N 1 0 0 1 0 0 2
EndChar

StartChar: uni02C9
Encoding: 713 713 459
Width: 600
VWidth: 0
Flags: W
LayerCount: 2
Fore
SplineSet
118 903 m 257
 487 903 l 257
 487 951 l 257
 118 951 l 257
 118 903 l 257
EndSplineSet
EndChar

StartChar: uni0307
Encoding: 775 775 460
Width: 342
VWidth: 0
Flags: W
PickledData: "(dp1
S'com.typemytype.robofont.layerData'
p2
(dp3
S'b'
(dp4
S'name'
p5
S'uni0307'
p6
sS'lib'
p7
(dp8
sS'unicodes'
p9
(tsS'width'
p10
I342
sS'contours'
p11
(tsS'components'
p12
(tsS'anchors'
p13
(tsss."
AnchorPoint: "top" 171 804 mark 0
LayerCount: 2
Fore
SplineSet
170 978 m 256
 209 978 226 1006 226 1028 c 256
 226 1050 212 1079 170 1079 c 256
 129 1079 116 1052 115 1028 c 256
 115 1007 129 978 170 978 c 256
EndSplineSet
EndChar

StartChar: uni2113
Encoding: 8467 8467 479
Width: 552
VWidth: 0
Flags: W
LayerCount: 2
Fore
SplineSet
365 -12 m 257
 374 15 l 257
 226 15 168 28 204 257 c 258
 355 1215 l 257
 129 1215 l 257
 130 1178 l 257
 319 1178 l 257
 167 258 l 258
 134 55 150 -14 365 -12 c 257
EndSplineSet
EndChar

StartChar: uni2126
Encoding: 8486 8486 480
Width: 1406
VWidth: 0
Flags: W
LayerCount: 2
Fore
SplineSet
214 0 m 257
 627 0 l 257
 627 24 l 257
 376 176 255 443 255 671 c 256
 255 925 408 1145 703 1145 c 256
 998 1145 1151 925 1151 671 c 256
 1151 443 1030 176 779 24 c 257
 779 0 l 257
 1192 0 l 257
 1192 33 l 257
 844 33 l 257
 1068 176 1190 448 1190 682 c 256
 1190 944 1038 1174 703 1174 c 256
 368 1174 216 944 216 682 c 256
 216 448 338 176 562 33 c 257
 214 33 l 257
 214 0 l 257
EndSplineSet
EndChar

StartChar: uni2206
Encoding: 8710 8710 481
Width: 1281
VWidth: 0
Flags: W
PickledData: "(dp1
S'com.typemytype.robofont.layerData'
p2
(dp3
S'b'
(dp4
S'name'
p5
S'uni2206'
p6
sS'lib'
p7
(dp8
sS'unicodes'
p9
(tsS'width'
p10
I763
sS'contours'
p11
(tsS'components'
p12
(tsS'anchors'
p13
(tsss."
LayerCount: 2
Fore
SplineSet
175 0 m 257
 1106 0 l 257
 673 1152 l 257
 615 1152 l 257
 175 0 l 257
1032 50 m 257
 230 50 l 257
 634 1125 l 257
 637 1125 l 257
 1032 50 l 257
EndSplineSet
EndChar

StartChar: v
Encoding: 118 118 487
Width: 1005
VWidth: 0
Flags: W
PickledData: "(dp1
S'com.typemytype.robofont.layerData'
p2
(dp3
S'b'
(dp4
S'name'
p5
S'v'
sS'lib'
p6
(dp7
sS'unicodes'
p8
(tsS'width'
p9
I1005
sS'contours'
p10
(tsS'components'
p11
(tsS'anchors'
p12
(tsss."
LayerCount: 2
Fore
SplineSet
480 0 m 257
 537 0 l 257
 867 771 l 257
 1011 771 l 257
 1011 805 l 257
 644 805 l 257
 644 771 l 257
 818 771 l 257
 509 30 l 257
 188 771 l 257
 365 771 l 257
 365 805 l 257
 -6 805 l 257
 -6 771 l 257
 142 771 l 257
 480 0 l 257
EndSplineSet
EndChar

StartChar: w
Encoding: 119 119 488
Width: 1493
VWidth: 0
Flags: W
PickledData: "(dp1
S'com.typemytype.robofont.layerData'
p2
(dp3
S'b'
(dp4
S'name'
p5
S'w'
sS'lib'
p6
(dp7
sS'unicodes'
p8
(tsS'width'
p9
I1493
sS'contours'
p10
(tsS'components'
p11
(tsS'anchors'
p12
(tsss."
AnchorPoint: "bot" 746.5 0 basechar 0
AnchorPoint: "top" 752 804 basechar 0
LayerCount: 2
Fore
SplineSet
419 0 m 257
 480 0 l 257
 752 731 l 257
 1025 0 l 257
 1083 0 l 257
 1349 771 l 257
 1489 771 l 257
 1489 805 l 257
 1160 805 l 257
 1160 771 l 257
 1304 771 l 257
 1053 30 l 257
 774 771 l 257
 928 771 l 257
 928 805 l 257
 576 805 l 257
 576 771 l 257
 726 771 l 257
 451 28 l 257
 187 771 l 257
 349 771 l 257
 349 805 l 257
 4 805 l 257
 4 771 l 257
 141 771 l 257
 419 0 l 257
EndSplineSet
EndChar

StartChar: x
Encoding: 120 120 493
Width: 1052
VWidth: 0
Flags: W
PickledData: "(dp1
S'com.typemytype.robofont.layerData'
p2
(dp3
S'b'
(dp4
S'name'
p5
S'x'
sS'lib'
p6
(dp7
sS'unicodes'
p8
(tsS'width'
p9
I1052
sS'contours'
p10
(tsS'components'
p11
(tsS'anchors'
p12
(tsss."
LayerCount: 2
Fore
SplineSet
30 0 m 257
 390 0 l 257
 390 34 l 257
 232 34 l 257
 523 390 l 257
 823 34 l 257
 640 34 l 257
 640 0 l 257
 1022 0 l 257
 1022 34 l 257
 864 34 l 257
 549 411 l 257
 841 770 l 257
 1010 770 l 257
 1010 804 l 257
 628 804 l 257
 628 770 l 257
 797 770 l 257
 527 440 l 257
 251 770 l 257
 419 770 l 257
 419 804 l 257
 58 804 l 257
 58 770 l 257
 208 770 l 257
 501 417 l 257
 184 34 l 257
 30 34 l 257
 30 0 l 257
EndSplineSet
EndChar

StartChar: y
Encoding: 121 121 494
Width: 941
VWidth: 0
Flags: W
PickledData: "(dp1
S'com.typemytype.robofont.layerData'
p2
(dp3
S'b'
(dp4
S'name'
p5
S'y'
sS'lib'
p6
(dp7
sS'unicodes'
p8
(tsS'width'
p9
I941
sS'contours'
p10
(tsS'components'
p11
(tsS'anchors'
p12
(tsss."
AnchorPoint: "bot" 470.5 0 basechar 0
AnchorPoint: "top" 473 804 basechar 0
LayerCount: 2
Fore
SplineSet
144 -237 m 257
 222 -237 l 258
 352 -237 397 -218 446 -104 c 258
 824 770 l 257
 955 770 l 257
 955 804 l 257
 603 804 l 257
 603 770 l 257
 778 770 l 257
 481 72 l 257
 172 770 l 257
 321 770 l 257
 321 804 l 257
 -44 804 l 257
 -44 770 l 257
 125 770 l 257
 443 64 l 257
 475 64 l 257
 407 -87 l 258
 366 -179 345 -194 222 -194 c 258
 144 -194 l 257
 144 -237 l 257
EndSplineSet
EndChar

StartChar: yen
Encoding: 165 165 498
Width: 1237
VWidth: 0
Flags: W
PickledData: "(dp1
S'com.typemytype.robofont.layerData'
p2
(dp3
S'b'
(dp4
S'name'
p5
S'yen'
p6
sS'lib'
p7
(dp8
sS'unicodes'
p9
(tsS'width'
p10
I1237
sS'contours'
p11
(tsS'components'
p12
(tsS'anchors'
p13
(tsss."
LayerCount: 2
Fore
SplineSet
278 206 m 257
 942 206 l 257
 942 236 l 257
 278 236 l 257
 278 206 l 257
278 356 m 257
 942 356 l 257
 942 386 l 257
 278 386 l 257
 278 356 l 257
EndSplineSet
Refer: 124 89 N 1 0 0 1 0 0 2
EndChar

StartChar: z
Encoding: 122 122 500
Width: 858
VWidth: 0
Flags: W
PickledData: "(dp1
S'com.typemytype.robofont.layerData'
p2
(dp3
S'b'
(dp4
S'name'
p5
S'z'
sS'lib'
p6
(dp7
sS'unicodes'
p8
(tsS'width'
p9
I858
sS'contours'
p10
(tsS'components'
p11
(tsS'anchors'
p12
(tsss."
AnchorPoint: "bot" 429 0 basechar 0
AnchorPoint: "top" 455 804 basechar 0
LayerCount: 2
Fore
SplineSet
127 0 m 257
 774 0 l 257
 774 262 l 257
 733 262 l 257
 733 34 l 257
 177 34 l 257
 747 771 l 257
 747 805 l 257
 152 805 l 257
 152 572 l 257
 196 572 l 257
 196 771 l 257
 700 771 l 257
 127 33 l 257
 127 0 l 257
EndSplineSet
EndChar

StartChar: zero
Encoding: 48 48 504
Width: 1093
VWidth: 0
Flags: W
PickledData: "(dp1
S'com.typemytype.robofont.layerData'
p2
(dp3
S'b'
(dp4
S'name'
p5
S'zero'
p6
sS'lib'
p7
(dp8
sS'unicodes'
p9
(tsS'width'
p10
I1093
sS'contours'
p11
(tsS'components'
p12
(tsS'anchors'
p13
(tsss."
LayerCount: 2
Fore
SplineSet
547 9 m 256
 310 7 170 217 170 574 c 256
 170 929 310 1138 547 1138 c 256
 783 1138 923 929 923 574 c 256
 923 219 783 9 547 9 c 256
547 -25 m 256
 811 -25 967 197 967 574 c 256
 967 950 811 1172 547 1172 c 256
 282 1172 126 950 126 574 c 256
 126 197 282 -25 547 -25 c 256
EndSplineSet
EndChar
